<svg width="30" height="30" viewBox="0 0 30 30" fill="none" xmlns="http://www.w3.org/2000/svg">
<g id="material-symbols:nest-doorbell-visitor-outline-rounded">
<g id="Group 1000002910">
<path id="Vector" d="M11.5 3H22.75C24.125 3 25.25 4.125 25.25 5.5V25.5C25.25 26.875 24.125 28 22.75 28H11.5C10.125 28 9 26.875 9 25.5V23H11.5V25.5H22.75V5.5H11.5V8H9V5.5C9 4.125 10.125 3 11.5 3Z" fill="#3D3D3D"/>
<path id="Vector_2" d="M12.0125 11.0125L10.25 9.25L4 15.5L10.25 21.75L12.0125 19.9875L8.7875 16.75L20.875 16.75L20.875 14.25L8.7875 14.25L12.0125 11.0125Z" fill="#3D3D3D"/>
</g>
</g>
</svg>
