<svg width="30" height="30" viewBox="0 0 30 30" fill="none" xmlns="http://www.w3.org/2000/svg">
<g id="clarity:design-line" clip-path="url(#clip0_525_2254)">
<path id="Vector" d="M7.5 14.5083V22.5H15.4917L13.825 19.5833H10.4167V17.425L7.5 14.5083Z" fill="#3D3D3D"/>
<path id="Vector_2" d="M29.0577 26.9083L26.666 24.4833V26.6667H3.3327V23.2083H4.99936V21.875H3.3327V16.3333H4.99936V15H3.3327V9.66667H4.99936V8.33334H3.3327V3.675L16.616 16.8833V14.5333L3.09103 1.075C2.97447 0.95748 2.82555 0.87733 2.66326 0.844771C2.50097 0.812213 2.33267 0.828723 2.1798 0.892195C2.02693 0.955668 1.89642 1.06323 1.80492 1.20116C1.71342 1.33909 1.66507 1.50115 1.66603 1.66667V27.5C1.66603 27.721 1.75383 27.933 1.91011 28.0893C2.06639 28.2455 2.27835 28.3333 2.49936 28.3333H28.466C28.6315 28.3343 28.7936 28.286 28.9315 28.1945C29.0695 28.1029 29.177 27.9724 29.2405 27.8196C29.304 27.6667 29.3205 27.4984 29.2879 27.3361C29.2554 27.1738 29.1752 27.0249 29.0577 26.9083Z" fill="#3D3D3D"/>
<path id="Vector_3" d="M20.0007 25H23.334C23.776 25 24.1999 24.8244 24.5125 24.5118C24.8251 24.1993 25.0007 23.7753 25.0007 23.3333V7.24997L23.084 3.72497C22.9358 3.46816 22.7217 3.25554 22.4639 3.10905C22.206 2.96256 21.9138 2.88751 21.6173 2.89164C21.3141 2.89405 21.0173 2.97913 20.7588 3.13772C20.5004 3.29631 20.2901 3.5224 20.1507 3.79164L18.334 7.26664V23.3333C18.334 23.7753 18.5096 24.1993 18.8221 24.5118C19.1347 24.8244 19.5586 25 20.0007 25ZM20.0007 7.66664L21.6173 4.52497L23.334 7.67497V15H20.0007V7.66664ZM20.0007 21.3583H23.334V23.3916H20.0007V21.3583Z" fill="#3D3D3D"/>
</g>
<defs>
<clipPath id="clip0_525_2254">
<rect width="30" height="30" fill="white"/>
</clipPath>
</defs>
</svg>
