<svg width="31" height="30" viewBox="0 0 31 30" fill="none" xmlns="http://www.w3.org/2000/svg">
<g id="fluent:people-16-regular">
<path id="Vector" d="M7.17857 9.17857C7.17857 8.77054 7.25894 8.3665 7.41509 7.98952C7.57124 7.61254 7.80011 7.27001 8.08863 6.98149C8.37716 6.69296 8.71968 6.46409 9.09666 6.30795C9.47364 6.1518 9.87768 6.07143 10.2857 6.07143C10.6937 6.07143 11.0978 6.1518 11.4748 6.30795C11.8517 6.46409 12.1943 6.69296 12.4828 6.98149C12.7713 7.27001 13.0002 7.61254 13.1563 7.98952C13.3125 8.3665 13.3929 8.77054 13.3929 9.17857C13.3929 10.0026 13.0655 10.793 12.4828 11.3757C11.9001 11.9584 11.1098 12.2857 10.2857 12.2857C9.46165 12.2857 8.67133 11.9584 8.08863 11.3757C7.50593 10.793 7.17857 10.0026 7.17857 9.17857ZM10.2857 4C8.91227 4 7.59508 4.5456 6.62391 5.51677C5.65274 6.48794 5.10714 7.80513 5.10714 9.17857C5.10714 10.552 5.65274 11.8692 6.62391 12.8404C7.59508 13.8115 8.91227 14.3571 10.2857 14.3571C11.6592 14.3571 12.9763 13.8115 13.9475 12.8404C14.9187 11.8692 15.4643 10.552 15.4643 9.17857C15.4643 7.80513 14.9187 6.48794 13.9475 5.51677C12.9763 4.5456 11.6592 4 10.2857 4ZM20.6429 10.2143C20.6429 9.66491 20.8611 9.13803 21.2496 8.74956C21.638 8.3611 22.1649 8.14286 22.7143 8.14286C23.2637 8.14286 23.7905 8.3611 24.179 8.74956C24.5675 9.13803 24.7857 9.66491 24.7857 10.2143C24.7857 10.7637 24.5675 11.2905 24.179 11.679C23.7905 12.0675 23.2637 12.2857 22.7143 12.2857C22.1649 12.2857 21.638 12.0675 21.2496 11.679C20.8611 11.2905 20.6429 10.7637 20.6429 10.2143ZM22.7143 6.07143C21.6155 6.07143 20.5618 6.50791 19.7848 7.28484C19.0079 8.06178 18.5714 9.11553 18.5714 10.2143C18.5714 11.313 19.0079 12.3668 19.7848 13.1437C20.5618 13.9207 21.6155 14.3571 22.7143 14.3571C23.813 14.3571 24.8668 13.9207 25.6437 13.1437C26.4207 12.3668 26.8571 11.313 26.8571 10.2143C26.8571 9.11553 26.4207 8.06178 25.6437 7.28484C24.8668 6.50791 23.813 6.07143 22.7143 6.07143ZM2 19.5357C2 18.7116 2.32736 17.9213 2.91006 17.3386C3.49276 16.7559 4.28308 16.4286 5.10714 16.4286H15.4643C16.2883 16.4286 17.0787 16.7559 17.6614 17.3386C18.2441 17.9213 18.5714 18.7116 18.5714 19.5357V19.7677C18.5692 19.8626 18.5623 19.9573 18.5507 20.0515C18.4327 21.0557 18.0589 22.0128 17.4653 22.8314C16.3322 24.3953 14.1779 25.75 10.2857 25.75C6.39557 25.75 4.24129 24.3953 3.10407 22.8314C2.51115 22.0126 2.13814 21.0555 2.02071 20.0515C2.0104 19.9572 2.00349 19.8625 2 19.7677V19.5357ZM4.07143 19.7221V19.7366L4.07971 19.8381C4.15993 20.4794 4.40076 21.09 4.77986 21.6134C5.45514 22.5414 6.92586 23.6786 10.2857 23.6786C13.6456 23.6786 15.1163 22.5414 15.7916 21.6134C16.1707 21.09 16.4115 20.4794 16.4917 19.8381C16.4954 19.8037 16.4982 19.7692 16.5 19.7346V19.5357C16.5 19.261 16.3909 18.9976 16.1966 18.8034C16.0024 18.6091 15.739 18.5 15.4643 18.5H5.10714C4.83245 18.5 4.56902 18.6091 4.37478 18.8034C4.18055 18.9976 4.07143 19.261 4.07143 19.5357V19.7221ZM22.7143 23.6786C21.4963 23.6786 20.4979 23.4921 19.69 23.1856C20.0221 22.5773 20.2735 21.9283 20.4378 21.255C20.9929 21.4642 21.7304 21.6071 22.7143 21.6071C25.0322 21.6071 25.983 20.8159 26.4014 20.2276C26.646 19.8844 26.8012 19.4858 26.853 19.0676L26.8571 19.0096C26.855 18.8737 26.7994 18.7441 26.7026 18.6487C26.6057 18.5534 26.4752 18.5 26.3393 18.5H20.5393C20.3864 17.7488 20.0679 17.0412 19.6071 16.4286H26.3393C27.7686 16.4286 28.9286 17.5886 28.9286 19.0179V19.0531C28.9261 19.1285 28.9206 19.2038 28.912 19.2789C28.8242 20.0552 28.5405 20.7965 28.0876 21.4331C27.2134 22.6574 25.5749 23.6786 22.7143 23.6786Z" fill="#3D3D3D"/>
</g>
</svg>
