<svg width="30" height="30" viewBox="0 0 30 30" fill="none" xmlns="http://www.w3.org/2000/svg">
<g id="mingcute:report-line" clip-path="url(#clip0_525_4708)">
<g id="Group">
<path id="Vector" d="M14.6987 9C16.5616 8.99993 18.352 9.72188 19.6937 11.0142C21.0354 12.3064 21.8241 14.0685 21.8939 15.93L21.8987 16.2V24.6H23.0987C23.4046 24.6003 23.6988 24.7175 23.9212 24.9274C24.1436 25.1374 24.2774 25.4243 24.2954 25.7297C24.3133 26.035 24.2139 26.3357 24.0176 26.5702C23.8213 26.8047 23.5429 26.9555 23.2391 26.9916L23.0987 27H6.29875C5.99289 26.9997 5.69871 26.8825 5.4763 26.6726C5.2539 26.4626 5.12006 26.1757 5.10214 25.8703C5.08421 25.565 5.18356 25.2643 5.37986 25.0298C5.57617 24.7953 5.85463 24.6445 6.15835 24.6084L6.29875 24.6H7.49875V16.2C7.49875 14.2904 8.25731 12.4591 9.60758 11.1088C10.9578 9.75857 12.7892 9 14.6987 9ZM14.6987 11.4C13.4257 11.4 12.2048 11.9057 11.3046 12.8059C10.4045 13.7061 9.89875 14.927 9.89875 16.2V24.6H19.4987V16.2C19.4987 14.927 18.993 13.7061 18.0929 12.8059C17.1927 11.9057 15.9718 11.4 14.6987 11.4ZM15.3155 14.5716C15.5883 14.7351 15.785 15.0003 15.8624 15.3088C15.9398 15.6173 15.8916 15.9439 15.7283 16.2168L15.0179 17.4H16.4771C17.4191 17.4 18.0011 18.4284 17.5163 19.236L15.7283 22.218C15.5644 22.4911 15.2988 22.6878 14.9898 22.765C14.6808 22.8422 14.3538 22.7935 14.0807 22.6296C13.8077 22.4657 13.6109 22.2 13.5337 21.891C13.4565 21.5821 13.5052 21.2551 13.6691 20.982L14.3795 19.8H12.9203C12.7058 19.8 12.4951 19.7431 12.3098 19.6351C12.1244 19.527 11.9711 19.3717 11.8654 19.185C11.7597 18.9983 11.7055 18.7869 11.7083 18.5724C11.711 18.3579 11.7707 18.1479 11.8811 17.964L13.6691 14.982C13.7503 14.8468 13.8573 14.7289 13.9841 14.6351C14.1109 14.5413 14.2549 14.4734 14.4079 14.4353C14.5609 14.3972 14.7199 14.3896 14.8759 14.413C15.0318 14.4364 15.1816 14.4903 15.3167 14.5716H15.3155ZM7.06195 6.8652L7.91035 7.7136C8.1291 7.93977 8.25027 8.24281 8.24776 8.55745C8.24525 8.87209 8.11926 9.17316 7.89693 9.3958C7.6746 9.61845 7.37371 9.74487 7.05907 9.74782C6.74443 9.75078 6.44122 9.63003 6.21475 9.4116L5.36635 8.5632C5.25173 8.4525 5.16031 8.32009 5.09742 8.17369C5.03453 8.02728 5.00143 7.86982 5.00005 7.71048C4.99866 7.55115 5.02902 7.39313 5.08936 7.24566C5.1497 7.09818 5.2388 6.9642 5.35147 6.85153C5.46414 6.73886 5.59813 6.64975 5.7456 6.58941C5.89308 6.52908 6.05109 6.49871 6.21043 6.5001C6.36976 6.50148 6.52723 6.53459 6.67363 6.59748C6.82004 6.66037 6.95245 6.75179 7.06315 6.8664L7.06195 6.8652ZM24.0323 6.8652C24.239 7.07183 24.3631 7.34675 24.3814 7.63838C24.3997 7.93001 24.311 8.21832 24.1319 8.4492L24.0323 8.562L23.1839 9.4104C22.968 9.62562 22.6782 9.75057 22.3735 9.75987C22.0687 9.76918 21.7719 9.66214 21.5432 9.4605C21.3145 9.25886 21.1712 8.97774 21.1423 8.67423C21.1134 8.37072 21.201 8.06759 21.3875 7.8264L21.4871 7.7136L22.3355 6.8652C22.5606 6.64024 22.8657 6.51386 23.1839 6.51386C23.5021 6.51386 23.8073 6.64024 24.0323 6.8652ZM14.6987 3C14.9927 3.00004 15.2764 3.10795 15.496 3.30326C15.7156 3.49857 15.856 3.7677 15.8903 4.0596L15.8987 4.2V5.4C15.8984 5.70586 15.7813 6.00004 15.5713 6.22244C15.3614 6.44485 15.0744 6.57868 14.7691 6.59661C14.4637 6.61453 14.1631 6.51519 13.9285 6.31888C13.694 6.12257 13.5433 5.84412 13.5071 5.5404L13.4987 5.4V4.2C13.4987 3.88174 13.6252 3.57652 13.8502 3.35147C14.0753 3.12643 14.3805 3 14.6987 3Z" fill="#3D3D3D"/>
</g>
</g>
<defs>
<clipPath id="clip0_525_4708">
<rect width="30" height="30" fill="white"/>
</clipPath>
</defs>
</svg>
