<svg width="40" height="40" viewBox="0 0 40 40" fill="none" xmlns="http://www.w3.org/2000/svg">
<path d="M20.0002 33.3334H5.8335C5.17045 33.3334 4.53457 33.07 4.06573 32.6011C3.59689 32.1323 3.3335 31.4964 3.3335 30.8334V9.16669C3.3335 8.50365 3.59689 7.86776 4.06573 7.39892C4.53457 6.93008 5.17045 6.66669 5.8335 6.66669H34.1668C34.8299 6.66669 35.4658 6.93008 35.9346 7.39892C36.4034 7.86776 36.6668 8.50365 36.6668 9.16669V19.2159" stroke="#3D3D3D" stroke-width="4" stroke-linecap="round" stroke-linejoin="round"/>
<path d="M3.3335 9.16669C3.3335 8.50365 3.59689 7.86776 4.06573 7.39892C4.53457 6.93008 5.17045 6.66669 5.8335 6.66669H34.1668C34.8299 6.66669 35.4658 6.93008 35.9346 7.39892C36.4034 7.86776 36.6668 8.50365 36.6668 9.16669V16.6667H3.3335V9.16669Z" stroke="#3D3D3D" stroke-width="4"/>
<path d="M6.66667 11.6667C6.66667 10.7462 7.41286 10 8.33333 10C9.25381 10 10 10.7462 10 11.6667C10 12.5872 9.25381 13.3334 8.33333 13.3334C7.41286 13.3334 6.66667 12.5872 6.66667 11.6667Z" fill="#3D3D3D"/>
<path d="M11.6667 11.6667C11.6667 10.7462 12.4129 10 13.3333 10C14.2538 10 15 10.7462 15 11.6667C15 12.5872 14.2538 13.3334 13.3333 13.3334C12.4129 13.3334 11.6667 12.5872 11.6667 11.6667Z" fill="#3D3D3D"/>
<path d="M30.8335 30.8334C32.2142 30.8334 33.3335 29.7141 33.3335 28.3334C33.3335 26.9527 32.2142 25.8334 30.8335 25.8334C29.4528 25.8334 28.3335 26.9527 28.3335 28.3334C28.3335 29.7141 29.4528 30.8334 30.8335 30.8334Z" stroke="#3D3D3D" stroke-width="4"/>
<path d="M30.8334 34.1667V30.8333M30.8334 25.8333V22.5M25.7817 31.25L28.6684 29.5833M32.9984 27.0833L35.8851 25.4167M25.7817 25.4167L28.6684 27.0833M32.9984 29.5833L35.8851 31.25" stroke="#3D3D3D" stroke-width="4" stroke-linecap="round" stroke-linejoin="round"/>
</svg>
