<svg width="30" height="30" viewBox="0 0 30 30" fill="none" xmlns="http://www.w3.org/2000/svg">
<path d="M13.6913 13.9084C12.5376 13.9084 11.4098 13.5662 10.4505 12.9253C9.49119 12.2843 8.74352 11.3733 8.30201 10.3074C7.8605 9.24145 7.74498 8.06856 7.97006 6.93701C8.19514 5.80545 8.75071 4.76605 9.56651 3.95025C10.3823 3.13444 11.4217 2.57887 12.5533 2.35379C13.6848 2.12871 14.8577 2.24423 15.9236 2.68574C16.9895 3.12725 17.9006 3.87492 18.5415 4.83421C19.1825 5.7935 19.5246 6.92131 19.5246 8.07503C19.5246 9.62213 18.9101 11.1059 17.8161 12.1998C16.7221 13.2938 15.2384 13.9084 13.6913 13.9084ZM13.6913 5.22504C12.8672 5.22503 12.0616 4.21941 11.3764 4.67724C10.6912 5.13508 10.1572 5.78583 9.84181 6.54719C9.52644 7.30855 9.44393 8.14632 9.6047 8.95458C9.76547 9.76283 10.1623 10.5053 10.745 11.088C11.3277 11.6707 12.0702 12.0675 12.8784 12.2283C13.6867 12.3891 14.5245 12.3066 15.2858 11.9912C16.0472 11.6758 16.6979 11.1418 17.1558 10.4566C17.6136 9.77137 17.858 8.96579 17.858 8.1417C17.858 7.59453 17.7502 7.05271 17.5408 6.54719C17.3314 6.04166 17.0245 5.58233 16.6376 5.19542C16.2507 4.80851 15.7913 5.7516 15.2858 5.5422C14.7803 5.33281 14.2385 5.22504 13.6913 5.22504ZM18.333 14.9167C13.8233 13.9019 9.10549 14.3907 4.89964 16.3084C4.32122 16.5847 3.83319 17.0196 3.49239 17.5625C3.15158 18.1054 2.97203 18.734 2.97464 19.375V24.3334C2.97464 24.4428 2.99619 24.5512 3.03807 24.6523C3.07995 24.7534 3.14133 24.8452 3.21871 24.9226C3.2961 25 3.38796 25.0614 3.48907 25.1033C3.59017 25.1451 3.69854 25.1667 3.80797 25.1667C3.91741 25.1667 4.02577 25.1451 4.12687 25.1033C4.22798 25.0614 4.31984 25 4.39723 24.9226C4.47461 24.8452 4.53599 24.7534 4.57787 24.6523C4.61975 24.5512 4.6413 24.4428 4.6413 24.3334V19.375C4.63405 19.0506 4.72165 18.7311 4.89337 18.4558C5.06509 18.1805 5.31345 17.9612 5.60797 17.825C8.14153 16.6552 10.9007 16.055 13.6913 16.0667C15.2549 16.0647 16.8131 16.2493 18.333 16.6167V14.9167ZM17.1996 21.5917H24.8163V24.0084H17.1996V21.5917Z" fill="#3D3D3D"/>
<path d="M27.6404 17.8917H20.832V19.5584H26.807V26.5334H14.9987V19.5584H20.2487V19.9084C20.2487 20.1294 20.3365 20.3413 20.4928 20.4976C20.6491 20.6539 20.861 20.7417 21.082 20.7417C21.303 20.7417 21.515 20.6539 21.6713 20.4976C21.8276 20.3413 21.9154 20.1294 21.9154 19.9084V16.6667C21.9154 16.4457 21.8276 16.2337 21.6713 16.0775C21.515 15.9212 21.303 15.8334 21.082 15.8334C20.861 15.8334 20.6491 15.9212 20.4928 16.0775C20.3365 16.2337 20.2487 16.4457 20.2487 16.6667V17.8917H14.1654C13.9444 17.8917 13.7324 17.9795 13.5761 18.1358C13.4198 18.2921 13.332 18.504 13.332 18.725V27.3667C13.332 27.5877 13.4198 27.7997 13.5761 27.956C13.7324 28.1122 13.9444 28.2 14.1654 28.2H27.6404C27.8614 28.2 28.0733 28.1122 28.2296 27.956C28.3859 27.7997 28.4737 27.5877 28.4737 27.3667V18.725C28.4737 18.504 28.3859 18.2921 28.2296 18.1358C28.0733 17.9795 27.8614 17.8917 27.6404 17.8917Z" fill="#3D3D3D"/>
</svg>
