<svg width="129" height="129" viewBox="0 0 129 129" fill="none" xmlns="http://www.w3.org/2000/svg">
<g clip-path="url(#clip0_469_29)">
<path d="M128.205 0H0V128.205H128.205V0Z" fill="#633D94"/>
<path fill-rule="evenodd" clip-rule="evenodd" d="M44.0271 22.622H67.8211V33.898H55.5441V46.414H47.4271V43.095H44.0671L44.0271 22.622Z" fill="#FEFEFE"/>
<path d="M47.4259 47.252H44.0669V50.611H47.4259V47.252Z" fill="#D2AE6D"/>
<path d="M55.5441 47.252H52.1851V50.611H55.5441V47.252Z" fill="#D2AE6D"/>
<path d="M47.4259 51.531H44.0669V54.89H47.4259V51.531Z" fill="#FEFEFE"/>
<path d="M47.4259 60.088H44.0669V63.447H47.4259V60.088Z" fill="#FEFEFE"/>
<path d="M51.485 51.531H48.126V54.89H51.485V51.531Z" fill="#D2AE6D"/>
<path d="M55.5441 55.81H52.1851V59.169H55.5441V55.81Z" fill="#FEFEFE"/>
<path d="M51.485 55.81H48.126V59.169H51.485V55.81Z" fill="#D2AE6D"/>
<path d="M55.5441 60.088H52.1851V63.447H55.5441V60.088Z" fill="#D2AE6D"/>
<path d="M51.485 64.367H48.126V67.726H51.485V64.367Z" fill="#D2AE6D"/>
<path d="M76.0421 26.9H72.6841V30.259H76.0421V26.9Z" fill="#D2AE6D"/>
<path d="M76.0421 31.179H72.6841V34.538H76.0421V31.179Z" fill="#D2AE6D"/>
<path d="M76.0421 39.736H72.6841V43.095H76.0421V39.736Z" fill="#FEFEFE"/>
<path d="M80.1019 22.622H76.7429V25.981H80.1019V22.622Z" fill="#FEFEFE"/>
<path d="M84.16 26.9H80.801V30.259H84.16V26.9Z" fill="#D2AE6D"/>
<path d="M80.1019 31.179H76.7429V34.538H80.1019V31.179Z" fill="#FEFEFE"/>
<path d="M84.16 35.458H80.801V38.817H84.16V35.458Z" fill="#D2AE6D"/>
<path d="M80.1019 35.458H76.7429V38.817H80.1019V35.458Z" fill="#D2AE6D"/>
<path d="M84.16 39.736H80.801V43.095H84.16V39.736Z" fill="#D2AE6D"/>
<path fill-rule="evenodd" clip-rule="evenodd" d="M72.241 67.726H60.407V56.45H72.683V47.292H76.041V43.933H84.159V47.252L84.175 55.765C84.183 59.057 83.013 61.891 80.688 64.222C78.364 66.551 75.532 67.726 72.241 67.726Z" fill="#D2AE6D"/>
<path d="M99.893 90.127L91.012 78.874H88.242V97.021H91.659V84.786L101.186 97.022H103.308V78.875H99.892V90.127H99.893ZM79.803 90.42H73.073L76.438 82.689L79.803 90.42ZM82.703 97.022H86.431L78.302 78.875H74.574L66.446 97.022H70.147L71.7 93.605H81.175L82.703 97.022ZM53.268 78.875H49.203V79.03L56.167 89.528V97.022H59.584V89.528L66.807 79.03V78.875H62.691L57.875 86.37L53.268 78.875ZM47.029 97.022V78.875H43.637V97.022H47.029ZM28.286 82.111H32.014C35.949 82.111 37.606 84.937 37.683 87.767C37.761 90.727 36.13 93.735 32.014 93.735H28.286V82.111ZM32.014 78.875C29.788 78.875 27.121 78.875 24.895 78.875V97.022C27.122 97.022 29.788 97.022 32.014 97.022C38.357 97.022 41.153 92.388 41.075 87.793C40.997 83.301 38.227 78.875 32.014 78.875Z" fill="#FEFEFE"/>
<path d="M95.6031 102.102C95.6031 101.581 95.2851 101.321 94.6471 101.321H93.5381V102.925H94.7221C95.3091 102.924 95.6031 102.65 95.6031 102.102ZM96.4521 102.109C96.4521 102.564 96.3201 102.92 96.0571 103.178C95.7941 103.436 95.4221 103.566 94.9421 103.566H93.5381V105.457H92.7041V100.686H94.9091C95.9371 100.686 96.4521 101.161 96.4521 102.109ZM89.1531 105.457H85.8531V100.686H86.6881V104.795H89.1531V105.457ZM82.3091 105.457H79.0081V100.686H79.8441V104.795H82.3091V105.457ZM73.4151 104.114C73.4151 104.559 73.2431 104.913 72.8991 105.176C72.5391 105.448 72.0361 105.584 71.3891 105.584C70.7351 105.584 70.2311 105.426 69.8791 105.109C69.5551 104.815 69.3871 104.419 69.3781 103.92H70.2401C70.2401 104.607 70.6381 104.949 71.4351 104.949C72.1481 104.949 72.5041 104.702 72.5041 104.208C72.5041 103.923 72.3681 103.711 72.0971 103.573C71.9721 103.51 71.6471 103.415 71.1211 103.285C70.4931 103.13 70.0951 102.996 69.9251 102.885C69.6501 102.702 69.5111 102.4 69.5111 101.977C69.5111 101.522 69.6831 101.168 70.0261 100.914C70.3471 100.678 70.7711 100.56 71.3021 100.56C72.5131 100.56 73.1521 101.07 73.2191 102.09H72.3701C72.3301 101.488 71.9751 101.188 71.3071 101.188C71.0221 101.188 70.7931 101.247 70.6191 101.362C70.4451 101.478 70.3581 101.649 70.3581 101.877C70.3581 102.14 70.4721 102.324 70.6991 102.432C70.7971 102.476 71.1271 102.563 71.6871 102.692C72.2671 102.826 72.6711 102.968 72.9041 103.12C73.2451 103.345 73.4151 103.677 73.4151 104.114ZM64.9541 102.076C64.9541 101.796 64.8741 101.597 64.7141 101.481C64.5711 101.378 64.3481 101.328 64.0461 101.328H62.7631V102.858H63.9791C64.6331 102.858 64.9581 102.596 64.9541 102.076ZM65.9221 105.457H65.0141C64.9281 105.287 64.8871 104.956 64.8871 104.461C64.8871 104.105 64.8331 103.857 64.7271 103.72C64.5971 103.56 64.3541 103.48 63.9981 103.48H62.7621V105.458H61.9271V100.687H64.2591C65.2841 100.687 65.7981 101.11 65.8011 101.957C65.8061 102.616 65.5261 103.008 64.9591 103.133V103.147C65.2231 103.177 65.4141 103.288 65.5341 103.477C65.6541 103.666 65.7151 103.963 65.7151 104.369C65.7101 104.879 65.7801 105.243 65.9221 105.457ZM58.1831 105.457H54.7221V100.686H58.1561V101.334H55.5571V102.689H57.9891V103.337H55.5571V104.807H58.1821L58.1831 105.457ZM50.1231 102.102C50.1231 101.581 49.8051 101.321 49.1681 101.321H48.0591V102.925H49.2421C49.8291 102.924 50.1231 102.65 50.1231 102.102ZM50.9721 102.109C50.9721 102.564 50.8411 102.92 50.5781 103.178C50.3151 103.436 49.9431 103.566 49.4621 103.566H48.0591V105.457H47.2241V100.686H49.4291C50.4581 100.686 50.9721 101.161 50.9721 102.109ZM42.1981 103.526L41.4811 101.368L41.4681 101.367L40.7151 103.526H42.1981ZM43.7481 105.457H42.8541L42.4051 104.181H40.5081L40.0801 105.457H39.1921L40.9831 100.686H41.9651L43.7481 105.457ZM35.1461 102.102C35.1461 101.581 34.8281 101.321 34.1911 101.321H33.0821V102.925H34.2651C34.8521 102.924 35.1461 102.65 35.1461 102.102ZM35.9951 102.109C35.9951 102.564 35.8641 102.92 35.6011 103.178C35.3381 103.436 34.9661 103.566 34.4851 103.566H33.0821V105.457H32.2471V100.686H34.4521C35.4801 100.686 35.9951 101.161 35.9951 102.109Z" fill="#FEFEFE"/>
</g>
<defs>
<clipPath id="clip0_469_29">
<rect width="128.205" height="128.205" fill="white"/>
</clipPath>
</defs>
</svg>
