<svg width="40" height="40" viewBox="0 0 40 40" fill="none" xmlns="http://www.w3.org/2000/svg">
<g id="material-symbols:inventory-2-outline">
<path id="Vector" d="M5.00017 33.3334V14.5C4.52795 14.1945 4.13184 13.8056 3.81184 13.3334C3.49184 12.8612 3.33239 12.3056 3.3335 11.6667V6.66671C3.3335 5.75004 3.66017 4.96504 4.3135 4.31171C4.96684 3.65838 5.75128 3.33227 6.66684 3.33338H33.3335C34.2502 3.33338 35.0352 3.66004 35.6885 4.31338C36.3418 4.96671 36.6679 5.75115 36.6668 6.66671V11.6667C36.6668 12.3056 36.5068 12.8612 36.1868 13.3334C35.8668 13.8056 35.4713 14.1945 35.0002 14.5V33.3334C35.0002 34.25 34.6735 35.035 34.0202 35.6884C33.3668 36.3417 32.5824 36.6678 31.6668 36.6667H8.3335C7.41684 36.6667 6.63184 36.34 5.9785 35.6867C5.32517 35.0334 4.99906 34.2489 5.00017 33.3334ZM8.3335 15V33.3334H31.6668V15H8.3335ZM33.3335 11.6667V6.66671H6.66684V11.6667H33.3335ZM15.0002 23.3334H25.0002V20H15.0002V23.3334Z" fill="#3D3D3D"/>
</g>
</svg>
