<svg width="30" height="30" viewBox="0 0 30 30" fill="none" xmlns="http://www.w3.org/2000/svg">
<g id="material-symbols:nest-doorbell-visitor-outline-rounded">
<path id="Vector" d="M15.5 23H3V19.25C3 15.875 9.625 14.25 13 14.25C14.875 14.25 17.875 14.75 20.125 15.875C19.125 16.25 18.375 16.75 17.625 17.375C16.25 16.875 14.625 16.625 13 16.625C9.25 16.625 5.375 18.5 5.375 19.25V20.625H15.75C15.625 21.125 15.5 21.75 15.5 22.375V23ZM26.75 22.375C26.75 24.75 24.75 26.75 22.375 26.75C20 26.75 18 24.75 18 22.375C18 20 20 18 22.375 18C24.75 18 26.75 20 26.75 22.375ZM13 5.5C14.375 5.5 15.5 6.625 15.5 8C15.5 9.375 14.375 10.5 13 10.5C11.625 10.5 10.5 9.375 10.5 8C10.5 6.625 11.625 5.5 13 5.5ZM13 3C10.25 3 8 5.25 8 8C8 10.75 10.25 13 13 13C15.75 13 18 10.75 18 8C18 5.25 15.75 3 13 3Z" fill="#3D3D3D"/>
</g>
</svg>
