<svg width="40" height="40" viewBox="0 0 40 40" fill="none" xmlns="http://www.w3.org/2000/svg">
<path d="M36.5982 14.5167C38.6815 12.4333 37.7315 10 36.5982 8.81668L31.5982 3.81668C29.4982 1.73335 27.0815 2.68335 25.8982 3.81668L23.0648 6.66668H18.7482C15.5815 6.66668 13.7482 8.33335 12.8148 10.25L5.41484 17.65V24.3167L4.23151 25.4833C2.14817 27.5833 3.09817 30 4.23151 31.1833L9.23151 36.1833C10.1315 37.0833 11.0982 37.4167 12.0148 37.4167C13.1982 37.4167 14.2815 36.8333 14.9315 36.1833L19.4315 31.6667H25.4148C28.2482 31.6667 29.6815 29.9 30.1982 28.1667C32.0815 27.6667 33.1148 26.2333 33.5315 24.8333C36.1148 24.1667 37.0815 21.7167 37.0815 20V15H36.0982L36.5982 14.5167ZM33.7482 20C33.7482 20.75 33.4315 21.6667 32.0815 21.6667H30.4148V23.3333C30.4148 24.0833 30.0982 25 28.7482 25H27.0815V26.6667C27.0815 27.4167 26.7648 28.3333 25.4148 28.3333H18.0648L12.5982 33.8C12.0815 34.2833 11.7815 34 11.5982 33.8167L6.61484 28.85C6.13151 28.3333 6.41484 28.0333 6.59817 27.85L8.74817 25.6833V19.0167L12.0815 15.6833V18.3333C12.0815 20.35 13.4148 23.3333 17.0815 23.3333C20.7482 23.3333 22.0815 20.35 22.0815 18.3333H33.7482V20ZM34.2315 12.15L31.3982 15H18.7482V18.3333C18.7482 19.0833 18.4315 20 17.0815 20C15.7315 20 15.4148 19.0833 15.4148 18.3333V13.3333C15.4148 12.5667 15.6982 10 18.7482 10H24.4315L28.2315 6.20001C28.7482 5.71668 29.0482 6.00001 29.2315 6.18335L34.2148 11.15C34.6982 11.6667 34.4148 11.9667 34.2315 12.15Z" fill="#3D3D3D"/>
</svg>
