<svg width="30" height="30" viewBox="0 0 30 30" fill="none" xmlns="http://www.w3.org/2000/svg">
<g id="material-symbols:nest-doorbell-visitor-outline-rounded" clip-path="url(#clip0_525_5583)">
<path id="Vector" d="M21.8555 24.4862L15.953 21.2166C18.1467 19.4906 18.7425 16.0988 18.7425 14.197V10.2384C18.7425 7.61716 15.2597 4.69778 11.7614 4.69778C8.26409 4.69778 4.68894 7.61763 4.68894 10.2384V14.197C4.68894 15.9262 5.42062 19.4245 7.6369 21.2016L1.58203 24.4861C1.58203 24.4861 0 25.1911 0 26.07V28.4456C0 29.3198 0.709658 30.0295 1.58203 30.0295H21.8555C22.7287 30.0295 23.4384 29.3198 23.4384 28.4456V26.07C23.4384 25.1382 21.8554 24.4861 21.8554 24.4861L21.8555 24.4862ZM21.5635 28.1546H1.87506V26.4783C2.00959 26.3804 2.19756 26.2669 2.34568 26.199C2.38972 26.1788 2.43378 26.1577 2.4755 26.1338L8.53081 22.8497C9.083 22.5502 9.44909 21.9947 9.50487 21.3694C9.56065 20.7441 9.29956 20.1315 8.81019 19.7387C7.238 18.4782 6.5644 15.6863 6.5644 14.1971V10.2385C6.5644 8.89178 9.10315 6.57287 11.7619 6.57287C14.4699 6.57287 16.868 8.85993 16.868 10.2385V14.1971C16.868 15.6657 16.4119 18.4697 14.7942 19.7424C14.5504 19.9344 14.3579 20.1839 14.2341 20.4685C14.1103 20.753 14.0589 21.0639 14.0846 21.3732C14.1107 21.6823 14.213 21.9802 14.3823 22.2401C14.5516 22.5001 14.7827 22.7141 15.0549 22.8629L20.9574 26.1324C21.0094 26.161 21.0755 26.1919 21.1304 26.2159C21.2687 26.2745 21.4388 26.3724 21.5635 26.4587V28.1546ZM28.4171 19.8179L22.4269 16.5483C24.6207 14.8224 25.3046 11.4305 25.3046 9.52875V5.57016C25.3046 2.94891 21.7341 0 18.2358 0C15.9624 0 13.6379 1.23609 12.285 2.81909C13.0566 2.86688 13.9074 2.86784 14.6424 3.10222C15.63 2.333 16.8797 1.8755 18.2358 1.8755C20.9438 1.8755 23.4295 4.19156 23.4295 5.57065V9.52925C23.4295 10.9978 22.8858 13.8019 21.2682 15.0746C21.0243 15.2666 20.8319 15.516 20.708 15.8006C20.5842 16.0852 20.5328 16.396 20.5585 16.7053C20.5846 17.0145 20.6869 17.3123 20.8562 17.5723C21.0255 17.8322 21.2566 18.0462 21.5288 18.195L27.519 21.4646C27.571 21.4932 27.6371 21.5241 27.6919 21.548C27.8302 21.6066 28.0003 21.7046 28.125 21.7908V23.4582H24.3403C24.9117 23.8894 25.0847 24.5063 25.3065 25.3332H28.4176C29.2908 25.3332 30.0005 24.6235 30.0005 23.7492V21.4027C30 20.4698 28.4171 19.8178 28.4171 19.8178L28.4171 19.8179Z" fill="#3D3D3D"/>
</g>
<defs>
<clipPath id="clip0_525_5583">
<rect width="30" height="30" fill="white"/>
</clipPath>
</defs>
</svg>
