<svg width="40" height="40" viewBox="0 0 40 40" fill="none" xmlns="http://www.w3.org/2000/svg">
<g clip-path="url(#clip0_165_13289)">
<path d="M13.3332 26.6667H26.6665M19.9998 20V26.6667M9.99984 9.99999V8.33332C9.99984 3.33332 12.4998 1.66666 16.6665 1.66666H23.3332C27.4998 1.66666 29.9998 4.16666 29.9998 8.33332V9.99999C34.9998 9.99999 38.3332 13.3333 38.3332 18.3333C38.3332 23.3333 34.9998 26.6667 29.9998 26.6667M9.99984 9.99999H23.3332M9.99984 9.99999C4.99984 9.99999 1.6665 12.5 1.6665 18.3333C1.6665 24.1667 4.99984 26.6667 9.99984 26.6667M13.3332 38.3333H26.6665V20H13.3332V38.3333Z" stroke="#3D3D3D" stroke-width="3"/>
</g>
<defs>
<clipPath id="clip0_165_13289">
<rect width="40" height="40" fill="white"/>
</clipPath>
</defs>
</svg>
