<svg width="30" height="30" viewBox="0 0 30 30" fill="none" xmlns="http://www.w3.org/2000/svg">
<g id="material-symbols:nest-doorbell-visitor-outline-rounded">
<path id="Vector" d="M12.1 21.6C11.495 21.6 10.9769 21.3844 10.5457 20.9532C10.1145 20.522 9.89927 20.0043 9.9 19.4C9.9 18.795 10.1156 18.2769 10.5468 17.8457C10.978 17.4145 11.4957 17.1993 12.1 17.2C12.705 17.2 13.2231 17.4156 13.6543 17.8468C14.0855 18.278 14.3007 18.7957 14.3 19.4C14.3 20.005 14.0844 20.5231 13.6532 20.9543C13.222 21.3855 12.7043 21.6007 12.1 21.6ZM7.7 26V25.3675C7.7 24.5608 8.10333 23.9144 8.91 23.4282C9.71667 22.942 10.78 22.6993 12.1 22.7C13.42 22.7 14.4833 22.9431 15.29 23.4293C16.0967 23.9155 16.5 24.5616 16.5 25.3675V26H7.7ZM5.5 12.8C6.105 12.8 6.6231 12.5844 7.0543 12.1532C7.4855 11.722 7.70073 11.2043 7.7 10.6C7.7 9.995 7.4844 9.4769 7.0532 9.0457C6.622 8.6145 6.10427 8.39927 5.5 8.4C4.895 8.4 4.3769 8.6156 3.9457 9.0468C3.5145 9.478 3.29927 9.99573 3.3 10.6C3.3 11.205 3.5156 11.7231 3.9468 12.1543C4.378 12.5855 4.89573 12.8007 5.5 12.8ZM3.3 19.4C3.3 20.005 3.5156 20.5231 3.9468 20.9543C4.378 21.3855 4.89573 21.6007 5.5 21.6C6.105 21.6 6.6231 21.3844 7.0543 20.9532C7.4855 20.522 7.70073 20.0043 7.7 19.4C7.7 18.795 7.4844 18.2769 7.0532 17.8457C6.622 17.4145 6.10427 17.1993 5.5 17.2C4.895 17.2 4.3769 17.4156 3.9457 17.8468C3.5145 18.278 3.29927 18.7957 3.3 19.4ZM5.5 20.5C5.18833 20.5 4.9269 20.3944 4.7157 20.1832C4.5045 19.972 4.39927 19.7109 4.4 19.4C4.4 19.0883 4.5056 18.8269 4.7168 18.6157C4.928 18.4045 5.18907 18.2993 5.5 18.3C5.81167 18.3 6.0731 18.4056 6.2843 18.6168C6.4955 18.828 6.60073 19.0891 6.6 19.4C6.6 19.7117 6.4944 19.9731 6.2832 20.1843C6.072 20.3955 5.81093 20.5007 5.5 20.5ZM0 9.5C0 7.94167 0.527266 6.63523 1.5818 5.5807C2.63633 4.52617 3.9424 3.99927 5.5 4C7.05833 4 8.36477 4.52727 9.4193 5.5818C10.4738 6.63633 11.0007 7.9424 11 9.5V13.9C11 14.2117 10.8944 14.4731 10.6832 14.6843C10.472 14.8955 10.2109 15.0007 9.9 15C9.58833 15 9.3269 14.8944 9.1157 14.6832C8.9045 14.472 8.79927 14.2109 8.8 13.9V9.5C8.8 8.565 8.47 7.78107 7.81 7.1482C7.15 6.51533 6.38 6.19927 5.5 6.2C4.62 6.2 3.85 6.51643 3.19 7.1493C2.53 7.78217 2.2 8.56573 2.2 9.5V20.5C2.2 21.27 2.4475 21.9575 2.9425 22.5625C3.4375 23.1675 4.0425 23.5525 4.7575 23.7175C5.01417 23.7725 5.22977 23.9008 5.4043 24.1025C5.57883 24.3042 5.66573 24.5333 5.665 24.79C5.665 25.1567 5.5275 25.45 5.2525 25.67C4.9775 25.89 4.65667 25.9542 4.29 25.8625C3.04333 25.5875 2.01667 24.9598 1.21 23.9793C0.403334 22.9988 0 21.8391 0 20.5V9.5Z" fill="#3D3D3D"/>
</g>
</svg>
