<svg width="40" height="40" viewBox="0 0 40 40" fill="none" xmlns="http://www.w3.org/2000/svg">
<path d="M9.99984 36.6666C9.08317 36.6666 8.29817 36.34 7.64484 35.6866C6.99151 35.0333 6.6654 34.2489 6.66651 33.3333V6.66665C6.66651 5.74998 6.99317 4.96498 7.64651 4.31165C8.29984 3.65832 9.08428 3.3322 9.99984 3.33332H29.9998C30.9165 3.33332 31.7015 3.65998 32.3548 4.31332C33.0082 4.96665 33.3343 5.75109 33.3332 6.66665V33.3333C33.3332 34.25 33.0065 35.035 32.3532 35.6883C31.6998 36.3416 30.9154 36.6678 29.9998 36.6666H9.99984ZM9.99984 33.3333H29.9998V6.66665H26.6665V18.3333L22.4998 15.8333L18.3332 18.3333V6.66665H9.99984V33.3333ZM11.6665 30H28.3332L22.7082 22.5L18.3332 28.3333L15.6248 24.7083L11.6665 30Z" fill="#3D3D3D"/>
</svg>
