<svg width="40" height="40" viewBox="0 0 40 40" fill="none" xmlns="http://www.w3.org/2000/svg">
<path d="M20 5H7.5C6.11929 5 5 6.11929 5 7.5V25.8333C5 27.2141 6.11929 28.3333 7.5 28.3333H32.5C33.8807 28.3333 35 27.2141 35 25.8333V21.6667" stroke="#3D3D3D" stroke-width="4" stroke-linecap="round" stroke-linejoin="round"/>
<path d="M20 28.3333V35" stroke="#3D3D3D" stroke-width="4" stroke-linecap="round" stroke-linejoin="round"/>
<path d="M11.6666 35H28.3333" stroke="#3D3D3D" stroke-width="4" stroke-linecap="round" stroke-linejoin="round"/>
<path d="M30.8334 13.3333C32.2141 13.3333 33.3334 12.214 33.3334 10.8333C33.3334 9.4526 32.2141 8.33331 30.8334 8.33331C29.4527 8.33331 28.3334 9.4526 28.3334 10.8333C28.3334 12.214 29.4527 13.3333 30.8334 13.3333Z" fill="#3D3D3D" stroke="#3D3D3D" stroke-width="4"/>
<path d="M30.8334 16.6666V13.3333" stroke="#3D3D3D" stroke-width="4" stroke-linecap="round" stroke-linejoin="round"/>
<path d="M30.8334 8.33333V5" stroke="#3D3D3D" stroke-width="4" stroke-linecap="round" stroke-linejoin="round"/>
<path d="M25.7815 13.75L28.6682 12.0833" stroke="#3D3D3D" stroke-width="4" stroke-linecap="round" stroke-linejoin="round"/>
<path d="M32.9985 9.58335L35.8853 7.91669" stroke="#3D3D3D" stroke-width="4" stroke-linecap="round" stroke-linejoin="round"/>
<path d="M25.7812 7.91669L28.668 9.58335" stroke="#3D3D3D" stroke-width="4" stroke-linecap="round" stroke-linejoin="round"/>
<path d="M32.9983 12.0833L35.885 13.75" stroke="#3D3D3D" stroke-width="4" stroke-linecap="round" stroke-linejoin="round"/>
</svg>
