<svg width="40" height="40" viewBox="0 0 40 40" fill="none" xmlns="http://www.w3.org/2000/svg">
<g id="ic:outline-inventory">
<path id="Vector" d="M8.33333 8.33335H11.6667V13.3334H28.3333V8.33335H31.6667V16.6667H35V8.33335C35 6.50002 33.5 5.00002 31.6667 5.00002H24.7C24 3.06669 22.1667 1.66669 20 1.66669C17.8333 1.66669 16 3.06669 15.3 5.00002H8.33333C6.5 5.00002 5 6.50002 5 8.33335V31.6667C5 33.5 6.5 35 8.33333 35H18.3333V31.6667H8.33333V8.33335ZM20 5.00002C20.9167 5.00002 21.6667 5.75002 21.6667 6.66669C21.6667 7.58335 20.9167 8.33335 20 8.33335C19.0833 8.33335 18.3333 7.58335 18.3333 6.66669C18.3333 5.75002 19.0833 5.00002 20 5.00002Z" fill="#3D3D3D"/>
<path id="Vector_2" d="M35.0002 19.1667L25.8502 28.3334L20.8335 23.3334L18.3335 25.8334L25.8502 33.3334L37.5002 21.6667L35.0002 19.1667Z" fill="#3D3D3D"/>
</g>
</svg>
