<svg width="62" height="62" viewBox="0 0 62 62" fill="none" xmlns="http://www.w3.org/2000/svg">
<g filter="url(#filter0_d_439_14448)">
<circle cx="31" cy="31" r="25" fill="white"/>
</g>
<mask id="mask0_439_14448" style="mask-type:luminance" maskUnits="userSpaceOnUse" x="22" y="19" width="21" height="25">
<path d="M22.875 27.9794C22.875 27.9219 22.9219 27.875 22.9794 27.875H37.7706C37.8281 27.875 37.875 27.9219 37.875 27.9794V35.375C37.875 39.5169 34.5169 42.875 30.375 42.875C26.2331 42.875 22.875 39.5169 22.875 35.375V27.9794Z" fill="white" stroke="white" stroke-linecap="round" stroke-linejoin="round"/>
<path d="M37.875 35.375C38.8696 35.375 39.8234 34.9799 40.5267 34.2767C41.2299 33.5734 41.625 32.6196 41.625 31.625C41.625 30.6304 41.2299 29.6766 40.5267 28.9733C39.8234 28.2701 38.8696 27.875 37.875 27.875" stroke="white" stroke-linecap="round"/>
<path d="M22.875 21.625V23.5M37.875 21.625V23.5M30.375 19.75V23.5" stroke="white" stroke-linecap="round" stroke-linejoin="round"/>
</mask>
<g mask="url(#mask0_439_14448)">
<path d="M16 16.625H46V46.625H16V16.625Z" fill="#1C4584"/>
</g>
<defs>
<filter id="filter0_d_439_14448" x="0" y="0" width="62" height="62" filterUnits="userSpaceOnUse" color-interpolation-filters="sRGB">
<feFlood flood-opacity="0" result="BackgroundImageFix"/>
<feColorMatrix in="SourceAlpha" type="matrix" values="0 0 0 0 0 0 0 0 0 0 0 0 0 0 0 0 0 0 127 0" result="hardAlpha"/>
<feOffset/>
<feGaussianBlur stdDeviation="3"/>
<feComposite in2="hardAlpha" operator="out"/>
<feColorMatrix type="matrix" values="0 0 0 0 0 0 0 0 0 0 0 0 0 0 0 0 0 0 0.25 0"/>
<feBlend mode="normal" in2="BackgroundImageFix" result="effect1_dropShadow_439_14448"/>
<feBlend mode="normal" in="SourceGraphic" in2="effect1_dropShadow_439_14448" result="shape"/>
</filter>
</defs>
</svg>
