<svg width="200" height="164" viewBox="0 0 200 164" fill="none" xmlns="http://www.w3.org/2000/svg">
<path d="M96.742 163.27C95.158 163.27 93.922 162.946 93.034 162.298C92.146 161.65 91.702 160.738 91.702 159.562C91.702 158.878 91.882 158.278 92.242 157.762C92.614 157.234 93.118 156.856 93.754 156.628C93.19 156.376 92.764 156.034 92.476 155.602C92.188 155.17 92.044 154.666 92.044 154.09C92.044 152.938 92.446 152.05 93.25 151.426C94.066 150.802 95.23 150.49 96.742 150.49C98.254 150.49 99.412 150.802 100.216 151.426C101.02 152.05 101.422 152.938 101.422 154.09C101.422 154.666 101.278 155.17 100.99 155.602C100.702 156.034 100.282 156.376 99.73 156.628C100.366 156.856 100.864 157.234 101.224 157.762C101.596 158.278 101.782 158.878 101.782 159.562C101.782 160.738 101.332 161.65 100.432 162.298C99.544 162.946 98.314 163.27 96.742 163.27ZM96.742 155.818C97.522 155.818 98.116 155.686 98.524 155.422C98.932 155.146 99.136 154.702 99.136 154.09C99.136 153.418 98.938 152.938 98.542 152.65C98.158 152.35 97.558 152.2 96.742 152.2C95.926 152.2 95.32 152.35 94.924 152.65C94.528 152.938 94.33 153.418 94.33 154.09C94.33 154.702 94.534 155.146 94.942 155.422C95.35 155.686 95.95 155.818 96.742 155.818ZM96.742 161.578C98.578 161.578 99.496 160.906 99.496 159.562C99.496 158.182 98.578 157.492 96.742 157.492C94.894 157.492 93.97 158.182 93.97 159.562C93.97 160.906 94.894 161.578 96.742 161.578ZM109.139 163.27C107.171 163.27 105.683 162.724 104.675 161.632C103.679 160.528 103.181 158.944 103.181 156.88C103.181 154.816 103.679 153.238 104.675 152.146C105.683 151.042 107.171 150.49 109.139 150.49C111.095 150.49 112.577 151.042 113.585 152.146C114.593 153.25 115.097 154.828 115.097 156.88C115.097 158.932 114.593 160.51 113.585 161.614C112.577 162.718 111.095 163.27 109.139 163.27ZM111.173 152.74C110.657 152.38 109.979 152.2 109.139 152.2C107.891 152.2 106.961 152.59 106.349 153.37C105.749 154.15 105.449 155.32 105.449 156.88C105.449 158.116 105.701 159.07 106.205 159.742L111.173 152.74ZM109.139 161.578C110.387 161.578 111.311 161.188 111.911 160.408C112.511 159.628 112.811 158.452 112.811 156.88C112.811 155.668 112.571 154.72 112.091 154.036L107.105 161.074C107.645 161.41 108.323 161.578 109.139 161.578Z" fill="#3D3D3D"/>
<g opacity="0.19">
<path d="M105.608 8.36206C139.817 8.36206 167.639 36.0991 167.639 70.3922C167.639 104.685 139.902 132.422 105.608 132.422" stroke="#19374C" stroke-width="3" stroke-miterlimit="10"/>
</g>
<path d="M105.608 5C139.817 5 167.639 32.7371 167.639 67.0302C167.639 101.323 139.902 129.06 105.608 129.06" stroke="#150D36" stroke-width="3" stroke-miterlimit="10"/>
<path d="M105.608 129.06C71.3992 129.06 43.5781 101.323 43.5781 67.0302C43.5781 32.7371 71.3152 5 105.608 5" stroke="url(#paint0_linear_447_15766)" stroke-width="10" stroke-miterlimit="10"/>
<g filter="url(#filter0_d_447_15766)">
<path d="M44 41H169C183.359 41 195 52.6406 195 67C195 81.3594 183.359 93 169 93H44V41Z" fill="white"/>
</g>
<g filter="url(#filter1_d_447_15766)">
<path d="M56.25 85.6442C66.6054 75.2888 66.6053 58.4995 56.25 48.1442C45.8947 37.7888 29.1053 37.7888 18.75 48.1442C8.39467 58.4995 8.39466 75.2888 18.75 85.6442C29.1053 95.9995 45.8947 95.9995 56.25 85.6442Z" fill="white"/>
</g>
<g clip-path="url(#clip0_447_15766)">
<path d="M49.7817 73.582C48.5154 71.8819 46.7074 70.6642 44.656 70.1298L44.592 70.116L43.1141 72.6105C43.1131 72.9427 42.9807 73.2609 42.7459 73.4958C42.511 73.7307 42.1927 73.8631 41.8606 73.8641C41.1711 73.8641 40.607 73.3 39.9489 71.6403V71.6002C39.9489 71.1846 39.7839 70.7861 39.49 70.4922C39.1961 70.1983 38.7976 70.0333 38.382 70.0333C37.9664 70.0333 37.5679 70.1983 37.274 70.4922C36.9802 70.7861 36.8151 71.1846 36.8151 71.6002V71.6415V71.639C36.1131 73.3 35.544 73.8628 34.8558 73.8628C34.5237 73.8618 34.2054 73.7294 33.9705 73.4946C33.7357 73.2597 33.6033 72.9414 33.6023 72.6093L32.1707 70.1097C30.1052 70.6351 28.2807 71.8494 26.9987 73.5519L26.9811 73.5758C26.4729 74.4069 26.1899 75.356 26.16 76.3298V76.3385C26.1663 76.5266 26.16 76.7459 26.16 76.9653V79.4724C26.16 80.1373 26.4242 80.775 26.8943 81.2452C27.3645 81.7153 28.0022 81.9795 28.6671 81.9795H48.0969C48.7618 81.9795 49.3995 81.7153 49.8697 81.2452C50.3399 80.775 50.604 80.1373 50.604 79.4724V76.9653C50.604 76.7472 50.5977 76.5266 50.604 76.3385C50.5724 75.3537 50.2847 74.3941 49.7691 73.5544L49.7829 73.5795L49.7817 73.582ZM31.7997 58.5333C31.7997 62.1936 34.0811 67.5713 38.3808 67.5713C42.6052 67.5713 44.9618 62.1936 44.9618 58.5333V58.4518C44.9618 57.5876 44.7916 56.7318 44.4609 55.9334C44.1301 55.1349 43.6454 54.4094 43.0343 53.7983C42.4232 53.1872 41.6977 52.7024 40.8992 52.3717C40.1008 52.041 39.245 51.8708 38.3808 51.8708C37.5165 51.8708 36.6608 52.041 35.8623 52.3717C35.0639 52.7024 34.3384 53.1872 33.7273 53.7983C33.1161 54.4094 32.6314 55.1349 32.3007 55.9334C31.9699 56.7318 31.7997 57.5876 31.7997 58.4518V58.5371V58.5333ZM45.8819 60.6894C45.8819 63.0736 47.3686 66.5785 50.169 66.5785C52.9205 66.5785 54.4561 63.0749 54.4561 60.6894V60.6242C54.4561 59.4869 54.0043 58.3961 53.2001 57.5919C52.3959 56.7877 51.3051 56.3359 50.1678 56.3359C49.0304 56.3359 47.9397 56.7877 47.1355 57.5919C46.3312 58.3961 45.8794 59.4869 45.8794 60.6242V60.6932V60.6894H45.8819ZM21.814 62.695C21.814 65.0793 23.3007 68.5842 26.1011 68.5842C28.8526 68.5842 30.3882 65.0805 30.3882 62.695V62.6299C30.3882 61.4925 29.9364 60.4018 29.1322 59.5975C28.328 58.7933 27.2372 58.3415 26.0999 58.3415C24.9625 58.3415 23.8718 58.7933 23.0676 59.5975C22.2633 60.4018 21.8115 61.4925 21.8115 62.6299V62.6988V62.695H21.814Z" fill="#FF7A00"/>
</g>
<path d="M79.7579 75C79.4912 75 79.2979 74.94 79.1779 74.82C79.0712 74.7 79.0179 74.52 79.0179 74.28V62.14C79.0179 61.8867 79.0712 61.7 79.1779 61.58C79.2979 61.46 79.4912 61.4 79.7579 61.4H88.0779C88.3446 61.4 88.5246 61.4533 88.6179 61.56C88.7246 61.6667 88.7779 61.8467 88.7779 62.1V62.64C88.7779 62.8933 88.7246 63.08 88.6179 63.2C88.5246 63.3067 88.3446 63.36 88.0779 63.36H81.5779V67.24H86.2979C86.5646 67.24 86.7512 67.2933 86.8579 67.4C86.9646 67.5067 87.0179 67.6867 87.0179 67.94V68.44C87.0179 68.6933 86.9646 68.88 86.8579 69C86.7512 69.1067 86.5646 69.16 86.2979 69.16H81.5779V73.06H88.0579C88.3246 73.06 88.5112 73.12 88.6179 73.24C88.7246 73.3467 88.7779 73.5267 88.7779 73.78V74.32C88.7779 74.56 88.7246 74.7333 88.6179 74.84C88.5112 74.9467 88.3246 75 88.0579 75H79.7579ZM91.3013 75C91.0347 75 90.8413 74.94 90.7213 74.82C90.6013 74.7 90.5413 74.52 90.5413 74.28V65.94C90.5413 65.74 90.5747 65.6 90.6413 65.52C90.708 65.44 90.848 65.4 91.0613 65.4H92.1213C92.268 65.4 92.3747 65.4333 92.4413 65.5C92.508 65.5533 92.548 65.6533 92.5613 65.8L92.6213 66.64C93.008 66.1467 93.448 65.7667 93.9413 65.5C94.448 65.2333 95.048 65.1 95.7413 65.1C96.328 65.1 96.8347 65.2333 97.2613 65.5C97.7013 65.7533 98.0213 66.1333 98.2213 66.64C98.9547 65.6133 100.015 65.1 101.401 65.1C102.348 65.1 103.095 65.3867 103.641 65.96C104.201 66.5333 104.481 67.3867 104.481 68.52V74.28C104.481 74.52 104.421 74.7 104.301 74.82C104.195 74.94 104.001 75 103.721 75H102.841C102.575 75 102.381 74.94 102.261 74.82C102.141 74.7 102.081 74.52 102.081 74.28V68.66C102.081 68.0467 101.948 67.6067 101.681 67.34C101.428 67.0733 101.041 66.94 100.521 66.94C99.9747 66.94 99.528 67.12 99.1813 67.48C98.848 67.84 98.6813 68.3267 98.6813 68.94V74.28C98.6813 74.52 98.6213 74.7 98.5013 74.82C98.3813 74.94 98.188 75 97.9213 75H97.1013C96.8347 75 96.6413 74.94 96.5213 74.82C96.4013 74.7 96.3413 74.52 96.3413 74.28V68.56C96.3413 68 96.2213 67.5933 95.9813 67.34C95.7547 67.0733 95.388 66.94 94.8813 66.94C94.308 66.94 93.8413 67.1333 93.4813 67.52C93.1213 67.8933 92.9413 68.3867 92.9413 69V74.28C92.9413 74.52 92.8813 74.7 92.7613 74.82C92.6547 74.94 92.4613 75 92.1813 75H91.3013ZM107.473 79.04C107.206 79.04 107.013 78.98 106.893 78.86C106.786 78.74 106.733 78.56 106.733 78.32V66.36C107.239 66 107.913 65.7 108.753 65.46C109.606 65.22 110.459 65.1 111.313 65.1C115.179 65.1 117.113 66.8067 117.113 70.22C117.113 71.7933 116.686 73.0333 115.833 73.94C114.993 74.8467 113.833 75.3 112.353 75.3C111.006 75.3 109.973 74.9133 109.253 74.14V78.32C109.253 78.5733 109.193 78.7533 109.073 78.86C108.966 78.98 108.773 79.04 108.493 79.04H107.473ZM111.753 73.48C112.699 73.48 113.406 73.1933 113.873 72.62C114.339 72.0467 114.573 71.22 114.573 70.14C114.573 68.98 114.299 68.16 113.753 67.68C113.206 67.1867 112.366 66.94 111.233 66.94C110.393 66.94 109.733 67.0667 109.253 67.32V71.26C109.253 71.94 109.493 72.48 109.973 72.88C110.453 73.28 111.046 73.48 111.753 73.48ZM119.816 75C119.55 75 119.356 74.94 119.236 74.82C119.13 74.7 119.076 74.52 119.076 74.28V62.14C119.076 61.8867 119.13 61.7 119.236 61.58C119.356 61.46 119.55 61.4 119.816 61.4H120.876C121.143 61.4 121.336 61.46 121.456 61.58C121.576 61.7 121.636 61.8867 121.636 62.14V74.28C121.636 74.52 121.576 74.7 121.456 74.82C121.35 74.94 121.156 75 120.876 75H119.816ZM129.018 75.3C127.285 75.3 125.945 74.8467 124.998 73.94C124.065 73.02 123.598 71.7733 123.598 70.2C123.598 68.6267 124.065 67.3867 124.998 66.48C125.945 65.56 127.285 65.1 129.018 65.1C130.752 65.1 132.092 65.56 133.038 66.48C133.985 67.3867 134.458 68.6267 134.458 70.2C134.458 71.7733 133.985 73.02 133.038 73.94C132.092 74.8467 130.752 75.3 129.018 75.3ZM129.018 73.42C129.965 73.42 130.685 73.1467 131.178 72.6C131.672 72.0533 131.918 71.2533 131.918 70.2C131.918 69.16 131.672 68.3733 131.178 67.84C130.685 67.2933 129.965 67.02 129.018 67.02C128.085 67.02 127.365 67.2933 126.858 67.84C126.365 68.3733 126.118 69.16 126.118 70.2C126.118 71.24 126.365 72.04 126.858 72.6C127.365 73.1467 128.085 73.42 129.018 73.42ZM137.432 78.12C136.925 78.12 136.458 78.0467 136.032 77.9C135.605 77.7533 135.238 77.5533 134.932 77.3C134.825 77.2067 134.772 77.12 134.772 77.04C134.772 76.96 134.798 76.8867 134.852 76.82L135.412 75.86C135.492 75.7267 135.572 75.66 135.652 75.66C135.718 75.66 135.798 75.7 135.892 75.78C136.105 75.94 136.318 76.06 136.532 76.14C136.758 76.22 137.025 76.26 137.332 76.26C137.732 76.26 138.045 76.1267 138.272 75.86C138.498 75.6067 138.732 75.1733 138.972 74.56L134.932 65.96C134.878 65.8267 134.852 65.7333 134.852 65.68C134.852 65.4933 134.958 65.4 135.172 65.4H136.872C137.045 65.4 137.172 65.4267 137.252 65.48C137.332 65.5333 137.405 65.6333 137.472 65.78L140.152 72.06L142.832 65.78C142.898 65.6333 142.972 65.5333 143.052 65.48C143.132 65.4267 143.258 65.4 143.432 65.4H145.132C145.345 65.4 145.452 65.4933 145.452 65.68C145.452 65.7333 145.425 65.8267 145.372 65.96L141.612 73.98C141.092 75.0733 140.652 75.9 140.292 76.46C139.945 77.02 139.545 77.4333 139.092 77.7C138.652 77.98 138.098 78.12 137.432 78.12ZM152.186 75.3C151.146 75.3 150.206 75.1267 149.366 74.78C148.526 74.42 147.853 73.8733 147.346 73.14C146.853 72.3933 146.606 71.4667 146.606 70.36C146.606 68.64 147.066 67.3333 147.986 66.44C148.906 65.5467 150.213 65.1 151.906 65.1C153.586 65.1 154.853 65.5333 155.706 66.4C156.573 67.2667 157.006 68.52 157.006 70.16C157.006 70.6267 156.793 70.86 156.366 70.86H149.026C149.026 71.74 149.333 72.42 149.946 72.9C150.56 73.3667 151.413 73.6 152.506 73.6C153.56 73.6 154.506 73.36 155.346 72.88C155.44 72.8267 155.513 72.8 155.566 72.8C155.66 72.8 155.733 72.86 155.786 72.98L156.266 73.84C156.306 73.92 156.326 73.9933 156.326 74.06C156.326 74.1533 156.266 74.24 156.146 74.32C155.6 74.6533 155.006 74.9 154.366 75.06C153.74 75.22 153.013 75.3 152.186 75.3ZM154.686 69.38C154.686 68.5533 154.453 67.9067 153.986 67.44C153.533 66.9733 152.846 66.74 151.926 66.74C150.993 66.74 150.273 66.98 149.766 67.46C149.273 67.94 149.026 68.58 149.026 69.38H154.686ZM164.139 75.3C163.099 75.3 162.159 75.1267 161.319 74.78C160.479 74.42 159.806 73.8733 159.299 73.14C158.806 72.3933 158.559 71.4667 158.559 70.36C158.559 68.64 159.019 67.3333 159.939 66.44C160.859 65.5467 162.166 65.1 163.859 65.1C165.539 65.1 166.806 65.5333 167.659 66.4C168.526 67.2667 168.959 68.52 168.959 70.16C168.959 70.6267 168.746 70.86 168.319 70.86H160.979C160.979 71.74 161.286 72.42 161.899 72.9C162.513 73.3667 163.366 73.6 164.459 73.6C165.513 73.6 166.459 73.36 167.299 72.88C167.393 72.8267 167.466 72.8 167.519 72.8C167.613 72.8 167.686 72.86 167.739 72.98L168.219 73.84C168.259 73.92 168.279 73.9933 168.279 74.06C168.279 74.1533 168.219 74.24 168.099 74.32C167.553 74.6533 166.959 74.9 166.319 75.06C165.693 75.22 164.966 75.3 164.139 75.3ZM166.639 69.38C166.639 68.5533 166.406 67.9067 165.939 67.44C165.486 66.9733 164.799 66.74 163.879 66.74C162.946 66.74 162.226 66.98 161.719 67.46C161.226 67.94 160.979 68.58 160.979 69.38H166.639ZM175.072 75.3C174.272 75.3 173.492 75.2133 172.732 75.04C171.972 74.88 171.319 74.6333 170.772 74.3C170.599 74.2067 170.512 74.1067 170.512 74C170.512 73.92 170.539 73.8467 170.592 73.78L171.152 72.8C171.219 72.68 171.286 72.62 171.352 72.62C171.419 72.62 171.506 72.6533 171.612 72.72C172.012 72.96 172.506 73.16 173.092 73.32C173.679 73.48 174.219 73.56 174.712 73.56C175.472 73.56 176.012 73.4867 176.332 73.34C176.666 73.18 176.832 72.9 176.832 72.5C176.832 72.2733 176.766 72.0933 176.632 71.96C176.512 71.8133 176.326 71.6867 176.072 71.58C175.819 71.4733 175.399 71.3267 174.812 71.14C174.812 71.14 174.592 71.0667 174.152 70.92C173.392 70.6667 172.786 70.42 172.332 70.18C171.879 69.94 171.526 69.64 171.272 69.28C171.032 68.9067 170.912 68.44 170.912 67.88C170.912 66.9733 171.292 66.2867 172.052 65.82C172.826 65.34 173.826 65.1 175.052 65.1C176.546 65.1 177.832 65.42 178.912 66.06C179.086 66.1533 179.172 66.2533 179.172 66.36C179.172 66.4267 179.139 66.5133 179.072 66.62L178.532 67.48C178.452 67.6 178.386 67.66 178.332 67.66C178.279 67.66 178.199 67.6267 178.092 67.56C177.746 67.3467 177.326 67.18 176.832 67.06C176.352 66.9267 175.866 66.86 175.372 66.86C174.706 66.86 174.212 66.9333 173.892 67.08C173.586 67.2133 173.432 67.48 173.432 67.88C173.432 68.2267 173.612 68.5 173.972 68.7C174.346 68.9 174.986 69.14 175.892 69.42L176.552 69.62C177.592 69.9533 178.319 70.3467 178.732 70.8C179.159 71.2533 179.372 71.82 179.372 72.5C179.372 73.3267 179.006 74 178.272 74.52C177.552 75.04 176.486 75.3 175.072 75.3Z" fill="#3D3D3D"/>
<defs>
<filter id="filter0_d_447_15766" x="39" y="40" width="161" height="62" filterUnits="userSpaceOnUse" color-interpolation-filters="sRGB">
<feFlood flood-opacity="0" result="BackgroundImageFix"/>
<feColorMatrix in="SourceAlpha" type="matrix" values="0 0 0 0 0 0 0 0 0 0 0 0 0 0 0 0 0 0 127 0" result="hardAlpha"/>
<feOffset dy="4"/>
<feGaussianBlur stdDeviation="2.5"/>
<feComposite in2="hardAlpha" operator="out"/>
<feColorMatrix type="matrix" values="0 0 0 0 0 0 0 0 0 0 0 0 0 0 0 0 0 0 0.15 0"/>
<feBlend mode="normal" in2="BackgroundImageFix" result="effect1_dropShadow_447_15766"/>
<feBlend mode="normal" in="SourceGraphic" in2="effect1_dropShadow_447_15766" result="shape"/>
</filter>
<filter id="filter1_d_447_15766" x="8.9834" y="40.3777" width="57.0332" height="59.033" filterUnits="userSpaceOnUse" color-interpolation-filters="sRGB">
<feFlood flood-opacity="0" result="BackgroundImageFix"/>
<feColorMatrix in="SourceAlpha" type="matrix" values="0 0 0 0 0 0 0 0 0 0 0 0 0 0 0 0 0 0 127 0" result="hardAlpha"/>
<feOffset dy="4"/>
<feGaussianBlur stdDeviation="1"/>
<feComposite in2="hardAlpha" operator="out"/>
<feColorMatrix type="matrix" values="0 0 0 0 0 0 0 0 0 0 0 0 0 0 0 0 0 0 0.17 0"/>
<feBlend mode="normal" in2="BackgroundImageFix" result="effect1_dropShadow_447_15766"/>
<feBlend mode="normal" in="SourceGraphic" in2="effect1_dropShadow_447_15766" result="shape"/>
</filter>
<linearGradient id="paint0_linear_447_15766" x1="39.4411" y1="67.0386" x2="105.644" y2="67.0386" gradientUnits="userSpaceOnUse">
<stop stop-color="#FF7A00"/>
<stop offset="1" stop-color="#FAAD67"/>
</linearGradient>
<clipPath id="clip0_447_15766">
<rect width="32.5919" height="30.0849" fill="white" transform="translate(21.8115 51.9021)"/>
</clipPath>
</defs>
</svg>
