<svg width="200" height="164" viewBox="0 0 200 164" fill="none" xmlns="http://www.w3.org/2000/svg">
<path d="M103.998 163.27C102.03 163.27 100.542 162.724 99.5339 161.632C98.5379 160.528 98.0399 158.944 98.0399 156.88C98.0399 154.816 98.5379 153.238 99.5339 152.146C100.542 151.042 102.03 150.49 103.998 150.49C105.954 150.49 107.436 151.042 108.444 152.146C109.452 153.25 109.956 154.828 109.956 156.88C109.956 158.932 109.452 160.51 108.444 161.614C107.436 162.718 105.954 163.27 103.998 163.27ZM106.032 152.74C105.516 152.38 104.838 152.2 103.998 152.2C102.75 152.2 101.82 152.59 101.208 153.37C100.608 154.15 100.308 155.32 100.308 156.88C100.308 158.116 100.56 159.07 101.064 159.742L106.032 152.74ZM103.998 161.578C105.246 161.578 106.17 161.188 106.77 160.408C107.37 159.628 107.67 158.452 107.67 156.88C107.67 155.668 107.43 154.72 106.95 154.036L101.964 161.074C102.504 161.41 103.182 161.578 103.998 161.578Z" fill="#3D3D3D"/>
<g opacity="0.19">
<path d="M105.608 8.36206C139.817 8.36206 167.639 36.0991 167.639 70.3922C167.639 104.685 139.902 132.422 105.608 132.422" stroke="#19374C" stroke-width="3" stroke-miterlimit="10"/>
</g>
<path d="M105.608 5C139.817 5 167.639 32.7371 167.639 67.0302C167.639 101.323 139.902 129.06 105.608 129.06" stroke="#150D36" stroke-width="3" stroke-miterlimit="10"/>
<path d="M105.608 129.06C71.3991 129.06 43.578 101.323 43.578 67.0302C43.578 32.7371 71.3151 5 105.608 5" stroke="url(#paint0_linear_447_15921)" stroke-width="10" stroke-miterlimit="10"/>
<g filter="url(#filter0_d_447_15921)">
<path d="M44 41H169C183.359 41 195 52.6406 195 67C195 81.3594 183.359 93 169 93H44V41Z" fill="white"/>
</g>
<g filter="url(#filter1_d_447_15921)">
<path d="M56.25 85.6442C66.6054 75.2888 66.6053 58.4995 56.25 48.1442C45.8947 37.7888 29.1053 37.7888 18.75 48.1442C8.39467 58.4995 8.39466 75.2888 18.75 85.6442C29.1053 95.9995 45.8947 95.9995 56.25 85.6442Z" fill="white"/>
</g>
<path d="M92.8641 75C92.6774 75 92.5374 74.9667 92.4441 74.9C92.3641 74.8333 92.2841 74.7 92.2041 74.5L87.0041 61.96C86.9641 61.88 86.9441 61.8 86.9441 61.72C86.9441 61.6267 86.9707 61.5533 87.0241 61.5C87.0907 61.4333 87.1774 61.4 87.2841 61.4H89.0041C89.1774 61.4 89.3107 61.4333 89.4041 61.5C89.4974 61.5667 89.5707 61.6733 89.6241 61.82L93.4041 71.42L97.1841 61.82C97.2374 61.6733 97.3107 61.5667 97.4041 61.5C97.4974 61.4333 97.6307 61.4 97.8041 61.4H99.5241C99.6307 61.4 99.7107 61.4333 99.7641 61.5C99.8307 61.5533 99.8641 61.6267 99.8641 61.72C99.8641 61.8 99.8441 61.88 99.8041 61.96L94.6241 74.5C94.5441 74.7 94.4574 74.8333 94.3641 74.9C94.2707 74.9667 94.1307 75 93.9441 75H92.8641ZM101.508 63.74C101.188 63.74 100.941 63.6467 100.768 63.46C100.595 63.2733 100.508 63.0467 100.508 62.78V62.36C100.508 62.0933 100.595 61.8667 100.768 61.68C100.941 61.4933 101.188 61.4 101.508 61.4H102.368C102.688 61.4 102.935 61.4933 103.108 61.68C103.295 61.8667 103.388 62.0933 103.388 62.36V62.78C103.388 63.0467 103.295 63.2733 103.108 63.46C102.935 63.6467 102.688 63.74 102.368 63.74H101.508ZM101.428 75C101.161 75 100.968 74.94 100.848 74.82C100.728 74.7 100.668 74.52 100.668 74.28V66.14C100.668 65.8867 100.728 65.7 100.848 65.58C100.968 65.46 101.161 65.4 101.428 65.4H102.468C102.735 65.4 102.928 65.46 103.048 65.58C103.168 65.7 103.228 65.8867 103.228 66.14V74.28C103.228 74.52 103.168 74.7 103.048 74.82C102.941 74.94 102.748 75 102.468 75H101.428ZM109.903 75.3C109.103 75.3 108.323 75.2133 107.563 75.04C106.803 74.88 106.149 74.6333 105.603 74.3C105.429 74.2067 105.343 74.1067 105.343 74C105.343 73.92 105.369 73.8467 105.423 73.78L105.983 72.8C106.049 72.68 106.116 72.62 106.183 72.62C106.249 72.62 106.336 72.6533 106.443 72.72C106.843 72.96 107.336 73.16 107.923 73.32C108.509 73.48 109.049 73.56 109.543 73.56C110.303 73.56 110.843 73.4867 111.163 73.34C111.496 73.18 111.663 72.9 111.663 72.5C111.663 72.2733 111.596 72.0933 111.463 71.96C111.343 71.8133 111.156 71.6867 110.903 71.58C110.649 71.4733 110.229 71.3267 109.643 71.14C109.643 71.14 109.423 71.0667 108.983 70.92C108.223 70.6667 107.616 70.42 107.163 70.18C106.709 69.94 106.356 69.64 106.103 69.28C105.863 68.9067 105.743 68.44 105.743 67.88C105.743 66.9733 106.123 66.2867 106.883 65.82C107.656 65.34 108.656 65.1 109.883 65.1C111.376 65.1 112.663 65.42 113.743 66.06C113.916 66.1533 114.003 66.2533 114.003 66.36C114.003 66.4267 113.969 66.5133 113.903 66.62L113.363 67.48C113.283 67.6 113.216 67.66 113.163 67.66C113.109 67.66 113.029 67.6267 112.923 67.56C112.576 67.3467 112.156 67.18 111.663 67.06C111.183 66.9267 110.696 66.86 110.203 66.86C109.536 66.86 109.043 66.9333 108.723 67.08C108.416 67.2133 108.263 67.48 108.263 67.88C108.263 68.2267 108.443 68.5 108.803 68.7C109.176 68.9 109.816 69.14 110.723 69.42L111.383 69.62C112.423 69.9533 113.149 70.3467 113.563 70.8C113.989 71.2533 114.203 71.82 114.203 72.5C114.203 73.3267 113.836 74 113.103 74.52C112.383 75.04 111.316 75.3 109.903 75.3ZM117.172 63.74C116.852 63.74 116.606 63.6467 116.432 63.46C116.259 63.2733 116.172 63.0467 116.172 62.78V62.36C116.172 62.0933 116.259 61.8667 116.432 61.68C116.606 61.4933 116.852 61.4 117.172 61.4H118.032C118.352 61.4 118.599 61.4933 118.772 61.68C118.959 61.8667 119.052 62.0933 119.052 62.36V62.78C119.052 63.0467 118.959 63.2733 118.772 63.46C118.599 63.6467 118.352 63.74 118.032 63.74H117.172ZM117.092 75C116.826 75 116.632 74.94 116.512 74.82C116.392 74.7 116.332 74.52 116.332 74.28V66.14C116.332 65.8867 116.392 65.7 116.512 65.58C116.632 65.46 116.826 65.4 117.092 65.4H118.132C118.399 65.4 118.592 65.46 118.712 65.58C118.832 65.7 118.892 65.8867 118.892 66.14V74.28C118.892 74.52 118.832 74.7 118.712 74.82C118.606 74.94 118.412 75 118.132 75H117.092ZM125.827 75.3C124.693 75.3 123.84 74.9867 123.267 74.36C122.693 73.7333 122.407 72.8667 122.407 71.76V67.28H121.267C121 67.28 120.82 67.2333 120.727 67.14C120.647 67.0467 120.607 66.8733 120.607 66.62V66.08C120.607 65.8267 120.647 65.6533 120.727 65.56C120.82 65.4533 121 65.4 121.267 65.4H122.407V64.3C122.407 64.02 122.453 63.76 122.547 63.52C122.653 63.2667 122.813 62.9533 123.027 62.58C123.107 62.42 123.18 62.32 123.247 62.28C123.327 62.2267 123.46 62.2 123.647 62.2H124.307C124.547 62.2 124.713 62.26 124.807 62.38C124.913 62.4867 124.967 62.6533 124.967 62.88V65.4H127.327C127.593 65.4 127.767 65.4533 127.847 65.56C127.94 65.6533 127.987 65.8267 127.987 66.08V66.62C127.987 66.8733 127.94 67.0467 127.847 67.14C127.767 67.2333 127.593 67.28 127.327 67.28H124.967V71.68C124.967 72.2933 125.073 72.74 125.287 73.02C125.5 73.2867 125.867 73.42 126.387 73.42C126.693 73.42 126.953 73.3867 127.167 73.32C127.38 73.24 127.613 73.1133 127.867 72.94C127.933 72.8867 128.007 72.86 128.087 72.86C128.167 72.86 128.247 72.92 128.327 73.04L128.907 74C128.96 74.0667 128.987 74.14 128.987 74.22C128.987 74.3133 128.92 74.4067 128.787 74.5C127.96 75.0333 126.973 75.3 125.827 75.3ZM134.864 75.3C133.131 75.3 131.791 74.8467 130.844 73.94C129.911 73.02 129.444 71.7733 129.444 70.2C129.444 68.6267 129.911 67.3867 130.844 66.48C131.791 65.56 133.131 65.1 134.864 65.1C136.597 65.1 137.937 65.56 138.884 66.48C139.831 67.3867 140.304 68.6267 140.304 70.2C140.304 71.7733 139.831 73.02 138.884 73.94C137.937 74.8467 136.597 75.3 134.864 75.3ZM134.864 73.42C135.811 73.42 136.531 73.1467 137.024 72.6C137.517 72.0533 137.764 71.2533 137.764 70.2C137.764 69.16 137.517 68.3733 137.024 67.84C136.531 67.2933 135.811 67.02 134.864 67.02C133.931 67.02 133.211 67.2933 132.704 67.84C132.211 68.3733 131.964 69.16 131.964 70.2C131.964 71.24 132.211 72.04 132.704 72.6C133.211 73.1467 133.931 73.42 134.864 73.42ZM143.026 75C142.759 75 142.566 74.94 142.446 74.82C142.326 74.7 142.266 74.52 142.266 74.28V65.94C142.266 65.74 142.299 65.6 142.366 65.52C142.433 65.44 142.573 65.4 142.786 65.4H143.926C144.073 65.4 144.179 65.4333 144.246 65.5C144.313 65.5533 144.353 65.6533 144.366 65.8L144.426 66.52C145.213 65.5733 146.246 65.1 147.526 65.1C148.113 65.1 148.559 65.2 148.866 65.4C148.946 65.4533 148.993 65.5133 149.006 65.58C149.033 65.6333 149.033 65.7 149.006 65.78L148.646 66.98C148.606 67.1133 148.533 67.18 148.426 67.18L148.266 67.14C147.946 66.9933 147.579 66.92 147.166 66.92C146.486 66.92 145.926 67.1133 145.486 67.5C145.046 67.8733 144.826 68.3867 144.826 69.04V74.28C144.826 74.52 144.766 74.7 144.646 74.82C144.539 74.94 144.346 75 144.066 75H143.026ZM154.746 75.3C153.946 75.3 153.166 75.2133 152.406 75.04C151.646 74.88 150.993 74.6333 150.446 74.3C150.273 74.2067 150.186 74.1067 150.186 74C150.186 73.92 150.213 73.8467 150.266 73.78L150.826 72.8C150.893 72.68 150.96 72.62 151.026 72.62C151.093 72.62 151.18 72.6533 151.286 72.72C151.686 72.96 152.18 73.16 152.766 73.32C153.353 73.48 153.893 73.56 154.386 73.56C155.146 73.56 155.686 73.4867 156.006 73.34C156.34 73.18 156.506 72.9 156.506 72.5C156.506 72.2733 156.44 72.0933 156.306 71.96C156.186 71.8133 156 71.6867 155.746 71.58C155.493 71.4733 155.073 71.3267 154.486 71.14C154.486 71.14 154.266 71.0667 153.826 70.92C153.066 70.6667 152.46 70.42 152.006 70.18C151.553 69.94 151.2 69.64 150.946 69.28C150.706 68.9067 150.586 68.44 150.586 67.88C150.586 66.9733 150.966 66.2867 151.726 65.82C152.5 65.34 153.5 65.1 154.726 65.1C156.22 65.1 157.506 65.42 158.586 66.06C158.76 66.1533 158.846 66.2533 158.846 66.36C158.846 66.4267 158.813 66.5133 158.746 66.62L158.206 67.48C158.126 67.6 158.06 67.66 158.006 67.66C157.953 67.66 157.873 67.6267 157.766 67.56C157.42 67.3467 157 67.18 156.506 67.06C156.026 66.9267 155.54 66.86 155.046 66.86C154.38 66.86 153.886 66.9333 153.566 67.08C153.26 67.2133 153.106 67.48 153.106 67.88C153.106 68.2267 153.286 68.5 153.646 68.7C154.02 68.9 154.66 69.14 155.566 69.42L156.226 69.62C157.266 69.9533 157.993 70.3467 158.406 70.8C158.833 71.2533 159.046 71.82 159.046 72.5C159.046 73.3267 158.68 74 157.946 74.52C157.226 75.04 156.16 75.3 154.746 75.3Z" fill="#3D3D3D"/>
<g clip-path="url(#clip0_447_15921)">
<path d="M48.32 62.0267V60.7733L44.56 63.28L40.8 60.7733V62.0267L44.56 64.5333L48.32 62.0267ZM49.5733 55.76H24.5067C23.128 55.76 22 56.888 22 58.2667V75.8133C22 77.192 23.128 78.32 24.5067 78.32H49.5733C50.952 78.32 52.0675 77.192 52.0675 75.8133L52.08 58.2667C52.08 56.888 50.952 55.76 49.5733 55.76ZM32.0267 59.52C34.1072 59.52 35.7867 61.1995 35.7867 63.28C35.7867 65.3605 34.1072 67.04 32.0267 67.04C29.9461 67.04 28.2667 65.3605 28.2667 63.28C28.2667 61.1995 29.9461 59.52 32.0267 59.52ZM39.5467 74.56H24.5067V73.3067C24.5067 70.8 29.52 69.4213 32.0267 69.4213C34.5333 69.4213 39.5467 70.8 39.5467 73.3067V74.56ZM49.5733 67.04H39.5467V59.52H49.5733V67.04Z" fill="#53B307"/>
</g>
<defs>
<filter id="filter0_d_447_15921" x="39" y="40" width="161" height="62" filterUnits="userSpaceOnUse" color-interpolation-filters="sRGB">
<feFlood flood-opacity="0" result="BackgroundImageFix"/>
<feColorMatrix in="SourceAlpha" type="matrix" values="0 0 0 0 0 0 0 0 0 0 0 0 0 0 0 0 0 0 127 0" result="hardAlpha"/>
<feOffset dy="4"/>
<feGaussianBlur stdDeviation="2.5"/>
<feComposite in2="hardAlpha" operator="out"/>
<feColorMatrix type="matrix" values="0 0 0 0 0 0 0 0 0 0 0 0 0 0 0 0 0 0 0.15 0"/>
<feBlend mode="normal" in2="BackgroundImageFix" result="effect1_dropShadow_447_15921"/>
<feBlend mode="normal" in="SourceGraphic" in2="effect1_dropShadow_447_15921" result="shape"/>
</filter>
<filter id="filter1_d_447_15921" x="8.9834" y="40.3777" width="57.0331" height="59.033" filterUnits="userSpaceOnUse" color-interpolation-filters="sRGB">
<feFlood flood-opacity="0" result="BackgroundImageFix"/>
<feColorMatrix in="SourceAlpha" type="matrix" values="0 0 0 0 0 0 0 0 0 0 0 0 0 0 0 0 0 0 127 0" result="hardAlpha"/>
<feOffset dy="4"/>
<feGaussianBlur stdDeviation="1"/>
<feComposite in2="hardAlpha" operator="out"/>
<feColorMatrix type="matrix" values="0 0 0 0 0 0 0 0 0 0 0 0 0 0 0 0 0 0 0.17 0"/>
<feBlend mode="normal" in2="BackgroundImageFix" result="effect1_dropShadow_447_15921"/>
<feBlend mode="normal" in="SourceGraphic" in2="effect1_dropShadow_447_15921" result="shape"/>
</filter>
<linearGradient id="paint0_linear_447_15921" x1="39.441" y1="67.0386" x2="105.643" y2="67.0386" gradientUnits="userSpaceOnUse">
<stop stop-color="#53B207"/>
<stop offset="1" stop-color="#89D84B"/>
</linearGradient>
<clipPath id="clip0_447_15921">
<rect width="30.08" height="30.08" fill="white" transform="translate(22 52)"/>
</clipPath>
</defs>
</svg>
