<svg width="200" height="167" viewBox="0 0 200 167" fill="none" xmlns="http://www.w3.org/2000/svg">
<path d="M37.166 160.27C35.222 160.27 33.788 159.958 32.864 159.334C32.756 159.262 32.702 159.178 32.702 159.082C32.702 159.01 32.732 158.926 32.792 158.83L33.314 157.948C33.386 157.828 33.452 157.768 33.512 157.768C33.56 157.768 33.644 157.798 33.764 157.858C34.16 158.074 34.616 158.248 35.132 158.38C35.66 158.512 36.23 158.578 36.842 158.578C37.826 158.578 38.546 158.392 39.002 158.02C39.47 157.636 39.704 157.108 39.704 156.436C39.704 155.188 38.942 154.564 37.418 154.564H35.906C35.666 154.564 35.492 154.516 35.384 154.42C35.288 154.312 35.24 154.144 35.24 153.916V153.448C35.24 153.232 35.288 153.076 35.384 152.98C35.492 152.884 35.666 152.836 35.906 152.836H37.382C38.03 152.836 38.516 152.668 38.84 152.332C39.164 151.984 39.326 151.546 39.326 151.018C39.326 149.806 38.474 149.2 36.77 149.2C35.714 149.2 34.784 149.422 33.98 149.866C33.86 149.926 33.776 149.956 33.728 149.956C33.668 149.956 33.602 149.902 33.53 149.794L33.026 148.948C32.966 148.852 32.936 148.768 32.936 148.696C32.936 148.6 32.99 148.516 33.098 148.444C33.518 148.144 34.076 147.91 34.772 147.742C35.468 147.574 36.242 147.49 37.094 147.49C38.018 147.49 38.816 147.634 39.488 147.922C40.172 148.21 40.694 148.618 41.054 149.146C41.426 149.662 41.612 150.268 41.612 150.964C41.612 151.528 41.474 152.05 41.198 152.53C40.934 153.01 40.55 153.382 40.046 153.646C40.694 153.886 41.174 154.258 41.486 154.762C41.81 155.254 41.972 155.836 41.972 156.508C41.972 157.636 41.552 158.548 40.712 159.244C39.884 159.928 38.702 160.27 37.166 160.27ZM47.7999 160.27C46.9599 160.27 46.1559 160.18 45.3879 160C44.6199 159.808 44.0019 159.556 43.5339 159.244C43.4259 159.172 43.3719 159.094 43.3719 159.01C43.3719 158.938 43.4019 158.854 43.4619 158.758L43.9839 157.858C44.0439 157.75 44.1099 157.696 44.1819 157.696C44.2419 157.696 44.3259 157.732 44.4339 157.804C44.8179 158.032 45.2919 158.218 45.8559 158.362C46.4319 158.506 47.0559 158.578 47.7279 158.578C48.7359 158.578 49.5039 158.368 50.0319 157.948C50.5599 157.516 50.8239 156.874 50.8239 156.022C50.8239 155.074 50.5959 154.408 50.1399 154.024C49.6959 153.64 48.9819 153.448 47.9979 153.448C47.0139 153.448 46.1799 153.604 45.4959 153.916C45.2439 154 45.0339 154.042 44.8659 154.042C44.5539 154.042 44.2899 153.952 44.0739 153.772C43.8699 153.592 43.7739 153.34 43.7859 153.016L44.0919 148.372C44.1039 148.156 44.1579 148 44.2539 147.904C44.3499 147.808 44.5179 147.76 44.7579 147.76H51.8859C52.1259 147.76 52.2939 147.808 52.3899 147.904C52.4859 148 52.5339 148.162 52.5339 148.39V148.876C52.5339 149.104 52.4859 149.272 52.3899 149.38C52.2939 149.476 52.1259 149.524 51.8859 149.524H46.0359L45.8559 152.188C46.5639 151.96 47.4039 151.846 48.3759 151.846C51.5319 151.846 53.1099 153.238 53.1099 156.022C53.1099 156.886 52.8879 157.642 52.4439 158.29C52.0119 158.926 51.3939 159.418 50.5899 159.766C49.7979 160.102 48.8679 160.27 47.7999 160.27ZM55.4885 160C55.2485 160 55.0805 159.958 54.9845 159.874C54.8885 159.778 54.8405 159.622 54.8405 159.406V158.884C54.8405 158.656 54.8885 158.494 54.9845 158.398C55.0805 158.302 55.2485 158.254 55.4885 158.254H57.2525V150.28L55.7045 151.216C55.6085 151.276 55.5245 151.306 55.4525 151.306C55.3445 151.306 55.2545 151.246 55.1825 151.126L54.6065 150.226C54.5585 150.142 54.5345 150.064 54.5345 149.992C54.5345 149.872 54.6005 149.776 54.7325 149.704L57.7025 147.922C57.7865 147.862 57.8705 147.82 57.9545 147.796C58.0385 147.772 58.1525 147.76 58.2965 147.76H58.8905C59.3465 147.76 59.5745 147.982 59.5745 148.426V158.254H61.3385C61.5785 158.254 61.7465 158.302 61.8425 158.398C61.9385 158.494 61.9865 158.656 61.9865 158.884V159.406C61.9865 159.622 61.9385 159.778 61.8425 159.874C61.7465 159.958 61.5785 160 61.3385 160H55.4885ZM73.9799 162.232C73.1759 161.896 72.4739 161.338 71.8739 160.558C71.2859 159.778 70.8299 158.848 70.5059 157.768C70.1939 156.688 70.0379 155.536 70.0379 154.312C70.0379 153.1 70.1939 151.954 70.5059 150.874C70.8299 149.794 71.2859 148.864 71.8739 148.084C72.4739 147.304 73.1759 146.746 73.9799 146.41C74.2799 146.29 74.5139 146.23 74.6819 146.23C75.0659 146.23 75.2579 146.47 75.2579 146.95C75.2579 147.25 75.2219 147.466 75.1499 147.598C75.0899 147.718 74.9519 147.856 74.7359 148.012C73.9319 148.612 73.3259 149.458 72.9179 150.55C72.5099 151.63 72.3059 152.884 72.3059 154.312C72.3059 155.764 72.5039 157.036 72.8999 158.128C73.3079 159.22 73.9199 160.054 74.7359 160.63C74.9519 160.786 75.0899 160.924 75.1499 161.044C75.2219 161.176 75.2579 161.392 75.2579 161.692C75.2579 162.16 75.0659 162.394 74.6819 162.394C74.4899 162.394 74.2559 162.34 73.9799 162.232ZM80.8301 160.27C78.8861 160.27 77.4521 159.958 76.5281 159.334C76.4201 159.262 76.3661 159.178 76.3661 159.082C76.3661 159.01 76.3961 158.926 76.4561 158.83L76.9781 157.948C77.0501 157.828 77.1161 157.768 77.1761 157.768C77.2241 157.768 77.3081 157.798 77.4281 157.858C77.8241 158.074 78.2801 158.248 78.7961 158.38C79.3241 158.512 79.8941 158.578 80.5061 158.578C81.4901 158.578 82.2101 158.392 82.6661 158.02C83.1341 157.636 83.3681 157.108 83.3681 156.436C83.3681 155.188 82.6061 154.564 81.0821 154.564H79.5701C79.3301 154.564 79.1561 154.516 79.0481 154.42C78.9521 154.312 78.9041 154.144 78.9041 153.916V153.448C78.9041 153.232 78.9521 153.076 79.0481 152.98C79.1561 152.884 79.3301 152.836 79.5701 152.836H81.0461C81.6941 152.836 82.1801 152.668 82.5041 152.332C82.8281 151.984 82.9901 151.546 82.9901 151.018C82.9901 149.806 82.1381 149.2 80.4341 149.2C79.3781 149.2 78.4481 149.422 77.6441 149.866C77.5241 149.926 77.4401 149.956 77.3921 149.956C77.3321 149.956 77.2661 149.902 77.1941 149.794L76.6901 148.948C76.6301 148.852 76.6001 148.768 76.6001 148.696C76.6001 148.6 76.6541 148.516 76.7621 148.444C77.1821 148.144 77.7401 147.91 78.4361 147.742C79.1321 147.574 79.9061 147.49 80.7581 147.49C81.6821 147.49 82.4801 147.634 83.1521 147.922C83.8361 148.21 84.3581 148.618 84.7181 149.146C85.0901 149.662 85.2761 150.268 85.2761 150.964C85.2761 151.528 85.1381 152.05 84.8621 152.53C84.5981 153.01 84.2141 153.382 83.7101 153.646C84.3581 153.886 84.8381 154.258 85.1501 154.762C85.4741 155.254 85.6361 155.836 85.6361 156.508C85.6361 157.636 85.2161 158.548 84.3761 159.244C83.5481 159.928 82.3661 160.27 80.8301 160.27ZM93.516 160C93.276 160 93.102 159.952 92.994 159.856C92.898 159.76 92.85 159.604 92.85 159.388V157.336H87.144C86.832 157.336 86.676 157.192 86.676 156.904V156.166C86.676 155.998 86.694 155.872 86.73 155.788C86.766 155.692 86.832 155.578 86.928 155.446L92.994 148.102C93.102 147.97 93.198 147.88 93.282 147.832C93.366 147.784 93.498 147.76 93.678 147.76H94.47C94.71 147.76 94.884 147.814 94.992 147.922C95.1 148.03 95.154 148.198 95.154 148.426V155.59H96.414C96.654 155.59 96.822 155.644 96.918 155.752C97.014 155.848 97.062 156.01 97.062 156.238V156.724C97.062 156.94 97.014 157.096 96.918 157.192C96.822 157.288 96.654 157.336 96.414 157.336H95.154V159.388C95.154 159.604 95.1 159.76 94.992 159.856C94.896 159.952 94.722 160 94.47 160H93.516ZM93.228 155.59V150.478L89.088 155.59H93.228ZM104.068 160.27C102.1 160.27 100.612 159.724 99.6042 158.632C98.6082 157.528 98.1102 155.944 98.1102 153.88C98.1102 151.816 98.6082 150.238 99.6042 149.146C100.612 148.042 102.1 147.49 104.068 147.49C106.024 147.49 107.506 148.042 108.514 149.146C109.522 150.25 110.026 151.828 110.026 153.88C110.026 155.932 109.522 157.51 108.514 158.614C107.506 159.718 106.024 160.27 104.068 160.27ZM106.102 149.74C105.586 149.38 104.908 149.2 104.068 149.2C102.82 149.2 101.89 149.59 101.278 150.37C100.678 151.15 100.378 152.32 100.378 153.88C100.378 155.116 100.63 156.07 101.134 156.742L106.102 149.74ZM104.068 158.578C105.316 158.578 106.24 158.188 106.84 157.408C107.44 156.628 107.74 155.452 107.74 153.88C107.74 152.668 107.5 151.72 107.02 151.036L102.034 158.074C102.574 158.41 103.252 158.578 104.068 158.578ZM124.19 160.27C123.11 160.27 122.156 160.09 121.328 159.73C120.5 159.358 119.858 158.824 119.402 158.128C118.946 157.432 118.718 156.616 118.718 155.68V148.426C118.718 148.198 118.766 148.03 118.862 147.922C118.97 147.814 119.144 147.76 119.384 147.76H120.338C120.578 147.76 120.752 147.814 120.86 147.922C120.968 148.03 121.022 148.198 121.022 148.426V155.734C121.022 156.67 121.292 157.378 121.832 157.858C122.384 158.338 123.17 158.578 124.19 158.578C125.198 158.578 125.972 158.338 126.512 157.858C127.064 157.378 127.34 156.67 127.34 155.734V148.426C127.34 148.198 127.394 148.03 127.502 147.922C127.61 147.814 127.784 147.76 128.024 147.76H128.96C129.428 147.76 129.662 147.982 129.662 148.426V155.68C129.662 156.616 129.428 157.432 128.96 158.128C128.504 158.812 127.862 159.34 127.034 159.712C126.206 160.084 125.258 160.27 124.19 160.27ZM132.377 160C132.137 160 131.963 159.946 131.855 159.838C131.747 159.73 131.693 159.568 131.693 159.352V151.846C131.693 151.666 131.723 151.54 131.783 151.468C131.843 151.396 131.969 151.36 132.161 151.36H133.187C133.451 151.36 133.589 151.48 133.601 151.72L133.637 152.44C134.453 151.54 135.623 151.09 137.147 151.09C138.119 151.09 138.899 151.354 139.487 151.882C140.087 152.398 140.387 153.178 140.387 154.222V159.352C140.387 159.568 140.333 159.73 140.225 159.838C140.129 159.946 139.961 160 139.721 160H138.767C138.527 160 138.353 159.946 138.245 159.838C138.137 159.73 138.083 159.568 138.083 159.352V154.366C138.083 153.778 137.945 153.364 137.669 153.124C137.405 152.872 136.973 152.746 136.373 152.746C135.737 152.746 135.179 152.92 134.699 153.268C134.231 153.604 133.997 154.042 133.997 154.582V159.352C133.997 159.568 133.943 159.73 133.835 159.838C133.739 159.946 133.565 160 133.313 160H132.377ZM143.316 149.866C143.028 149.866 142.806 149.782 142.65 149.614C142.494 149.446 142.416 149.242 142.416 149.002V148.624C142.416 148.384 142.494 148.18 142.65 148.012C142.806 147.844 143.028 147.76 143.316 147.76H144.09C144.378 147.76 144.6 147.844 144.756 148.012C144.924 148.18 145.008 148.384 145.008 148.624V149.002C145.008 149.242 144.924 149.446 144.756 149.614C144.6 149.782 144.378 149.866 144.09 149.866H143.316ZM143.244 160C143.004 160 142.83 159.946 142.722 159.838C142.614 159.73 142.56 159.568 142.56 159.352V152.026C142.56 151.798 142.614 151.63 142.722 151.522C142.83 151.414 143.004 151.36 143.244 151.36H144.18C144.42 151.36 144.594 151.414 144.702 151.522C144.81 151.63 144.864 151.798 144.864 152.026V159.352C144.864 159.568 144.81 159.73 144.702 159.838C144.606 159.946 144.432 160 144.18 160H143.244ZM154.524 163.636C154.284 163.636 154.11 163.582 154.002 163.474C153.894 163.378 153.84 163.216 153.84 162.988V159.226C153.192 159.922 152.256 160.27 151.032 160.27C149.7 160.27 148.656 159.886 147.9 159.118C147.144 158.35 146.766 157.294 146.766 155.95C146.766 154.402 147.216 153.208 148.116 152.368C149.016 151.516 150.306 151.09 151.986 151.09C152.766 151.09 153.528 151.198 154.272 151.414C155.028 151.63 155.64 151.9 156.108 152.224V162.988C156.108 163.216 156.054 163.378 155.946 163.474C155.85 163.582 155.676 163.636 155.424 163.636H154.524ZM151.572 158.632C152.208 158.632 152.742 158.452 153.174 158.092C153.618 157.732 153.84 157.246 153.84 156.634V153.088C153.408 152.86 152.808 152.746 152.04 152.746C151.08 152.746 150.336 153.01 149.808 153.538C149.292 154.054 149.034 154.834 149.034 155.878C149.034 157.714 149.88 158.632 151.572 158.632ZM161.422 160.27C160.438 160.27 159.646 160 159.046 159.46C158.446 158.908 158.146 158.092 158.146 157.012V152.026C158.146 151.798 158.194 151.63 158.29 151.522C158.398 151.414 158.572 151.36 158.812 151.36H159.766C160.006 151.36 160.18 151.414 160.288 151.522C160.396 151.63 160.45 151.798 160.45 152.026V156.958C160.45 157.534 160.6 157.96 160.9 158.236C161.2 158.5 161.644 158.632 162.232 158.632C162.856 158.632 163.378 158.458 163.798 158.11C164.218 157.762 164.428 157.312 164.428 156.76V152.026C164.428 151.798 164.482 151.63 164.59 151.522C164.698 151.414 164.872 151.36 165.112 151.36H166.048C166.288 151.36 166.462 151.414 166.57 151.522C166.678 151.63 166.732 151.798 166.732 152.026V159.514C166.732 159.706 166.702 159.838 166.642 159.91C166.582 159.97 166.456 160 166.264 160H165.256C165.124 160 165.028 159.976 164.968 159.928C164.908 159.868 164.872 159.778 164.86 159.658L164.788 158.902C163.972 159.814 162.85 160.27 161.422 160.27ZM173.515 160.27C172.579 160.27 171.733 160.114 170.977 159.802C170.221 159.478 169.615 158.986 169.159 158.326C168.715 157.654 168.493 156.82 168.493 155.824C168.493 154.276 168.907 153.1 169.735 152.296C170.563 151.492 171.739 151.09 173.263 151.09C174.775 151.09 175.915 151.48 176.683 152.26C177.463 153.04 177.853 154.168 177.853 155.644C177.853 156.064 177.661 156.274 177.277 156.274H170.671C170.671 157.066 170.947 157.678 171.499 158.11C172.051 158.53 172.819 158.74 173.803 158.74C174.751 158.74 175.603 158.524 176.359 158.092C176.443 158.044 176.509 158.02 176.557 158.02C176.641 158.02 176.707 158.074 176.755 158.182L177.187 158.956C177.223 159.028 177.241 159.094 177.241 159.154C177.241 159.238 177.187 159.316 177.079 159.388C176.587 159.688 176.053 159.91 175.477 160.054C174.913 160.198 174.259 160.27 173.515 160.27ZM175.765 154.942C175.765 154.198 175.555 153.616 175.135 153.196C174.727 152.776 174.109 152.566 173.281 152.566C172.441 152.566 171.793 152.782 171.337 153.214C170.893 153.646 170.671 154.222 170.671 154.942H175.765ZM180.223 162.232C179.947 162.34 179.719 162.394 179.539 162.394C179.155 162.394 178.963 162.16 178.963 161.692C178.963 161.392 178.993 161.176 179.053 161.044C179.125 160.924 179.269 160.786 179.485 160.63C180.301 160.054 180.907 159.226 181.303 158.146C181.699 157.054 181.897 155.776 181.897 154.312C181.897 152.872 181.693 151.612 181.285 150.532C180.889 149.44 180.289 148.6 179.485 148.012C179.257 147.844 179.113 147.7 179.053 147.58C178.993 147.46 178.963 147.25 178.963 146.95C178.963 146.47 179.149 146.23 179.521 146.23C179.689 146.23 179.923 146.29 180.223 146.41C181.027 146.746 181.729 147.304 182.329 148.084C182.929 148.864 183.385 149.794 183.697 150.874C184.021 151.954 184.183 153.1 184.183 154.312C184.183 155.536 184.021 156.688 183.697 157.768C183.385 158.848 182.929 159.778 182.329 160.558C181.729 161.338 181.027 161.896 180.223 162.232Z" fill="#3D3D3D"/>
<g opacity="0.19">
<path d="M105.608 8.36206C139.817 8.36206 167.639 36.0991 167.639 70.3922C167.639 104.685 139.902 132.422 105.608 132.422" stroke="#19374C" stroke-width="3" stroke-miterlimit="10"/>
</g>
<path d="M105.608 5C139.817 5 167.639 32.7371 167.639 67.0302C167.639 101.323 139.902 129.06 105.608 129.06" stroke="#150D36" stroke-width="3" stroke-miterlimit="10"/>
<path d="M105.608 129.06C71.3991 129.06 43.578 101.323 43.578 67.0302C43.578 32.7371 71.3151 5 105.608 5" stroke="url(#paint0_linear_447_15922)" stroke-width="10" stroke-miterlimit="10"/>
<g filter="url(#filter0_d_447_15922)">
<path d="M44 41H169C183.359 41 195 52.6406 195 67C195 81.3594 183.359 93 169 93H44V41Z" fill="white"/>
</g>
<g filter="url(#filter1_d_447_15922)">
<path d="M56.25 85.6442C66.6054 75.2888 66.6053 58.4995 56.25 48.1442C45.8947 37.7888 29.1053 37.7888 18.75 48.1442C8.39467 58.4995 8.39466 75.2888 18.75 85.6442C29.1053 95.9995 45.8947 95.9995 56.25 85.6442Z" fill="white"/>
</g>
<path d="M94.7045 75C94.5045 75 94.3511 74.9667 94.2445 74.9C94.1511 74.82 94.0845 74.6867 94.0445 74.5L90.8845 61.88C90.8711 61.84 90.8645 61.78 90.8645 61.7C90.8645 61.5 90.9911 61.4 91.2445 61.4H92.8645C93.0645 61.4 93.2045 61.4333 93.2845 61.5C93.3645 61.5667 93.4178 61.6733 93.4445 61.82L95.4445 70.62L97.8445 62.86C97.8978 62.7 97.9578 62.5933 98.0245 62.54C98.1045 62.4733 98.2311 62.44 98.4045 62.44H99.3245C99.4978 62.44 99.6178 62.4733 99.6845 62.54C99.7645 62.5933 99.8311 62.7 99.8845 62.86L102.304 70.62L104.284 61.82C104.311 61.6733 104.364 61.5667 104.444 61.5C104.538 61.4333 104.678 61.4 104.864 61.4H106.504C106.758 61.4 106.884 61.5 106.884 61.7C106.884 61.78 106.878 61.84 106.864 61.88L103.684 74.5C103.631 74.6867 103.551 74.82 103.444 74.9C103.351 74.9667 103.211 75 103.024 75H101.944C101.758 75 101.611 74.9667 101.504 74.9C101.411 74.82 101.338 74.6867 101.284 74.5L98.8645 66.5L96.4645 74.5C96.4111 74.6867 96.3311 74.82 96.2245 74.9C96.1311 74.9667 95.9911 75 95.8045 75H94.7045ZM112.378 75.3C110.644 75.3 109.304 74.8467 108.358 73.94C107.424 73.02 106.958 71.7733 106.958 70.2C106.958 68.6267 107.424 67.3867 108.358 66.48C109.304 65.56 110.644 65.1 112.378 65.1C114.111 65.1 115.451 65.56 116.398 66.48C117.344 67.3867 117.818 68.6267 117.818 70.2C117.818 71.7733 117.344 73.02 116.398 73.94C115.451 74.8467 114.111 75.3 112.378 75.3ZM112.378 73.42C113.324 73.42 114.044 73.1467 114.538 72.6C115.031 72.0533 115.278 71.2533 115.278 70.2C115.278 69.16 115.031 68.3733 114.538 67.84C114.044 67.2933 113.324 67.02 112.378 67.02C111.444 67.02 110.724 67.2933 110.218 67.84C109.724 68.3733 109.478 69.16 109.478 70.2C109.478 71.24 109.724 72.04 110.218 72.6C110.724 73.1467 111.444 73.42 112.378 73.42ZM120.54 75C120.273 75 120.08 74.94 119.96 74.82C119.84 74.7 119.78 74.52 119.78 74.28V65.94C119.78 65.74 119.813 65.6 119.88 65.52C119.946 65.44 120.086 65.4 120.3 65.4H121.44C121.586 65.4 121.693 65.4333 121.76 65.5C121.826 65.5533 121.866 65.6533 121.88 65.8L121.94 66.52C122.726 65.5733 123.76 65.1 125.04 65.1C125.626 65.1 126.073 65.2 126.38 65.4C126.46 65.4533 126.506 65.5133 126.52 65.58C126.546 65.6333 126.546 65.7 126.52 65.78L126.16 66.98C126.12 67.1133 126.046 67.18 125.94 67.18L125.78 67.14C125.46 66.9933 125.093 66.92 124.68 66.92C124 66.92 123.44 67.1133 123 67.5C122.56 67.8733 122.34 68.3867 122.34 69.04V74.28C122.34 74.52 122.28 74.7 122.16 74.82C122.053 74.94 121.86 75 121.58 75H120.54ZM128.84 75C128.573 75 128.38 74.94 128.26 74.82C128.153 74.7 128.1 74.52 128.1 74.28V62.14C128.1 61.8867 128.153 61.7 128.26 61.58C128.38 61.46 128.573 61.4 128.84 61.4H129.9C130.167 61.4 130.36 61.46 130.48 61.58C130.6 61.7 130.66 61.8867 130.66 62.14V74.28C130.66 74.52 130.6 74.7 130.48 74.82C130.373 74.94 130.18 75 129.9 75H128.84ZM135.32 75C135.173 75 135.067 74.9867 135 74.96C134.933 74.9333 134.86 74.8733 134.78 74.78L131.26 70.8C131.14 70.6667 131.053 70.5467 131 70.44C130.947 70.32 130.92 70.1733 130.92 70C130.92 69.8267 130.947 69.6867 131 69.58C131.053 69.46 131.14 69.3333 131.26 69.2L134.66 65.64C134.74 65.5467 134.813 65.4867 134.88 65.46C134.96 65.42 135.087 65.4 135.26 65.4H137.12C137.213 65.4 137.28 65.4267 137.32 65.48C137.373 65.5333 137.4 65.6 137.4 65.68C137.4 65.7867 137.36 65.88 137.28 65.96L133.3 70L137.42 74.44C137.5 74.52 137.54 74.6067 137.54 74.7C137.54 74.78 137.513 74.8533 137.46 74.92C137.407 74.9733 137.333 75 137.24 75H135.32ZM143.592 75.3C142.552 75.3 141.612 75.1267 140.772 74.78C139.932 74.42 139.259 73.8733 138.752 73.14C138.259 72.3933 138.012 71.4667 138.012 70.36C138.012 68.64 138.472 67.3333 139.392 66.44C140.312 65.5467 141.619 65.1 143.312 65.1C144.992 65.1 146.259 65.5333 147.112 66.4C147.979 67.2667 148.412 68.52 148.412 70.16C148.412 70.6267 148.199 70.86 147.772 70.86H140.432C140.432 71.74 140.739 72.42 141.352 72.9C141.966 73.3667 142.819 73.6 143.912 73.6C144.966 73.6 145.912 73.36 146.752 72.88C146.846 72.8267 146.919 72.8 146.972 72.8C147.066 72.8 147.139 72.86 147.192 72.98L147.672 73.84C147.712 73.92 147.732 73.9933 147.732 74.06C147.732 74.1533 147.672 74.24 147.552 74.32C147.006 74.6533 146.412 74.9 145.772 75.06C145.146 75.22 144.419 75.3 143.592 75.3ZM146.092 69.38C146.092 68.5533 145.859 67.9067 145.392 67.44C144.939 66.9733 144.252 66.74 143.332 66.74C142.399 66.74 141.679 66.98 141.172 67.46C140.679 67.94 140.432 68.58 140.432 69.38H146.092ZM151.126 75C150.859 75 150.666 74.94 150.546 74.82C150.426 74.7 150.366 74.52 150.366 74.28V65.94C150.366 65.74 150.399 65.6 150.466 65.52C150.532 65.44 150.672 65.4 150.886 65.4H152.026C152.172 65.4 152.279 65.4333 152.346 65.5C152.412 65.5533 152.452 65.6533 152.466 65.8L152.526 66.52C153.312 65.5733 154.346 65.1 155.626 65.1C156.212 65.1 156.659 65.2 156.966 65.4C157.046 65.4533 157.092 65.5133 157.106 65.58C157.132 65.6333 157.132 65.7 157.106 65.78L156.746 66.98C156.706 67.1133 156.632 67.18 156.526 67.18L156.366 67.14C156.046 66.9933 155.679 66.92 155.266 66.92C154.586 66.92 154.026 67.1133 153.586 67.5C153.146 67.8733 152.926 68.3867 152.926 69.04V74.28C152.926 74.52 152.866 74.7 152.746 74.82C152.639 74.94 152.446 75 152.166 75H151.126ZM162.846 75.3C162.046 75.3 161.266 75.2133 160.506 75.04C159.746 74.88 159.093 74.6333 158.546 74.3C158.373 74.2067 158.286 74.1067 158.286 74C158.286 73.92 158.313 73.8467 158.366 73.78L158.926 72.8C158.993 72.68 159.059 72.62 159.126 72.62C159.193 72.62 159.279 72.6533 159.386 72.72C159.786 72.96 160.279 73.16 160.866 73.32C161.453 73.48 161.993 73.56 162.486 73.56C163.246 73.56 163.786 73.4867 164.106 73.34C164.439 73.18 164.606 72.9 164.606 72.5C164.606 72.2733 164.539 72.0933 164.406 71.96C164.286 71.8133 164.099 71.6867 163.846 71.58C163.593 71.4733 163.173 71.3267 162.586 71.14C162.586 71.14 162.366 71.0667 161.926 70.92C161.166 70.6667 160.559 70.42 160.106 70.18C159.653 69.94 159.299 69.64 159.046 69.28C158.806 68.9067 158.686 68.44 158.686 67.88C158.686 66.9733 159.066 66.2867 159.826 65.82C160.599 65.34 161.599 65.1 162.826 65.1C164.319 65.1 165.606 65.42 166.686 66.06C166.859 66.1533 166.946 66.2533 166.946 66.36C166.946 66.4267 166.913 66.5133 166.846 66.62L166.306 67.48C166.226 67.6 166.159 67.66 166.106 67.66C166.053 67.66 165.973 67.6267 165.866 67.56C165.519 67.3467 165.099 67.18 164.606 67.06C164.126 66.9267 163.639 66.86 163.146 66.86C162.479 66.86 161.986 66.9333 161.666 67.08C161.359 67.2133 161.206 67.48 161.206 67.88C161.206 68.2267 161.386 68.5 161.746 68.7C162.119 68.9 162.759 69.14 163.666 69.42L164.326 69.62C165.366 69.9533 166.093 70.3467 166.506 70.8C166.933 71.2533 167.146 71.82 167.146 72.5C167.146 73.3267 166.779 74 166.046 74.52C165.326 75.04 164.259 75.3 162.846 75.3Z" fill="#3D3D3D"/>
<path d="M39.8844 54.8125H37.0063C36.4413 54.8123 35.8868 54.965 35.4016 55.2543C34.9164 55.5436 34.5184 55.9588 34.25 56.4559V66.1656H42.7025V56.5956C42.4493 56.0625 42.0502 55.612 41.5514 55.2964C41.0526 54.9808 40.4746 54.813 39.8844 54.8125ZM40.5125 63.1281H39.6031V64.0375C39.6031 64.3433 39.4816 64.6366 39.2654 64.8529C39.0491 65.0691 38.7558 65.1906 38.45 65.1906C38.1442 65.1906 37.8509 65.0691 37.6346 64.8529C37.4184 64.6366 37.2969 64.3433 37.2969 64.0375V63.1281H36.3875C35.7688 63.1281 35.2644 62.6425 35.2363 62.0303C35.2471 61.7313 35.3728 61.448 35.5872 61.2393C35.8017 61.0307 36.0883 60.9127 36.3875 60.91H37.2969V59.9819C37.2969 59.3303 37.8125 58.8044 38.45 58.8044C39.0875 58.8044 39.6031 59.3303 39.6031 59.9819V60.91H40.5125C41.1313 60.91 41.6356 61.4144 41.6647 62.0303C41.6505 62.3263 41.5229 62.6054 41.3083 62.8098C41.0938 63.0142 40.8088 63.1282 40.5125 63.1281ZM48.1156 66.1656H43.64V56.8103C46.2125 57.5275 48.1081 59.9322 48.1156 62.7841V66.1637V66.1656ZM33.3125 66.1656V56.7906C30.6988 57.4825 28.775 59.9059 28.775 62.7841V66.1637H33.3125V66.1656ZM28.7094 67.0562H48.1625C49.25 67.0562 50.1219 67.9281 50.1219 69.0156C50.1219 70.0937 49.2406 70.975 48.1625 70.975H46.2988V72.6531C46.2988 74.4231 45.7138 76.0562 44.7256 77.3706C44.8466 77.7897 44.7425 78.2603 44.4134 78.5912C43.6321 79.3802 42.7019 80.0063 41.6768 80.4331C40.6516 80.8599 39.552 81.0789 38.4416 81.0775C37.332 81.077 36.2335 80.8575 35.209 80.4315C34.1846 80.0055 33.2543 79.3814 32.4716 78.595C32.3141 78.4379 32.2017 78.2414 32.1461 78.026C32.0906 77.8106 32.0938 77.5843 32.1556 77.3706C31.1321 76.0111 30.5798 74.3549 30.5825 72.6531V70.975H28.7094C27.6313 70.975 26.75 70.0937 26.75 69.0156C26.75 67.9375 27.6313 67.0562 28.7094 67.0562ZM44.945 72.6531V70.975H31.9363V72.6531C31.9363 74.0856 32.3994 75.4094 33.1841 76.4837C33.5553 76.4341 33.9434 76.5522 34.2284 76.8372C34.7804 77.3926 35.4367 77.8335 36.1595 78.1345C36.8824 78.4355 37.6576 78.5907 38.4406 78.5912C40.085 78.5912 41.5709 77.9256 42.65 76.84C42.9341 76.5531 43.325 76.4341 43.6972 76.4837C44.5096 75.372 44.9464 74.0301 44.9441 72.6531H44.945Z" fill="#013ACD"/>
<defs>
<filter id="filter0_d_447_15922" x="39" y="40" width="161" height="62" filterUnits="userSpaceOnUse" color-interpolation-filters="sRGB">
<feFlood flood-opacity="0" result="BackgroundImageFix"/>
<feColorMatrix in="SourceAlpha" type="matrix" values="0 0 0 0 0 0 0 0 0 0 0 0 0 0 0 0 0 0 127 0" result="hardAlpha"/>
<feOffset dy="4"/>
<feGaussianBlur stdDeviation="2.5"/>
<feComposite in2="hardAlpha" operator="out"/>
<feColorMatrix type="matrix" values="0 0 0 0 0 0 0 0 0 0 0 0 0 0 0 0 0 0 0.15 0"/>
<feBlend mode="normal" in2="BackgroundImageFix" result="effect1_dropShadow_447_15922"/>
<feBlend mode="normal" in="SourceGraphic" in2="effect1_dropShadow_447_15922" result="shape"/>
</filter>
<filter id="filter1_d_447_15922" x="8.98352" y="40.3777" width="57.033" height="59.033" filterUnits="userSpaceOnUse" color-interpolation-filters="sRGB">
<feFlood flood-opacity="0" result="BackgroundImageFix"/>
<feColorMatrix in="SourceAlpha" type="matrix" values="0 0 0 0 0 0 0 0 0 0 0 0 0 0 0 0 0 0 127 0" result="hardAlpha"/>
<feOffset dy="4"/>
<feGaussianBlur stdDeviation="1"/>
<feComposite in2="hardAlpha" operator="out"/>
<feColorMatrix type="matrix" values="0 0 0 0 0 0 0 0 0 0 0 0 0 0 0 0 0 0 0.17 0"/>
<feBlend mode="normal" in2="BackgroundImageFix" result="effect1_dropShadow_447_15922"/>
<feBlend mode="normal" in="SourceGraphic" in2="effect1_dropShadow_447_15922" result="shape"/>
</filter>
<linearGradient id="paint0_linear_447_15922" x1="39.441" y1="67.0386" x2="105.643" y2="67.0386" gradientUnits="userSpaceOnUse">
<stop stop-color="#013ACD"/>
<stop offset="1" stop-color="#4D77E6"/>
</linearGradient>
</defs>
</svg>
