<svg width="200" height="164" viewBox="0 0 200 164" fill="none" xmlns="http://www.w3.org/2000/svg">
<path d="M79.332 163C78.936 163 78.738 162.796 78.738 162.388V161.686C78.738 160.918 79.032 160.162 79.62 159.418C80.22 158.674 81.114 157.966 82.302 157.294C83.154 156.814 83.778 156.436 84.174 156.16C84.57 155.872 84.858 155.572 85.038 155.26C85.23 154.936 85.326 154.54 85.326 154.072C85.326 153.46 85.11 152.998 84.678 152.686C84.246 152.362 83.64 152.2 82.86 152.2C82.296 152.2 81.762 152.272 81.258 152.416C80.766 152.548 80.34 152.716 79.98 152.92C79.86 152.98 79.782 153.01 79.746 153.01C79.674 153.01 79.602 152.956 79.53 152.848L79.026 151.966C78.966 151.87 78.936 151.786 78.936 151.714C78.936 151.618 78.99 151.534 79.098 151.462C79.518 151.162 80.088 150.928 80.808 150.76C81.528 150.58 82.314 150.49 83.166 150.49C84.498 150.49 85.572 150.796 86.388 151.408C87.204 152.008 87.612 152.86 87.612 153.964C87.612 154.888 87.324 155.668 86.748 156.304C86.184 156.94 85.29 157.594 84.066 158.266C83.166 158.734 82.452 159.226 81.924 159.742C81.396 160.258 81.114 160.762 81.078 161.254H86.91C87.15 161.254 87.318 161.308 87.414 161.416C87.51 161.512 87.558 161.674 87.558 161.902V162.388C87.558 162.604 87.51 162.76 87.414 162.856C87.318 162.952 87.15 163 86.91 163H79.332ZM93.5195 163.27C91.5755 163.27 90.1415 162.958 89.2175 162.334C89.1095 162.262 89.0555 162.178 89.0555 162.082C89.0555 162.01 89.0855 161.926 89.1455 161.83L89.6675 160.948C89.7395 160.828 89.8055 160.768 89.8655 160.768C89.9135 160.768 89.9975 160.798 90.1175 160.858C90.5135 161.074 90.9695 161.248 91.4855 161.38C92.0135 161.512 92.5835 161.578 93.1955 161.578C94.1795 161.578 94.8995 161.392 95.3555 161.02C95.8235 160.636 96.0575 160.108 96.0575 159.436C96.0575 158.188 95.2955 157.564 93.7715 157.564H92.2595C92.0195 157.564 91.8455 157.516 91.7375 157.42C91.6415 157.312 91.5935 157.144 91.5935 156.916V156.448C91.5935 156.232 91.6415 156.076 91.7375 155.98C91.8455 155.884 92.0195 155.836 92.2595 155.836H93.7355C94.3835 155.836 94.8695 155.668 95.1935 155.332C95.5175 154.984 95.6795 154.546 95.6795 154.018C95.6795 152.806 94.8275 152.2 93.1235 152.2C92.0675 152.2 91.1375 152.422 90.3335 152.866C90.2135 152.926 90.1295 152.956 90.0815 152.956C90.0215 152.956 89.9555 152.902 89.8835 152.794L89.3795 151.948C89.3195 151.852 89.2895 151.768 89.2895 151.696C89.2895 151.6 89.3435 151.516 89.4515 151.444C89.8715 151.144 90.4295 150.91 91.1255 150.742C91.8215 150.574 92.5955 150.49 93.4475 150.49C94.3715 150.49 95.1695 150.634 95.8415 150.922C96.5255 151.21 97.0475 151.618 97.4075 152.146C97.7795 152.662 97.9655 153.268 97.9655 153.964C97.9655 154.528 97.8275 155.05 97.5515 155.53C97.2875 156.01 96.9035 156.382 96.3995 156.646C97.0475 156.886 97.5275 157.258 97.8395 157.762C98.1635 158.254 98.3255 158.836 98.3255 159.508C98.3255 160.636 97.9055 161.548 97.0655 162.244C96.2375 162.928 95.0555 163.27 93.5195 163.27ZM106.205 163C105.965 163 105.791 162.952 105.683 162.856C105.587 162.76 105.539 162.604 105.539 162.388V160.336H99.8334C99.5214 160.336 99.3654 160.192 99.3654 159.904V159.166C99.3654 158.998 99.3834 158.872 99.4194 158.788C99.4554 158.692 99.5214 158.578 99.6174 158.446L105.683 151.102C105.791 150.97 105.887 150.88 105.971 150.832C106.055 150.784 106.187 150.76 106.367 150.76H107.159C107.399 150.76 107.573 150.814 107.681 150.922C107.789 151.03 107.843 151.198 107.843 151.426V158.59H109.103C109.343 158.59 109.511 158.644 109.607 158.752C109.703 158.848 109.751 159.01 109.751 159.238V159.724C109.751 159.94 109.703 160.096 109.607 160.192C109.511 160.288 109.343 160.336 109.103 160.336H107.843V162.388C107.843 162.604 107.789 162.76 107.681 162.856C107.585 162.952 107.411 163 107.159 163H106.205ZM105.917 158.59V153.478L101.777 158.59H105.917ZM115.228 163.27C114.388 163.27 113.584 163.18 112.816 163C112.048 162.808 111.43 162.556 110.962 162.244C110.854 162.172 110.8 162.094 110.8 162.01C110.8 161.938 110.83 161.854 110.89 161.758L111.412 160.858C111.472 160.75 111.538 160.696 111.61 160.696C111.67 160.696 111.754 160.732 111.862 160.804C112.246 161.032 112.72 161.218 113.284 161.362C113.86 161.506 114.484 161.578 115.156 161.578C116.164 161.578 116.932 161.368 117.46 160.948C117.988 160.516 118.252 159.874 118.252 159.022C118.252 158.074 118.024 157.408 117.568 157.024C117.124 156.64 116.41 156.448 115.426 156.448C114.442 156.448 113.608 156.604 112.924 156.916C112.672 157 112.462 157.042 112.294 157.042C111.982 157.042 111.718 156.952 111.502 156.772C111.298 156.592 111.202 156.34 111.214 156.016L111.52 151.372C111.532 151.156 111.586 151 111.682 150.904C111.778 150.808 111.946 150.76 112.186 150.76H119.314C119.554 150.76 119.722 150.808 119.818 150.904C119.914 151 119.962 151.162 119.962 151.39V151.876C119.962 152.104 119.914 152.272 119.818 152.38C119.722 152.476 119.554 152.524 119.314 152.524H113.464L113.284 155.188C113.992 154.96 114.832 154.846 115.804 154.846C118.96 154.846 120.538 156.238 120.538 159.022C120.538 159.886 120.316 160.642 119.872 161.29C119.44 161.926 118.822 162.418 118.018 162.766C117.226 163.102 116.296 163.27 115.228 163.27ZM126.948 163.27C125.448 163.27 124.236 162.826 123.312 161.938C122.4 161.038 121.944 159.616 121.944 157.672C121.944 155.968 122.202 154.582 122.718 153.514C123.234 152.434 123.906 151.66 124.734 151.192C125.562 150.724 126.462 150.49 127.434 150.49C128.862 150.49 130.026 150.802 130.926 151.426C131.034 151.51 131.088 151.594 131.088 151.678C131.088 151.75 131.064 151.828 131.016 151.912L130.53 152.758C130.458 152.878 130.386 152.938 130.314 152.938C130.254 152.938 130.17 152.902 130.062 152.83C129.714 152.614 129.342 152.458 128.946 152.362C128.562 152.254 128.1 152.2 127.56 152.2C126.588 152.2 125.832 152.47 125.292 153.01C124.752 153.538 124.38 154.366 124.176 155.494C124.608 155.122 125.094 154.858 125.634 154.702C126.186 154.534 126.828 154.45 127.56 154.45C128.46 154.45 129.246 154.624 129.918 154.972C130.602 155.308 131.13 155.788 131.502 156.412C131.886 157.024 132.078 157.732 132.078 158.536C132.078 160.096 131.628 161.278 130.728 162.082C129.828 162.874 128.568 163.27 126.948 163.27ZM126.948 161.578C128.844 161.578 129.792 160.582 129.792 158.59C129.792 157.738 129.54 157.084 129.036 156.628C128.532 156.16 127.86 155.926 127.02 155.926C126.276 155.926 125.628 156.154 125.076 156.61C124.524 157.054 124.248 157.732 124.248 158.644C124.248 159.664 124.488 160.408 124.968 160.876C125.46 161.344 126.12 161.578 126.948 161.578Z" fill="#3D3D3D"/>
<g opacity="0.19">
<path d="M105.608 8.36206C139.817 8.36206 167.639 36.0991 167.639 70.3922C167.639 104.685 139.902 132.422 105.608 132.422" stroke="#19374C" stroke-width="3" stroke-miterlimit="10"/>
</g>
<path d="M105.608 5C139.817 5 167.639 32.7371 167.639 67.0302C167.639 101.323 139.902 129.06 105.608 129.06" stroke="#150D36" stroke-width="3" stroke-miterlimit="10"/>
<path d="M105.608 129.06C71.3991 129.06 43.578 101.323 43.578 67.0302C43.578 32.7371 71.3151 5 105.608 5" stroke="url(#paint0_linear_447_15923)" stroke-width="10" stroke-miterlimit="10"/>
<g filter="url(#filter0_d_447_15923)">
<path d="M44 41H169C183.359 41 195 52.6406 195 67C195 81.3594 183.359 93 169 93H44V41Z" fill="white"/>
</g>
<g filter="url(#filter1_d_447_15923)">
<path d="M56.25 85.6442C66.6054 75.2888 66.6053 58.4995 56.25 48.1442C45.8947 37.7888 29.1053 37.7888 18.75 48.1442C8.39467 58.4995 8.39466 75.2888 18.75 85.6442C29.1053 95.9995 45.8947 95.9995 56.25 85.6442Z" fill="white"/>
</g>
<path d="M96.5372 62C96.2705 62 96.0772 61.94 95.9572 61.82C95.8505 61.7 95.7972 61.52 95.7972 61.28V49.14C95.7972 48.8867 95.8505 48.7 95.9572 48.58C96.0772 48.46 96.2705 48.4 96.5372 48.4H101.657C103.297 48.4 104.511 48.7933 105.297 49.58C106.097 50.3533 106.497 51.4667 106.497 52.92C106.497 54.36 106.097 55.4667 105.297 56.24C104.511 57.0133 103.297 57.4 101.657 57.4H98.3572V61.28C98.3572 61.52 98.2972 61.7 98.1772 61.82C98.0705 61.94 97.8772 62 97.5972 62H96.5372ZM101.537 55.46C102.351 55.46 102.957 55.2533 103.357 54.84C103.757 54.4133 103.957 53.7733 103.957 52.92C103.957 52.0533 103.757 51.4133 103.357 51C102.957 50.5733 102.351 50.36 101.537 50.36H98.3572V55.46H101.537ZM112.149 62.3C111.109 62.3 110.169 62.1267 109.329 61.78C108.489 61.42 107.816 60.8733 107.309 60.14C106.816 59.3933 106.569 58.4667 106.569 57.36C106.569 55.64 107.029 54.3333 107.949 53.44C108.869 52.5467 110.176 52.1 111.869 52.1C113.549 52.1 114.816 52.5333 115.669 53.4C116.536 54.2667 116.969 55.52 116.969 57.16C116.969 57.6267 116.756 57.86 116.329 57.86H108.989C108.989 58.74 109.296 59.42 109.909 59.9C110.522 60.3667 111.376 60.6 112.469 60.6C113.522 60.6 114.469 60.36 115.309 59.88C115.402 59.8267 115.476 59.8 115.529 59.8C115.622 59.8 115.696 59.86 115.749 59.98L116.229 60.84C116.269 60.92 116.289 60.9933 116.289 61.06C116.289 61.1533 116.229 61.24 116.109 61.32C115.562 61.6533 114.969 61.9 114.329 62.06C113.702 62.22 112.976 62.3 112.149 62.3ZM114.649 56.38C114.649 55.5533 114.416 54.9067 113.949 54.44C113.496 53.9733 112.809 53.74 111.889 53.74C110.956 53.74 110.236 53.98 109.729 54.46C109.236 54.94 108.989 55.58 108.989 56.38H114.649ZM123.942 62.3C122.209 62.3 120.869 61.8467 119.922 60.94C118.989 60.02 118.522 58.7733 118.522 57.2C118.522 55.6267 118.989 54.3867 119.922 53.48C120.869 52.56 122.209 52.1 123.942 52.1C125.676 52.1 127.016 52.56 127.962 53.48C128.909 54.3867 129.382 55.6267 129.382 57.2C129.382 58.7733 128.909 60.02 127.962 60.94C127.016 61.8467 125.676 62.3 123.942 62.3ZM123.942 60.42C124.889 60.42 125.609 60.1467 126.102 59.6C126.596 59.0533 126.842 58.2533 126.842 57.2C126.842 56.16 126.596 55.3733 126.102 54.84C125.609 54.2933 124.889 54.02 123.942 54.02C123.009 54.02 122.289 54.2933 121.782 54.84C121.289 55.3733 121.042 56.16 121.042 57.2C121.042 58.24 121.289 59.04 121.782 59.6C122.289 60.1467 123.009 60.42 123.942 60.42ZM132.084 66.04C131.817 66.04 131.624 65.98 131.504 65.86C131.397 65.74 131.344 65.56 131.344 65.32V53.36C131.851 53 132.524 52.7 133.364 52.46C134.217 52.22 135.071 52.1 135.924 52.1C139.791 52.1 141.724 53.8067 141.724 57.22C141.724 58.7933 141.297 60.0333 140.444 60.94C139.604 61.8467 138.444 62.3 136.964 62.3C135.617 62.3 134.584 61.9133 133.864 61.14V65.32C133.864 65.5733 133.804 65.7533 133.684 65.86C133.577 65.98 133.384 66.04 133.104 66.04H132.084ZM136.364 60.48C137.311 60.48 138.017 60.1933 138.484 59.62C138.951 59.0467 139.184 58.22 139.184 57.14C139.184 55.98 138.911 55.16 138.364 54.68C137.817 54.1867 136.977 53.94 135.844 53.94C135.004 53.94 134.344 54.0667 133.864 54.32V58.26C133.864 58.94 134.104 59.48 134.584 59.88C135.064 60.28 135.657 60.48 136.364 60.48ZM144.428 62C144.161 62 143.968 61.94 143.848 61.82C143.741 61.7 143.688 61.52 143.688 61.28V49.14C143.688 48.8867 143.741 48.7 143.848 48.58C143.968 48.46 144.161 48.4 144.428 48.4H145.488C145.754 48.4 145.948 48.46 146.068 48.58C146.188 48.7 146.248 48.8867 146.248 49.14V61.28C146.248 61.52 146.188 61.7 146.068 61.82C145.961 61.94 145.768 62 145.488 62H144.428ZM153.79 62.3C152.75 62.3 151.81 62.1267 150.97 61.78C150.13 61.42 149.456 60.8733 148.95 60.14C148.456 59.3933 148.21 58.4667 148.21 57.36C148.21 55.64 148.67 54.3333 149.59 53.44C150.51 52.5467 151.816 52.1 153.51 52.1C155.19 52.1 156.456 52.5333 157.31 53.4C158.176 54.2667 158.61 55.52 158.61 57.16C158.61 57.6267 158.396 57.86 157.97 57.86H150.63C150.63 58.74 150.936 59.42 151.55 59.9C152.163 60.3667 153.016 60.6 154.11 60.6C155.163 60.6 156.11 60.36 156.95 59.88C157.043 59.8267 157.116 59.8 157.17 59.8C157.263 59.8 157.336 59.86 157.39 59.98L157.87 60.84C157.91 60.92 157.93 60.9933 157.93 61.06C157.93 61.1533 157.87 61.24 157.75 61.32C157.203 61.6533 156.61 61.9 155.97 62.06C155.343 62.22 154.616 62.3 153.79 62.3ZM156.29 56.38C156.29 55.5533 156.056 54.9067 155.59 54.44C155.136 53.9733 154.45 53.74 153.53 53.74C152.596 53.74 151.876 53.98 151.37 54.46C150.876 54.94 150.63 55.58 150.63 56.38H156.29ZM100.522 87C100.255 87 100.062 86.94 99.9416 86.82C99.8349 86.7 99.7816 86.52 99.7816 86.28V74.14C99.7816 73.8867 99.8349 73.7 99.9416 73.58C100.062 73.46 100.255 73.4 100.522 73.4H101.582C101.848 73.4 102.042 73.46 102.162 73.58C102.282 73.7 102.342 73.8867 102.342 74.14V86.28C102.342 86.52 102.282 86.7 102.162 86.82C102.055 86.94 101.862 87 101.582 87H100.522ZM105.463 87C105.197 87 105.003 86.94 104.883 86.82C104.763 86.7 104.703 86.52 104.703 86.28V77.94C104.703 77.74 104.737 77.6 104.803 77.52C104.87 77.44 105.01 77.4 105.223 77.4H106.363C106.657 77.4 106.81 77.5333 106.823 77.8L106.863 78.6C107.77 77.6 109.07 77.1 110.763 77.1C111.843 77.1 112.71 77.3933 113.363 77.98C114.03 78.5533 114.363 79.42 114.363 80.58V86.28C114.363 86.52 114.303 86.7 114.183 86.82C114.077 86.94 113.89 87 113.623 87H112.563C112.297 87 112.103 86.94 111.983 86.82C111.863 86.7 111.803 86.52 111.803 86.28V80.74C111.803 80.0867 111.65 79.6267 111.343 79.36C111.05 79.08 110.57 78.94 109.903 78.94C109.197 78.94 108.577 79.1333 108.043 79.52C107.523 79.8933 107.263 80.38 107.263 80.98V86.28C107.263 86.52 107.203 86.7 107.083 86.82C106.977 86.94 106.783 87 106.503 87H105.463ZM120.778 87.3C119.978 87.3 119.198 87.2133 118.438 87.04C117.678 86.88 117.024 86.6333 116.478 86.3C116.304 86.2067 116.218 86.1067 116.218 86C116.218 85.92 116.244 85.8467 116.298 85.78L116.858 84.8C116.924 84.68 116.991 84.62 117.058 84.62C117.124 84.62 117.211 84.6533 117.318 84.72C117.718 84.96 118.211 85.16 118.798 85.32C119.384 85.48 119.924 85.56 120.418 85.56C121.178 85.56 121.718 85.4867 122.038 85.34C122.371 85.18 122.538 84.9 122.538 84.5C122.538 84.2733 122.471 84.0933 122.338 83.96C122.218 83.8133 122.031 83.6867 121.778 83.58C121.524 83.4733 121.104 83.3267 120.518 83.14C120.518 83.14 120.298 83.0667 119.858 82.92C119.098 82.6667 118.491 82.42 118.038 82.18C117.584 81.94 117.231 81.64 116.978 81.28C116.738 80.9067 116.618 80.44 116.618 79.88C116.618 78.9733 116.998 78.2867 117.758 77.82C118.531 77.34 119.531 77.1 120.758 77.1C122.251 77.1 123.538 77.42 124.618 78.06C124.791 78.1533 124.878 78.2533 124.878 78.36C124.878 78.4267 124.844 78.5133 124.778 78.62L124.238 79.48C124.158 79.6 124.091 79.66 124.038 79.66C123.984 79.66 123.904 79.6267 123.798 79.56C123.451 79.3467 123.031 79.18 122.538 79.06C122.058 78.9267 121.571 78.86 121.078 78.86C120.411 78.86 119.918 78.9333 119.598 79.08C119.291 79.2133 119.138 79.48 119.138 79.88C119.138 80.2267 119.318 80.5 119.678 80.7C120.051 80.9 120.691 81.14 121.598 81.42L122.258 81.62C123.298 81.9533 124.024 82.3467 124.438 82.8C124.864 83.2533 125.078 83.82 125.078 84.5C125.078 85.3267 124.711 86 123.978 86.52C123.258 87.04 122.191 87.3 120.778 87.3ZM128.047 75.74C127.727 75.74 127.481 75.6467 127.307 75.46C127.134 75.2733 127.047 75.0467 127.047 74.78V74.36C127.047 74.0933 127.134 73.8667 127.307 73.68C127.481 73.4933 127.727 73.4 128.047 73.4H128.907C129.227 73.4 129.474 73.4933 129.647 73.68C129.834 73.8667 129.927 74.0933 129.927 74.36V74.78C129.927 75.0467 129.834 75.2733 129.647 75.46C129.474 75.6467 129.227 75.74 128.907 75.74H128.047ZM127.967 87C127.701 87 127.507 86.94 127.387 86.82C127.267 86.7 127.207 86.52 127.207 86.28V78.14C127.207 77.8867 127.267 77.7 127.387 77.58C127.507 77.46 127.701 77.4 127.967 77.4H129.007C129.274 77.4 129.467 77.46 129.587 77.58C129.707 77.7 129.767 77.8867 129.767 78.14V86.28C129.767 86.52 129.707 86.7 129.587 86.82C129.481 86.94 129.287 87 129.007 87H127.967ZM137.562 87.3C133.775 87.3 131.882 85.5933 131.882 82.18C131.882 81.18 132.075 80.3 132.462 79.54C132.848 78.7667 133.402 78.1667 134.122 77.74C134.855 77.3133 135.715 77.1 136.702 77.1C138.102 77.1 139.115 77.4133 139.742 78.04V74.14C139.742 73.8867 139.802 73.7 139.922 73.58C140.042 73.46 140.235 73.4 140.502 73.4H141.502C141.768 73.4 141.962 73.46 142.082 73.58C142.202 73.7 142.262 73.8867 142.262 74.14V86C141.755 86.3733 141.075 86.6867 140.222 86.94C139.368 87.18 138.482 87.3 137.562 87.3ZM137.622 85.48C138.515 85.48 139.222 85.32 139.742 85V80.92C139.742 80.2667 139.515 79.7733 139.062 79.44C138.608 79.1067 138.022 78.94 137.302 78.94C136.328 78.94 135.602 79.2333 135.122 79.82C134.642 80.4067 134.402 81.2133 134.402 82.24C134.402 83.3867 134.668 84.2133 135.202 84.72C135.735 85.2267 136.542 85.48 137.622 85.48ZM149.805 87.3C148.765 87.3 147.825 87.1267 146.985 86.78C146.145 86.42 145.472 85.8733 144.965 85.14C144.472 84.3933 144.225 83.4667 144.225 82.36C144.225 80.64 144.685 79.3333 145.605 78.44C146.525 77.5467 147.832 77.1 149.525 77.1C151.205 77.1 152.472 77.5333 153.325 78.4C154.192 79.2667 154.625 80.52 154.625 82.16C154.625 82.6267 154.412 82.86 153.985 82.86H146.645C146.645 83.74 146.952 84.42 147.565 84.9C148.179 85.3667 149.032 85.6 150.125 85.6C151.179 85.6 152.125 85.36 152.965 84.88C153.059 84.8267 153.132 84.8 153.185 84.8C153.279 84.8 153.352 84.86 153.405 84.98L153.885 85.84C153.925 85.92 153.945 85.9933 153.945 86.06C153.945 86.1533 153.885 86.24 153.765 86.32C153.219 86.6533 152.625 86.9 151.985 87.06C151.359 87.22 150.632 87.3 149.805 87.3ZM152.305 81.38C152.305 80.5533 152.072 79.9067 151.605 79.44C151.152 78.9733 150.465 78.74 149.545 78.74C148.612 78.74 147.892 78.98 147.385 79.46C146.892 79.94 146.645 80.58 146.645 81.38H152.305Z" fill="#3D3D3D"/>
<g clip-path="url(#clip0_447_15923)">
<path d="M40.0938 56.2188C40.0938 55.5971 39.8468 55.001 39.4073 54.5615C38.9677 54.1219 38.3716 53.875 37.75 53.875C37.1284 53.875 36.5323 54.1219 36.0927 54.5615C35.6532 55.001 35.4063 55.5971 35.4063 56.2188C35.4063 56.8404 35.6532 57.4365 36.0927 57.876C36.5323 58.3156 37.1284 58.5625 37.75 58.5625C38.3716 58.5625 38.9677 58.3156 39.4073 57.876C39.8468 57.4365 40.0938 56.8404 40.0938 56.2188ZM27.4375 64.1875C28.0591 64.1875 28.6552 63.9406 29.0948 63.501C29.5343 63.0615 29.7813 62.4654 29.7813 61.8438C29.7813 61.2221 29.5343 60.626 29.0948 60.1865C28.6552 59.7469 28.0591 59.5 27.4375 59.5C26.8159 59.5 26.2198 59.7469 25.7802 60.1865C25.3407 60.626 25.0938 61.2221 25.0938 61.8438C25.0938 62.4654 25.3407 63.0615 25.7802 63.501C26.2198 63.9406 26.8159 64.1875 27.4375 64.1875ZM20.875 76.375C19.8379 76.375 19 77.2129 19 78.25C19 79.2871 19.8379 80.125 20.875 80.125H54.625C55.6621 80.125 56.5 79.2871 56.5 78.25C56.5 77.2129 55.6621 76.375 54.625 76.375H20.875ZM48.0625 64.1875C48.6841 64.1875 49.2802 63.9406 49.7198 63.501C50.1593 63.0615 50.4063 62.4654 50.4063 61.8438C50.4063 61.2221 50.1593 60.626 49.7198 60.1865C49.2802 59.7469 48.6841 59.5 48.0625 59.5C47.4409 59.5 46.8448 59.7469 46.4052 60.1865C45.9657 60.626 45.7188 61.2221 45.7188 61.8438C45.7188 62.4654 45.9657 63.0615 46.4052 63.501C46.8448 63.9406 47.4409 64.1875 48.0625 64.1875ZM30.7188 70.3691L32.2949 73.293C32.6641 73.9785 33.5137 74.2305 34.1992 73.8672C34.8848 73.5039 35.1367 72.6484 34.7734 71.9629L32.6465 68.0078C32.7461 67.9082 32.834 67.7969 32.8984 67.668L34.4688 64.7441V67.9375C34.4688 68.9746 35.3066 69.8125 36.3438 69.8125H39.1563C40.1934 69.8125 41.0313 68.9746 41.0313 67.9375V64.7441L42.6074 67.668C42.6777 67.7969 42.7598 67.9082 42.8594 68.0078L40.7324 71.9629C40.3633 72.6484 40.6211 73.498 41.3066 73.8672C41.9922 74.2363 42.8418 73.9785 43.2109 73.293L44.7813 70.3691V72.625C44.7813 73.6621 45.6191 74.5 46.6563 74.5H49.4688C50.5059 74.5 51.3438 73.6621 51.3438 72.625V70.3691L52.9199 73.293C53.2891 73.9785 54.1387 74.2305 54.8242 73.8672C55.5098 73.5039 55.7617 72.6484 55.3984 71.9629L53.1777 67.8438C52.2813 66.1738 50.5352 65.1309 48.6367 65.1309H47.4883C46.5332 65.1309 45.6191 65.3945 44.8281 65.8691L42.8594 62.2188C41.9629 60.5488 40.2168 59.5059 38.3184 59.5059H37.1758C35.2773 59.5059 33.5371 60.5488 32.6348 62.2188L30.666 65.8691C29.875 65.3945 28.9609 65.1309 28.0059 65.1309H26.8633C24.9648 65.1309 23.2246 66.1738 22.3223 67.8438L20.1074 71.957C19.7383 72.6426 19.9961 73.4922 20.6816 73.8613C21.3672 74.2305 22.2168 73.9727 22.5859 73.2871L24.1563 70.3691V72.625C24.1563 73.6621 24.9941 74.5 26.0313 74.5H28.8438C29.8809 74.5 30.7188 73.6621 30.7188 72.625V70.3691Z" fill="#6B0AE7"/>
</g>
<defs>
<filter id="filter0_d_447_15923" x="39" y="40" width="161" height="62" filterUnits="userSpaceOnUse" color-interpolation-filters="sRGB">
<feFlood flood-opacity="0" result="BackgroundImageFix"/>
<feColorMatrix in="SourceAlpha" type="matrix" values="0 0 0 0 0 0 0 0 0 0 0 0 0 0 0 0 0 0 127 0" result="hardAlpha"/>
<feOffset dy="4"/>
<feGaussianBlur stdDeviation="2.5"/>
<feComposite in2="hardAlpha" operator="out"/>
<feColorMatrix type="matrix" values="0 0 0 0 0 0 0 0 0 0 0 0 0 0 0 0 0 0 0.15 0"/>
<feBlend mode="normal" in2="BackgroundImageFix" result="effect1_dropShadow_447_15923"/>
<feBlend mode="normal" in="SourceGraphic" in2="effect1_dropShadow_447_15923" result="shape"/>
</filter>
<filter id="filter1_d_447_15923" x="8.98352" y="40.3777" width="57.033" height="59.033" filterUnits="userSpaceOnUse" color-interpolation-filters="sRGB">
<feFlood flood-opacity="0" result="BackgroundImageFix"/>
<feColorMatrix in="SourceAlpha" type="matrix" values="0 0 0 0 0 0 0 0 0 0 0 0 0 0 0 0 0 0 127 0" result="hardAlpha"/>
<feOffset dy="4"/>
<feGaussianBlur stdDeviation="1"/>
<feComposite in2="hardAlpha" operator="out"/>
<feColorMatrix type="matrix" values="0 0 0 0 0 0 0 0 0 0 0 0 0 0 0 0 0 0 0.17 0"/>
<feBlend mode="normal" in2="BackgroundImageFix" result="effect1_dropShadow_447_15923"/>
<feBlend mode="normal" in="SourceGraphic" in2="effect1_dropShadow_447_15923" result="shape"/>
</filter>
<linearGradient id="paint0_linear_447_15923" x1="39.441" y1="67.0386" x2="105.643" y2="67.0386" gradientUnits="userSpaceOnUse">
<stop stop-color="#6B0AE7"/>
<stop offset="1" stop-color="#9B5CEC"/>
</linearGradient>
<clipPath id="clip0_447_15923">
<rect width="37.5" height="30" fill="white" transform="translate(19 52)"/>
</clipPath>
</defs>
</svg>
