<svg width="200" height="164" viewBox="0 0 200 164" fill="none" xmlns="http://www.w3.org/2000/svg">
<path d="M101.742 163.27C100.158 163.27 98.922 162.946 98.034 162.298C97.146 161.65 96.702 160.738 96.702 159.562C96.702 158.878 96.882 158.278 97.242 157.762C97.614 157.234 98.118 156.856 98.754 156.628C98.19 156.376 97.764 156.034 97.476 155.602C97.188 155.17 97.044 154.666 97.044 154.09C97.044 152.938 97.446 152.05 98.25 151.426C99.066 150.802 100.23 150.49 101.742 150.49C103.254 150.49 104.412 150.802 105.216 151.426C106.02 152.05 106.422 152.938 106.422 154.09C106.422 154.666 106.278 155.17 105.99 155.602C105.702 156.034 105.282 156.376 104.73 156.628C105.366 156.856 105.864 157.234 106.224 157.762C106.596 158.278 106.782 158.878 106.782 159.562C106.782 160.738 106.332 161.65 105.432 162.298C104.544 162.946 103.314 163.27 101.742 163.27ZM101.742 155.818C102.522 155.818 103.116 155.686 103.524 155.422C103.932 155.146 104.136 154.702 104.136 154.09C104.136 153.418 103.938 152.938 103.542 152.65C103.158 152.35 102.558 152.2 101.742 152.2C100.926 152.2 100.32 152.35 99.924 152.65C99.528 152.938 99.33 153.418 99.33 154.09C99.33 154.702 99.534 155.146 99.942 155.422C100.35 155.686 100.95 155.818 101.742 155.818ZM101.742 161.578C103.578 161.578 104.496 160.906 104.496 159.562C104.496 158.182 103.578 157.492 101.742 157.492C99.894 157.492 98.97 158.182 98.97 159.562C98.97 160.906 99.894 161.578 101.742 161.578ZM109.153 163C108.913 163 108.745 162.958 108.649 162.874C108.553 162.778 108.505 162.622 108.505 162.406V161.884C108.505 161.656 108.553 161.494 108.649 161.398C108.745 161.302 108.913 161.254 109.153 161.254H110.917V153.28L109.369 154.216C109.273 154.276 109.189 154.306 109.117 154.306C109.009 154.306 108.919 154.246 108.847 154.126L108.271 153.226C108.223 153.142 108.199 153.064 108.199 152.992C108.199 152.872 108.265 152.776 108.397 152.704L111.367 150.922C111.451 150.862 111.535 150.82 111.619 150.796C111.703 150.772 111.817 150.76 111.961 150.76H112.555C113.011 150.76 113.239 150.982 113.239 151.426V161.254H115.003C115.243 161.254 115.411 161.302 115.507 161.398C115.603 161.494 115.651 161.656 115.651 161.884V162.406C115.651 162.622 115.603 162.778 115.507 162.874C115.411 162.958 115.243 163 115.003 163H109.153Z" fill="#3D3D3D"/>
<g opacity="0.19">
<path d="M105.608 8.36206C139.817 8.36206 167.639 36.0991 167.639 70.3922C167.639 104.685 139.902 132.422 105.608 132.422" stroke="#19374C" stroke-width="3" stroke-miterlimit="10"/>
</g>
<path d="M105.608 5C139.817 5 167.639 32.7371 167.639 67.0302C167.639 101.323 139.902 129.06 105.608 129.06" stroke="#150D36" stroke-width="3" stroke-miterlimit="10"/>
<path d="M105.608 129.06C71.3991 129.06 43.578 101.323 43.578 67.0302C43.578 32.7371 71.3151 5 105.608 5" stroke="url(#paint0_linear_447_15927)" stroke-width="10" stroke-miterlimit="10"/>
<g filter="url(#filter0_d_447_15927)">
<path d="M44 41H169C183.359 41 195 52.6406 195 67C195 81.3594 183.359 93 169 93H44V41Z" fill="white"/>
</g>
<g filter="url(#filter1_d_447_15927)">
<path d="M56.25 85.75C66.6054 75.3947 66.6053 58.6053 56.25 48.25C45.8947 37.8947 29.1053 37.8947 18.75 48.25C8.39467 58.6053 8.39466 75.3947 18.75 85.75C29.1053 96.1053 45.8947 96.1053 56.25 85.75Z" fill="white"/>
</g>
<path d="M82.0353 75C81.7686 75 81.5753 74.94 81.4553 74.82C81.3353 74.7 81.2753 74.52 81.2753 74.28V63.36H77.7753C77.5086 63.36 77.322 63.3067 77.2153 63.2C77.122 63.0933 77.0753 62.9133 77.0753 62.66V62.12C77.0753 61.8667 77.122 61.6867 77.2153 61.58C77.322 61.46 77.5086 61.4 77.7753 61.4H87.3353C87.602 61.4 87.7886 61.46 87.8953 61.58C88.002 61.6867 88.0553 61.8667 88.0553 62.12V62.66C88.0553 62.9133 88.002 63.0933 87.8953 63.2C87.7886 63.3067 87.602 63.36 87.3353 63.36H83.8353V74.28C83.8353 74.52 83.7753 74.7 83.6553 74.82C83.5486 74.94 83.3553 75 83.0753 75H82.0353ZM92.3289 75.3C90.5956 75.3 89.2556 74.8467 88.3089 73.94C87.3756 73.02 86.9089 71.7733 86.9089 70.2C86.9089 68.6267 87.3756 67.3867 88.3089 66.48C89.2556 65.56 90.5956 65.1 92.3289 65.1C94.0622 65.1 95.4022 65.56 96.3489 66.48C97.2956 67.3867 97.7689 68.6267 97.7689 70.2C97.7689 71.7733 97.2956 73.02 96.3489 73.94C95.4022 74.8467 94.0622 75.3 92.3289 75.3ZM92.3289 73.42C93.2756 73.42 93.9956 73.1467 94.4889 72.6C94.9822 72.0533 95.2289 71.2533 95.2289 70.2C95.2289 69.16 94.9822 68.3733 94.4889 67.84C93.9956 67.2933 93.2756 67.02 92.3289 67.02C91.3956 67.02 90.6756 67.2933 90.1689 67.84C89.6756 68.3733 89.4289 69.16 89.4289 70.2C89.4289 71.24 89.6756 72.04 90.1689 72.6C90.6756 73.1467 91.3956 73.42 92.3289 73.42ZM103.448 75.3C102.314 75.3 101.461 74.9867 100.888 74.36C100.314 73.7333 100.028 72.8667 100.028 71.76V67.28H98.8877C98.621 67.28 98.441 67.2333 98.3477 67.14C98.2677 67.0467 98.2277 66.8733 98.2277 66.62V66.08C98.2277 65.8267 98.2677 65.6533 98.3477 65.56C98.441 65.4533 98.621 65.4 98.8877 65.4H100.028V64.3C100.028 64.02 100.074 63.76 100.168 63.52C100.274 63.2667 100.434 62.9533 100.648 62.58C100.728 62.42 100.801 62.32 100.868 62.28C100.948 62.2267 101.081 62.2 101.268 62.2H101.928C102.168 62.2 102.334 62.26 102.428 62.38C102.534 62.4867 102.588 62.6533 102.588 62.88V65.4H104.948C105.214 65.4 105.388 65.4533 105.468 65.56C105.561 65.6533 105.608 65.8267 105.608 66.08V66.62C105.608 66.8733 105.561 67.0467 105.468 67.14C105.388 67.2333 105.214 67.28 104.948 67.28H102.588V71.68C102.588 72.2933 102.694 72.74 102.908 73.02C103.121 73.2867 103.488 73.42 104.008 73.42C104.314 73.42 104.574 73.3867 104.788 73.32C105.001 73.24 105.234 73.1133 105.488 72.94C105.554 72.8867 105.628 72.86 105.708 72.86C105.788 72.86 105.868 72.92 105.948 73.04L106.528 74C106.581 74.0667 106.608 74.14 106.608 74.22C106.608 74.3133 106.541 74.4067 106.408 74.5C105.581 75.0333 104.594 75.3 103.448 75.3ZM111.345 75.3C110.038 75.3 108.998 74.9067 108.225 74.12C107.452 73.32 107.065 72.2 107.065 70.76C107.065 69.64 107.312 68.6533 107.805 67.8C108.298 66.9333 108.998 66.2667 109.905 65.8C110.825 65.3333 111.892 65.1 113.105 65.1C114.798 65.1 116.232 65.5 117.405 66.3V74.46C117.405 74.66 117.358 74.8 117.265 74.88C117.185 74.96 117.038 75 116.825 75H115.725C115.578 75 115.465 74.9733 115.385 74.92C115.318 74.8533 115.272 74.7533 115.245 74.62L115.085 73.84C114.672 74.3467 114.158 74.72 113.545 74.96C112.945 75.1867 112.212 75.3 111.345 75.3ZM112.305 73.48C113.012 73.48 113.632 73.2733 114.165 72.86C114.712 72.4467 114.985 71.9 114.985 71.22V67.32C114.705 67.1733 114.418 67.0733 114.125 67.02C113.845 66.9533 113.498 66.92 113.085 66.92C112.032 66.92 111.185 67.2533 110.545 67.92C109.905 68.5867 109.585 69.5067 109.585 70.68C109.585 71.64 109.805 72.3467 110.245 72.8C110.698 73.2533 111.385 73.48 112.305 73.48ZM120.51 75C120.243 75 120.05 74.94 119.93 74.82C119.823 74.7 119.77 74.52 119.77 74.28V62.14C119.77 61.8867 119.823 61.7 119.93 61.58C120.05 61.46 120.243 61.4 120.51 61.4H121.57C121.837 61.4 122.03 61.46 122.15 61.58C122.27 61.7 122.33 61.8867 122.33 62.14V74.28C122.33 74.52 122.27 74.7 122.15 74.82C122.043 74.94 121.85 75 121.57 75H120.51ZM133.225 75C132.958 75 132.765 74.94 132.645 74.82C132.538 74.7 132.485 74.52 132.485 74.28V62.14C132.485 61.8867 132.538 61.7 132.645 61.58C132.765 61.46 132.958 61.4 133.225 61.4H134.285C134.551 61.4 134.745 61.46 134.865 61.58C134.985 61.7 135.045 61.8867 135.045 62.14V73.06H141.165C141.431 73.06 141.618 73.12 141.725 73.24C141.831 73.3467 141.885 73.5267 141.885 73.78V74.32C141.885 74.56 141.831 74.7333 141.725 74.84C141.618 74.9467 141.431 75 141.165 75H133.225ZM148.622 75.3C147.582 75.3 146.642 75.1267 145.802 74.78C144.962 74.42 144.288 73.8733 143.782 73.14C143.288 72.3933 143.042 71.4667 143.042 70.36C143.042 68.64 143.502 67.3333 144.422 66.44C145.342 65.5467 146.648 65.1 148.342 65.1C150.022 65.1 151.288 65.5333 152.142 66.4C153.008 67.2667 153.442 68.52 153.442 70.16C153.442 70.6267 153.228 70.86 152.802 70.86H145.462C145.462 71.74 145.768 72.42 146.382 72.9C146.995 73.3667 147.848 73.6 148.942 73.6C149.995 73.6 150.942 73.36 151.782 72.88C151.875 72.8267 151.948 72.8 152.002 72.8C152.095 72.8 152.168 72.86 152.222 72.98L152.702 73.84C152.742 73.92 152.762 73.9933 152.762 74.06C152.762 74.1533 152.702 74.24 152.582 74.32C152.035 74.6533 151.442 74.9 150.802 75.06C150.175 75.22 149.448 75.3 148.622 75.3ZM151.122 69.38C151.122 68.5533 150.888 67.9067 150.422 67.44C149.968 66.9733 149.282 66.74 148.362 66.74C147.428 66.74 146.708 66.98 146.202 67.46C145.708 67.94 145.462 68.58 145.462 69.38H151.122ZM156.975 75C156.708 75 156.515 74.94 156.395 74.82C156.288 74.7 156.235 74.52 156.235 74.28V67.28H155.295C155.028 67.28 154.842 67.2267 154.735 67.12C154.642 67 154.595 66.8133 154.595 66.56V66.1C154.595 65.8467 154.642 65.6667 154.735 65.56C154.842 65.4533 155.028 65.4 155.295 65.4H156.235V64.66C156.235 63.54 156.535 62.6667 157.135 62.04C157.735 61.4133 158.635 61.1 159.835 61.1C161.048 61.1 162.002 61.36 162.695 61.88C162.815 61.96 162.875 62.0533 162.875 62.16C162.875 62.24 162.848 62.3133 162.795 62.38L162.295 63.22C162.215 63.34 162.142 63.4 162.075 63.4C162.035 63.4 161.962 63.3733 161.855 63.32C161.588 63.1733 161.342 63.0667 161.115 63C160.902 62.92 160.648 62.88 160.355 62.88C159.782 62.88 159.375 63.02 159.135 63.3C158.908 63.58 158.795 64.02 158.795 64.62V65.4H161.255C161.522 65.4 161.708 65.4533 161.815 65.56C161.922 65.6667 161.975 65.8467 161.975 66.1V66.56C161.975 66.8133 161.922 67 161.815 67.12C161.708 67.2267 161.522 67.28 161.255 67.28H158.795V74.28C158.795 74.52 158.735 74.7 158.615 74.82C158.508 74.94 158.315 75 158.035 75H156.975ZM167.764 75.3C166.631 75.3 165.777 74.9867 165.204 74.36C164.631 73.7333 164.344 72.8667 164.344 71.76V67.28H163.204C162.937 67.28 162.757 67.2333 162.664 67.14C162.584 67.0467 162.544 66.8733 162.544 66.62V66.08C162.544 65.8267 162.584 65.6533 162.664 65.56C162.757 65.4533 162.937 65.4 163.204 65.4H164.344V64.3C164.344 64.02 164.391 63.76 164.484 63.52C164.591 63.2667 164.751 62.9533 164.964 62.58C165.044 62.42 165.117 62.32 165.184 62.28C165.264 62.2267 165.397 62.2 165.584 62.2H166.244C166.484 62.2 166.651 62.26 166.744 62.38C166.851 62.4867 166.904 62.6533 166.904 62.88V65.4H169.264C169.531 65.4 169.704 65.4533 169.784 65.56C169.877 65.6533 169.924 65.8267 169.924 66.08V66.62C169.924 66.8733 169.877 67.0467 169.784 67.14C169.704 67.2333 169.531 67.28 169.264 67.28H166.904V71.68C166.904 72.2933 167.011 72.74 167.224 73.02C167.437 73.2867 167.804 73.42 168.324 73.42C168.631 73.42 168.891 73.3867 169.104 73.32C169.317 73.24 169.551 73.1133 169.804 72.94C169.871 72.8867 169.944 72.86 170.024 72.86C170.104 72.86 170.184 72.92 170.264 73.04L170.844 74C170.897 74.0667 170.924 74.14 170.924 74.22C170.924 74.3133 170.857 74.4067 170.724 74.5C169.897 75.0333 168.911 75.3 167.764 75.3Z" fill="#3D3D3D"/>
<path d="M22 54.875H52V79.25H22V54.875ZM50.125 62.375V56.75H42.625V62.375H50.125ZM40.75 64.25H33.25V69.875H40.75V64.25ZM33.25 62.375H40.75V56.75H33.25V62.375ZM31.375 69.875V64.25H23.875V69.875H31.375ZM42.625 69.875H50.125V64.25H42.625V69.875ZM31.375 56.75H23.875V62.375H31.375V56.75Z" fill="#1A8C71"/>
<defs>
<filter id="filter0_d_447_15927" x="39" y="40" width="161" height="62" filterUnits="userSpaceOnUse" color-interpolation-filters="sRGB">
<feFlood flood-opacity="0" result="BackgroundImageFix"/>
<feColorMatrix in="SourceAlpha" type="matrix" values="0 0 0 0 0 0 0 0 0 0 0 0 0 0 0 0 0 0 127 0" result="hardAlpha"/>
<feOffset dy="4"/>
<feGaussianBlur stdDeviation="2.5"/>
<feComposite in2="hardAlpha" operator="out"/>
<feColorMatrix type="matrix" values="0 0 0 0 0 0 0 0 0 0 0 0 0 0 0 0 0 0 0.15 0"/>
<feBlend mode="normal" in2="BackgroundImageFix" result="effect1_dropShadow_447_15927"/>
<feBlend mode="normal" in="SourceGraphic" in2="effect1_dropShadow_447_15927" result="shape"/>
</filter>
<filter id="filter1_d_447_15927" x="8.98352" y="40.4835" width="57.033" height="59.033" filterUnits="userSpaceOnUse" color-interpolation-filters="sRGB">
<feFlood flood-opacity="0" result="BackgroundImageFix"/>
<feColorMatrix in="SourceAlpha" type="matrix" values="0 0 0 0 0 0 0 0 0 0 0 0 0 0 0 0 0 0 127 0" result="hardAlpha"/>
<feOffset dy="4"/>
<feGaussianBlur stdDeviation="1"/>
<feComposite in2="hardAlpha" operator="out"/>
<feColorMatrix type="matrix" values="0 0 0 0 0 0 0 0 0 0 0 0 0 0 0 0 0 0 0.17 0"/>
<feBlend mode="normal" in2="BackgroundImageFix" result="effect1_dropShadow_447_15927"/>
<feBlend mode="normal" in="SourceGraphic" in2="effect1_dropShadow_447_15927" result="shape"/>
</filter>
<linearGradient id="paint0_linear_447_15927" x1="39.441" y1="67.0386" x2="105.643" y2="67.0386" gradientUnits="userSpaceOnUse">
<stop stop-color="#1A8C71"/>
<stop offset="1" stop-color="#78D2BD"/>
</linearGradient>
</defs>
</svg>
