<svg width="200" height="169" viewBox="0 0 200 169" fill="none" xmlns="http://www.w3.org/2000/svg">
<path d="M36.392 165.534C35.524 165.534 34.8333 165.319 34.32 164.89C33.816 164.461 33.5453 163.882 33.508 163.154C32.2293 163.014 31.2493 162.519 30.568 161.67C29.8867 160.821 29.546 159.677 29.546 158.24C29.546 156.663 29.9567 155.44 30.778 154.572C31.6087 153.704 32.794 153.27 34.334 153.27C35.8647 153.27 37.0453 153.704 37.876 154.572C38.7067 155.44 39.122 156.663 39.122 158.24C39.122 159.715 38.758 160.877 38.03 161.726C37.302 162.566 36.2567 163.042 34.894 163.154C34.9127 163.555 35.0667 163.854 35.356 164.05C35.6453 164.246 36.014 164.344 36.462 164.344C36.966 164.344 37.4233 164.213 37.834 163.952C37.8807 163.915 37.9273 163.896 37.974 163.896C38.0207 163.896 38.0627 163.929 38.1 163.994L38.52 164.652C38.548 164.708 38.562 164.755 38.562 164.792C38.562 164.848 38.52 164.904 38.436 164.96C38.1373 165.156 37.8247 165.301 37.498 165.394C37.1807 165.487 36.812 165.534 36.392 165.534ZM34.334 161.894C35.314 161.894 36.0607 161.586 36.574 160.97C37.0873 160.345 37.344 159.435 37.344 158.24C37.344 157.045 37.0873 156.14 36.574 155.524C36.0607 154.908 35.314 154.6 34.334 154.6C33.354 154.6 32.6027 154.908 32.08 155.524C31.5667 156.14 31.31 157.045 31.31 158.24C31.31 159.435 31.5667 160.345 32.08 160.97C32.6027 161.586 33.354 161.894 34.334 161.894ZM43.5841 163.21C42.7907 163.21 42.1934 162.991 41.7921 162.552C41.3907 162.113 41.1901 161.507 41.1901 160.732V157.596H40.3921C40.2054 157.596 40.0794 157.563 40.0141 157.498C39.9581 157.433 39.9301 157.311 39.9301 157.134V156.756C39.9301 156.579 39.9581 156.457 40.0141 156.392C40.0794 156.317 40.2054 156.28 40.3921 156.28H41.1901V155.51C41.1901 155.314 41.2227 155.132 41.2881 154.964C41.3627 154.787 41.4747 154.567 41.6241 154.306C41.6801 154.194 41.7314 154.124 41.7781 154.096C41.8341 154.059 41.9274 154.04 42.0581 154.04H42.5201C42.6881 154.04 42.8047 154.082 42.8701 154.166C42.9447 154.241 42.9821 154.357 42.9821 154.516V156.28H44.6341C44.8207 156.28 44.9421 156.317 44.9981 156.392C45.0634 156.457 45.0961 156.579 45.0961 156.756V157.134C45.0961 157.311 45.0634 157.433 44.9981 157.498C44.9421 157.563 44.8207 157.596 44.6341 157.596H42.9821V160.676C42.9821 161.105 43.0567 161.418 43.2061 161.614C43.3554 161.801 43.6121 161.894 43.9761 161.894C44.1907 161.894 44.3727 161.871 44.5221 161.824C44.6714 161.768 44.8347 161.679 45.0121 161.558C45.0587 161.521 45.1101 161.502 45.1661 161.502C45.2221 161.502 45.2781 161.544 45.3341 161.628L45.7401 162.3C45.7774 162.347 45.7961 162.398 45.7961 162.454C45.7961 162.519 45.7494 162.585 45.6561 162.65C45.0774 163.023 44.3867 163.21 43.5841 163.21ZM47.8836 165.184C47.5289 165.184 47.2023 165.133 46.9036 165.03C46.6049 164.927 46.3483 164.787 46.1336 164.61C46.0589 164.545 46.0216 164.484 46.0216 164.428C46.0216 164.372 46.0403 164.321 46.0776 164.274L46.4696 163.602C46.5256 163.509 46.5816 163.462 46.6376 163.462C46.6843 163.462 46.7403 163.49 46.8056 163.546C46.9549 163.658 47.1043 163.742 47.2536 163.798C47.4123 163.854 47.5989 163.882 47.8136 163.882C48.0936 163.882 48.3129 163.789 48.4716 163.602C48.6303 163.425 48.7936 163.121 48.9616 162.692L46.1336 156.672C46.0963 156.579 46.0776 156.513 46.0776 156.476C46.0776 156.345 46.1523 156.28 46.3016 156.28H47.4916C47.6129 156.28 47.7016 156.299 47.7576 156.336C47.8136 156.373 47.8649 156.443 47.9116 156.546L49.7876 160.942L51.6636 156.546C51.7103 156.443 51.7616 156.373 51.8176 156.336C51.8736 156.299 51.9623 156.28 52.0836 156.28H53.2736C53.4229 156.28 53.4976 156.345 53.4976 156.476C53.4976 156.513 53.4789 156.579 53.4416 156.672L50.8096 162.286C50.4456 163.051 50.1376 163.63 49.8856 164.022C49.6429 164.414 49.3629 164.703 49.0456 164.89C48.7376 165.086 48.3503 165.184 47.8836 165.184ZM54.9778 157.848C54.7818 157.848 54.6184 157.778 54.4878 157.638C54.3664 157.498 54.3058 157.325 54.3058 157.12V156.826C54.3058 156.621 54.3664 156.448 54.4878 156.308C54.6184 156.168 54.7818 156.098 54.9778 156.098H55.2858C55.4911 156.098 55.6544 156.168 55.7758 156.308C55.9064 156.448 55.9718 156.621 55.9718 156.826V157.12C55.9718 157.316 55.9064 157.489 55.7758 157.638C55.6451 157.778 55.4818 157.848 55.2858 157.848H54.9778ZM54.9778 163C54.7818 163 54.6184 162.935 54.4878 162.804C54.3664 162.664 54.3058 162.491 54.3058 162.286V161.978C54.3058 161.773 54.3664 161.605 54.4878 161.474C54.6184 161.334 54.7818 161.264 54.9778 161.264H55.2858C55.4911 161.264 55.6544 161.334 55.7758 161.474C55.9064 161.605 55.9718 161.773 55.9718 161.978V162.286C55.9718 162.482 55.9064 162.65 55.7758 162.79C55.6451 162.93 55.4818 163 55.2858 163H54.9778ZM57.8235 163C57.6368 163 57.5062 162.967 57.4315 162.902C57.3568 162.827 57.3195 162.706 57.3195 162.538V162.132C57.3195 161.955 57.3568 161.829 57.4315 161.754C57.5062 161.679 57.6368 161.642 57.8235 161.642H59.1955V155.44L57.9915 156.168C57.9168 156.215 57.8515 156.238 57.7955 156.238C57.7115 156.238 57.6415 156.191 57.5855 156.098L57.1375 155.398C57.1002 155.333 57.0815 155.272 57.0815 155.216C57.0815 155.123 57.1328 155.048 57.2355 154.992L59.5455 153.606C59.6108 153.559 59.6762 153.527 59.7415 153.508C59.8068 153.489 59.8955 153.48 60.0075 153.48H60.4695C60.8242 153.48 61.0015 153.653 61.0015 153.998V161.642H62.3735C62.5602 161.642 62.6908 161.679 62.7655 161.754C62.8402 161.829 62.8775 161.955 62.8775 162.132V162.538C62.8775 162.706 62.8402 162.827 62.7655 162.902C62.6908 162.967 62.5602 163 62.3735 163H57.8235ZM67.1567 163.21C65.6447 163.21 64.5293 162.967 63.8107 162.482C63.7267 162.426 63.6847 162.361 63.6847 162.286C63.6847 162.23 63.708 162.165 63.7547 162.09L64.1607 161.404C64.2167 161.311 64.268 161.264 64.3147 161.264C64.352 161.264 64.4173 161.287 64.5107 161.334C64.8187 161.502 65.1733 161.637 65.5747 161.74C65.9853 161.843 66.4287 161.894 66.9047 161.894C67.67 161.894 68.23 161.749 68.5847 161.46C68.9487 161.161 69.1307 160.751 69.1307 160.228C69.1307 159.257 68.538 158.772 67.3527 158.772H66.1767C65.99 158.772 65.8547 158.735 65.7707 158.66C65.696 158.576 65.6587 158.445 65.6587 158.268V157.904C65.6587 157.736 65.696 157.615 65.7707 157.54C65.8547 157.465 65.99 157.428 66.1767 157.428H67.3247C67.8287 157.428 68.2067 157.297 68.4587 157.036C68.7107 156.765 68.8367 156.425 68.8367 156.014C68.8367 155.071 68.174 154.6 66.8487 154.6C66.0273 154.6 65.304 154.773 64.6787 155.118C64.5853 155.165 64.52 155.188 64.4827 155.188C64.436 155.188 64.3847 155.146 64.3287 155.062L63.9367 154.404C63.89 154.329 63.8667 154.264 63.8667 154.208C63.8667 154.133 63.9087 154.068 63.9927 154.012C64.3193 153.779 64.7533 153.597 65.2947 153.466C65.836 153.335 66.438 153.27 67.1007 153.27C67.8193 153.27 68.44 153.382 68.9627 153.606C69.4947 153.83 69.9007 154.147 70.1807 154.558C70.47 154.959 70.6147 155.431 70.6147 155.972C70.6147 156.411 70.5073 156.817 70.2927 157.19C70.0873 157.563 69.7887 157.853 69.3967 158.058C69.9007 158.245 70.274 158.534 70.5167 158.926C70.7687 159.309 70.8947 159.761 70.8947 160.284C70.8947 161.161 70.568 161.871 69.9147 162.412C69.2707 162.944 68.3513 163.21 67.1567 163.21ZM75.8755 163.21C74.7088 163.21 73.7662 162.865 73.0475 162.174C72.3382 161.474 71.9835 160.368 71.9835 158.856C71.9835 157.531 72.1842 156.453 72.5855 155.622C72.9868 154.782 73.5095 154.18 74.1535 153.816C74.7975 153.452 75.4975 153.27 76.2535 153.27C77.3642 153.27 78.2695 153.513 78.9695 153.998C79.0535 154.063 79.0955 154.129 79.0955 154.194C79.0955 154.25 79.0768 154.311 79.0395 154.376L78.6615 155.034C78.6055 155.127 78.5495 155.174 78.4935 155.174C78.4468 155.174 78.3815 155.146 78.2975 155.09C78.0268 154.922 77.7375 154.801 77.4295 154.726C77.1308 154.642 76.7715 154.6 76.3515 154.6C75.5955 154.6 75.0075 154.81 74.5875 155.23C74.1675 155.641 73.8782 156.285 73.7195 157.162C74.0555 156.873 74.4335 156.667 74.8535 156.546C75.2828 156.415 75.7822 156.35 76.3515 156.35C77.0515 156.35 77.6628 156.485 78.1855 156.756C78.7175 157.017 79.1282 157.391 79.4175 157.876C79.7162 158.352 79.8655 158.903 79.8655 159.528C79.8655 160.741 79.5155 161.661 78.8155 162.286C78.1155 162.902 77.1355 163.21 75.8755 163.21ZM75.8755 161.894C77.3502 161.894 78.0875 161.119 78.0875 159.57C78.0875 158.907 77.8915 158.399 77.4995 158.044C77.1075 157.68 76.5848 157.498 75.9315 157.498C75.3528 157.498 74.8488 157.675 74.4195 158.03C73.9902 158.375 73.7755 158.903 73.7755 159.612C73.7755 160.405 73.9622 160.984 74.3355 161.348C74.7182 161.712 75.2315 161.894 75.8755 161.894ZM88.2606 164.62C88.0206 164.62 87.8466 164.566 87.7386 164.458C87.6426 164.35 87.5946 164.188 87.5946 163.972V149.806C87.5946 149.578 87.6426 149.41 87.7386 149.302C87.8466 149.194 88.0206 149.14 88.2606 149.14H89.2146C89.4546 149.14 89.6286 149.194 89.7366 149.302C89.8446 149.41 89.8986 149.578 89.8986 149.806V163.972C89.8986 164.2 89.8446 164.362 89.7366 164.458C89.6406 164.566 89.4666 164.62 89.2146 164.62H88.2606ZM97.7599 163C97.6239 163 97.5559 162.94 97.5559 162.82C97.5559 162.772 97.5679 162.72 97.5919 162.664L100.76 155.152C100.808 155.032 100.86 154.952 100.916 154.912C100.972 154.864 101.052 154.84 101.156 154.84H101.816C101.928 154.84 102.008 154.864 102.056 154.912C102.112 154.952 102.164 155.032 102.212 155.152L105.38 162.664C105.404 162.72 105.416 162.772 105.416 162.82C105.416 162.94 105.348 163 105.212 163H104.168C104.064 163 103.988 162.988 103.94 162.964C103.9 162.932 103.86 162.872 103.82 162.784L103.136 161.104H99.8239L99.1519 162.784C99.1119 162.872 99.0679 162.932 99.0199 162.964C98.9799 162.988 98.9079 163 98.8039 163H97.7599ZM102.752 159.988L101.48 156.844L100.208 159.988H102.752ZM107.053 163C106.893 163 106.777 162.964 106.705 162.892C106.633 162.82 106.597 162.712 106.597 162.568V157.564C106.597 157.444 106.617 157.36 106.657 157.312C106.697 157.264 106.781 157.24 106.909 157.24H107.545C107.633 157.24 107.697 157.26 107.737 157.3C107.777 157.332 107.801 157.392 107.809 157.48L107.845 157.984C108.077 157.688 108.341 157.46 108.637 157.3C108.941 157.14 109.301 157.06 109.717 157.06C110.069 157.06 110.373 157.14 110.629 157.3C110.893 157.452 111.085 157.68 111.205 157.984C111.645 157.368 112.281 157.06 113.113 157.06C113.681 157.06 114.129 157.232 114.457 157.576C114.793 157.92 114.961 158.432 114.961 159.112V162.568C114.961 162.712 114.925 162.82 114.853 162.892C114.789 162.964 114.673 163 114.505 163H113.977C113.817 163 113.701 162.964 113.629 162.892C113.557 162.82 113.521 162.712 113.521 162.568V159.196C113.521 158.828 113.441 158.564 113.281 158.404C113.129 158.244 112.897 158.164 112.585 158.164C112.257 158.164 111.989 158.272 111.781 158.488C111.581 158.704 111.481 158.996 111.481 159.364V162.568C111.481 162.712 111.445 162.82 111.373 162.892C111.301 162.964 111.185 163 111.025 163H110.533C110.373 163 110.257 162.964 110.185 162.892C110.113 162.82 110.077 162.712 110.077 162.568V159.136C110.077 158.8 110.005 158.556 109.861 158.404C109.725 158.244 109.505 158.164 109.201 158.164C108.857 158.164 108.577 158.28 108.361 158.512C108.145 158.736 108.037 159.032 108.037 159.4V162.568C108.037 162.712 108.001 162.82 107.929 162.892C107.865 162.964 107.749 163 107.581 163H107.053ZM119.148 163.18C118.108 163.18 117.304 162.908 116.736 162.364C116.176 161.812 115.896 161.064 115.896 160.12C115.896 159.176 116.176 158.432 116.736 157.888C117.304 157.336 118.108 157.06 119.148 157.06C120.188 157.06 120.992 157.336 121.56 157.888C122.128 158.432 122.412 159.176 122.412 160.12C122.412 161.064 122.128 161.812 121.56 162.364C120.992 162.908 120.188 163.18 119.148 163.18ZM119.148 162.052C119.716 162.052 120.148 161.888 120.444 161.56C120.74 161.232 120.888 160.752 120.888 160.12C120.888 159.496 120.74 159.024 120.444 158.704C120.148 158.376 119.716 158.212 119.148 158.212C118.588 158.212 118.156 158.376 117.852 158.704C117.556 159.024 117.408 159.496 117.408 160.12C117.408 160.744 117.556 161.224 117.852 161.56C118.156 161.888 118.588 162.052 119.148 162.052ZM125.713 163.18C125.057 163.18 124.529 163 124.129 162.64C123.729 162.272 123.529 161.728 123.529 161.008V157.684C123.529 157.532 123.561 157.42 123.625 157.348C123.697 157.276 123.813 157.24 123.973 157.24H124.609C124.769 157.24 124.885 157.276 124.957 157.348C125.029 157.42 125.065 157.532 125.065 157.684V160.972C125.065 161.356 125.165 161.64 125.365 161.824C125.565 162 125.861 162.088 126.253 162.088C126.669 162.088 127.017 161.972 127.297 161.74C127.577 161.508 127.717 161.208 127.717 160.84V157.684C127.717 157.532 127.753 157.42 127.825 157.348C127.897 157.276 128.013 157.24 128.173 157.24H128.797C128.957 157.24 129.073 157.276 129.145 157.348C129.217 157.42 129.253 157.532 129.253 157.684V162.676C129.253 162.804 129.233 162.892 129.193 162.94C129.153 162.98 129.069 163 128.941 163H128.269C128.181 163 128.117 162.984 128.077 162.952C128.037 162.912 128.013 162.852 128.005 162.772L127.957 162.268C127.413 162.876 126.665 163.18 125.713 163.18ZM131.123 163C130.963 163 130.847 162.964 130.775 162.892C130.703 162.82 130.667 162.712 130.667 162.568V157.564C130.667 157.444 130.687 157.36 130.727 157.312C130.767 157.264 130.851 157.24 130.979 157.24H131.663C131.839 157.24 131.931 157.32 131.939 157.48L131.963 157.96C132.507 157.36 133.287 157.06 134.303 157.06C134.951 157.06 135.471 157.236 135.863 157.588C136.263 157.932 136.463 158.452 136.463 159.148V162.568C136.463 162.712 136.427 162.82 136.355 162.892C136.291 162.964 136.179 163 136.019 163H135.383C135.223 163 135.107 162.964 135.035 162.892C134.963 162.82 134.927 162.712 134.927 162.568V159.244C134.927 158.852 134.835 158.576 134.651 158.416C134.475 158.248 134.187 158.164 133.787 158.164C133.363 158.164 132.991 158.28 132.671 158.512C132.359 158.736 132.203 159.028 132.203 159.388V162.568C132.203 162.712 132.167 162.82 132.095 162.892C132.031 162.964 131.915 163 131.747 163H131.123ZM140.467 163.18C139.787 163.18 139.275 162.992 138.931 162.616C138.587 162.24 138.415 161.72 138.415 161.056V158.368H137.731C137.571 158.368 137.463 158.34 137.407 158.284C137.359 158.228 137.335 158.124 137.335 157.972V157.648C137.335 157.496 137.359 157.392 137.407 157.336C137.463 157.272 137.571 157.24 137.731 157.24H138.415V156.58C138.415 156.412 138.443 156.256 138.499 156.112C138.563 155.96 138.659 155.772 138.787 155.548C138.835 155.452 138.879 155.392 138.919 155.368C138.967 155.336 139.047 155.32 139.159 155.32H139.555C139.699 155.32 139.799 155.356 139.855 155.428C139.919 155.492 139.951 155.592 139.951 155.728V157.24H141.367C141.527 157.24 141.631 157.272 141.679 157.336C141.735 157.392 141.763 157.496 141.763 157.648V157.972C141.763 158.124 141.735 158.228 141.679 158.284C141.631 158.34 141.527 158.368 141.367 158.368H139.951V161.008C139.951 161.376 140.015 161.644 140.143 161.812C140.271 161.972 140.491 162.052 140.803 162.052C140.987 162.052 141.143 162.032 141.271 161.992C141.399 161.944 141.539 161.868 141.691 161.764C141.731 161.732 141.775 161.716 141.823 161.716C141.871 161.716 141.919 161.752 141.967 161.824L142.315 162.4C142.347 162.44 142.363 162.484 142.363 162.532C142.363 162.588 142.323 162.644 142.243 162.7C141.747 163.02 141.155 163.18 140.467 163.18ZM143.636 158.584C143.468 158.584 143.328 158.524 143.216 158.404C143.112 158.284 143.06 158.136 143.06 157.96V157.708C143.06 157.532 143.112 157.384 143.216 157.264C143.328 157.144 143.468 157.084 143.636 157.084H143.9C144.076 157.084 144.216 157.144 144.32 157.264C144.432 157.384 144.488 157.532 144.488 157.708V157.96C144.488 158.128 144.432 158.276 144.32 158.404C144.208 158.524 144.068 158.584 143.9 158.584H143.636ZM143.636 163C143.468 163 143.328 162.944 143.216 162.832C143.112 162.712 143.06 162.564 143.06 162.388V162.124C143.06 161.948 143.112 161.804 143.216 161.692C143.328 161.572 143.468 161.512 143.636 161.512H143.9C144.076 161.512 144.216 161.572 144.32 161.692C144.432 161.804 144.488 161.948 144.488 162.124V162.388C144.488 162.556 144.432 162.7 144.32 162.82C144.208 162.94 144.068 163 143.9 163H143.636ZM149.747 163C149.587 163 149.471 162.968 149.399 162.904C149.335 162.84 149.303 162.736 149.303 162.592V161.224H145.499C145.291 161.224 145.187 161.128 145.187 160.936V160.444C145.187 160.332 145.199 160.248 145.223 160.192C145.247 160.128 145.291 160.052 145.355 159.964L149.399 155.068C149.471 154.98 149.535 154.92 149.591 154.888C149.647 154.856 149.735 154.84 149.855 154.84H150.383C150.543 154.84 150.659 154.876 150.731 154.948C150.803 155.02 150.839 155.132 150.839 155.284V160.06H151.679C151.839 160.06 151.951 160.096 152.015 160.168C152.079 160.232 152.111 160.34 152.111 160.492V160.816C152.111 160.96 152.079 161.064 152.015 161.128C151.951 161.192 151.839 161.224 151.679 161.224H150.839V162.592C150.839 162.736 150.803 162.84 150.731 162.904C150.667 162.968 150.551 163 150.383 163H149.747ZM149.555 160.06V156.652L146.795 160.06H149.555ZM155.93 163.18C155.434 163.18 154.982 163.124 154.574 163.012C154.174 162.908 153.834 162.764 153.554 162.58C153.482 162.532 153.446 162.476 153.446 162.412C153.446 162.364 153.466 162.308 153.506 162.244L153.842 161.668C153.89 161.596 153.934 161.56 153.974 161.56C154.006 161.56 154.062 161.58 154.142 161.62C154.622 161.908 155.19 162.052 155.846 162.052C156.526 162.052 157.05 161.872 157.418 161.512C157.786 161.152 158.014 160.6 158.102 159.856C157.83 160.112 157.51 160.296 157.142 160.408C156.782 160.512 156.354 160.564 155.858 160.564C155.234 160.564 154.69 160.452 154.226 160.228C153.77 159.996 153.418 159.672 153.17 159.256C152.93 158.84 152.81 158.364 152.81 157.828C152.81 156.772 153.106 155.98 153.698 155.452C154.29 154.924 155.134 154.66 156.23 154.66C157.222 154.66 158.014 154.968 158.606 155.584C159.206 156.192 159.506 157.132 159.506 158.404C159.506 160.1 159.17 161.32 158.498 162.064C157.834 162.808 156.978 163.18 155.93 163.18ZM156.194 159.58C156.498 159.58 156.782 159.516 157.046 159.388C157.318 159.252 157.538 159.056 157.706 158.8C157.874 158.536 157.958 158.22 157.958 157.852C157.958 157.172 157.806 156.66 157.502 156.316C157.198 155.972 156.77 155.8 156.218 155.8C155.586 155.8 155.11 155.96 154.79 156.28C154.478 156.6 154.322 157.108 154.322 157.804C154.322 158.396 154.478 158.84 154.79 159.136C155.11 159.432 155.578 159.58 156.194 159.58ZM163.799 163.18C162.743 163.18 161.919 162.964 161.327 162.532C160.735 162.1 160.439 161.492 160.439 160.708C160.439 160.252 160.559 159.852 160.799 159.508C161.047 159.156 161.383 158.904 161.807 158.752C161.431 158.584 161.147 158.356 160.955 158.068C160.763 157.78 160.667 157.444 160.667 157.06C160.667 156.292 160.935 155.7 161.471 155.284C162.015 154.868 162.791 154.66 163.799 154.66C164.807 154.66 165.579 154.868 166.115 155.284C166.651 155.7 166.919 156.292 166.919 157.06C166.919 157.444 166.823 157.78 166.631 158.068C166.439 158.356 166.159 158.584 165.791 158.752C166.215 158.904 166.547 159.156 166.787 159.508C167.035 159.852 167.159 160.252 167.159 160.708C167.159 161.492 166.859 162.1 166.259 162.532C165.667 162.964 164.847 163.18 163.799 163.18ZM163.799 158.212C164.319 158.212 164.715 158.124 164.987 157.948C165.259 157.764 165.395 157.468 165.395 157.06C165.395 156.612 165.263 156.292 164.999 156.1C164.743 155.9 164.343 155.8 163.799 155.8C163.255 155.8 162.851 155.9 162.587 156.1C162.323 156.292 162.191 156.612 162.191 157.06C162.191 157.468 162.327 157.764 162.599 157.948C162.871 158.124 163.271 158.212 163.799 158.212ZM163.799 162.052C165.023 162.052 165.635 161.604 165.635 160.708C165.635 159.788 165.023 159.328 163.799 159.328C162.567 159.328 161.951 159.788 161.951 160.708C161.951 161.604 162.567 162.052 163.799 162.052ZM171.427 163.18C170.427 163.18 169.619 162.884 169.003 162.292C168.395 161.692 168.091 160.744 168.091 159.448C168.091 158.312 168.263 157.388 168.607 156.676C168.951 155.956 169.399 155.44 169.951 155.128C170.503 154.816 171.103 154.66 171.751 154.66C172.703 154.66 173.479 154.868 174.079 155.284C174.151 155.34 174.187 155.396 174.187 155.452C174.187 155.5 174.171 155.552 174.139 155.608L173.815 156.172C173.767 156.252 173.719 156.292 173.671 156.292C173.631 156.292 173.575 156.268 173.503 156.22C173.271 156.076 173.023 155.972 172.759 155.908C172.503 155.836 172.195 155.8 171.835 155.8C171.187 155.8 170.683 155.98 170.323 156.34C169.963 156.692 169.715 157.244 169.579 157.996C169.867 157.748 170.191 157.572 170.551 157.468C170.919 157.356 171.347 157.3 171.835 157.3C172.435 157.3 172.959 157.416 173.407 157.648C173.863 157.872 174.215 158.192 174.463 158.608C174.719 159.016 174.847 159.488 174.847 160.024C174.847 161.064 174.547 161.852 173.947 162.388C173.347 162.916 172.507 163.18 171.427 163.18ZM171.427 162.052C172.691 162.052 173.323 161.388 173.323 160.06C173.323 159.492 173.155 159.056 172.819 158.752C172.483 158.44 172.035 158.284 171.475 158.284C170.979 158.284 170.547 158.436 170.179 158.74C169.811 159.036 169.627 159.488 169.627 160.096C169.627 160.776 169.787 161.272 170.107 161.584C170.435 161.896 170.875 162.052 171.427 162.052ZM179.115 163.18C178.115 163.18 177.307 162.884 176.691 162.292C176.083 161.692 175.779 160.744 175.779 159.448C175.779 158.312 175.951 157.388 176.295 156.676C176.639 155.956 177.087 155.44 177.639 155.128C178.191 154.816 178.791 154.66 179.439 154.66C180.391 154.66 181.167 154.868 181.767 155.284C181.839 155.34 181.875 155.396 181.875 155.452C181.875 155.5 181.859 155.552 181.827 155.608L181.503 156.172C181.455 156.252 181.407 156.292 181.359 156.292C181.319 156.292 181.263 156.268 181.191 156.22C180.959 156.076 180.711 155.972 180.447 155.908C180.191 155.836 179.883 155.8 179.523 155.8C178.875 155.8 178.371 155.98 178.011 156.34C177.651 156.692 177.403 157.244 177.267 157.996C177.555 157.748 177.879 157.572 178.239 157.468C178.607 157.356 179.035 157.3 179.523 157.3C180.123 157.3 180.647 157.416 181.095 157.648C181.551 157.872 181.903 158.192 182.151 158.608C182.407 159.016 182.535 159.488 182.535 160.024C182.535 161.064 182.235 161.852 181.635 162.388C181.035 162.916 180.195 163.18 179.115 163.18ZM179.115 162.052C180.379 162.052 181.011 161.388 181.011 160.06C181.011 159.492 180.843 159.056 180.507 158.752C180.171 158.44 179.723 158.284 179.163 158.284C178.667 158.284 178.235 158.436 177.867 158.74C177.499 159.036 177.315 159.488 177.315 160.096C177.315 160.776 177.475 161.272 177.795 161.584C178.123 161.896 178.563 162.052 179.115 162.052Z" fill="#3D3D3D"/>
<g opacity="0.19">
<path d="M105.608 8.36206C139.817 8.36206 167.639 36.0991 167.639 70.3922C167.639 104.685 139.902 132.422 105.608 132.422" stroke="#19374C" stroke-width="3" stroke-miterlimit="10"/>
</g>
<path d="M105.608 5C139.817 5 167.639 32.7371 167.639 67.0302C167.639 101.323 139.902 129.06 105.608 129.06" stroke="#150D36" stroke-width="3" stroke-miterlimit="10"/>
<path d="M105.608 129.06C71.3991 129.06 43.578 101.323 43.578 67.0302C43.578 32.7371 71.3151 5 105.608 5" stroke="url(#paint0_linear_447_15926)" stroke-width="10" stroke-miterlimit="10"/>
<g filter="url(#filter0_d_447_15926)">
<path d="M44 41H169C183.359 41 195 52.6406 195 67C195 81.3594 183.359 93 169 93H44V41Z" fill="white"/>
</g>
<g filter="url(#filter1_d_447_15926)">
<path d="M56.25 85.75C66.6054 75.3947 66.6053 58.6053 56.25 48.25C45.8947 37.8947 29.1053 37.8947 18.75 48.25C8.39467 58.6053 8.39466 75.3947 18.75 85.75C29.1053 96.1053 45.8947 96.1053 56.25 85.75Z" fill="white"/>
</g>
<path d="M87.9918 75.3C85.7251 75.3 83.9718 74.6867 82.7318 73.46C81.4918 72.2333 80.8718 70.48 80.8718 68.2C80.8718 65.92 81.4785 64.1667 82.6918 62.94C83.9185 61.7133 85.6651 61.1 87.9318 61.1C88.8385 61.1 89.6785 61.1933 90.4518 61.38C91.2251 61.5667 91.8785 61.8333 92.4118 62.18C92.5318 62.26 92.5918 62.3467 92.5918 62.44C92.5918 62.52 92.5585 62.6133 92.4918 62.72L91.9318 63.68C91.8518 63.8 91.7785 63.86 91.7118 63.86C91.6585 63.86 91.5651 63.8267 91.4318 63.76C90.5918 63.2533 89.5185 63 88.2118 63C86.7051 63 85.5251 63.4333 84.6718 64.3C83.8185 65.1667 83.3918 66.4667 83.3918 68.2C83.3918 69.96 83.8318 71.2733 84.7118 72.14C85.5918 72.9933 86.7785 73.42 88.2718 73.42C89.6585 73.42 90.7985 73.16 91.6918 72.64C91.8251 72.5733 91.9118 72.54 91.9518 72.54C92.0318 72.54 92.1118 72.6 92.1918 72.72L92.8118 73.76C92.8518 73.84 92.8718 73.9067 92.8718 73.96C92.8718 74.04 92.7985 74.1267 92.6518 74.22C91.6251 74.94 90.0718 75.3 87.9918 75.3ZM97.7885 75.3C96.4818 75.3 95.4418 74.9067 94.6685 74.12C93.8952 73.32 93.5085 72.2 93.5085 70.76C93.5085 69.64 93.7552 68.6533 94.2485 67.8C94.7418 66.9333 95.4418 66.2667 96.3485 65.8C97.2685 65.3333 98.3352 65.1 99.5485 65.1C101.242 65.1 102.675 65.5 103.849 66.3V74.46C103.849 74.66 103.802 74.8 103.709 74.88C103.629 74.96 103.482 75 103.269 75H102.169C102.022 75 101.909 74.9733 101.829 74.92C101.762 74.8533 101.715 74.7533 101.689 74.62L101.529 73.84C101.115 74.3467 100.602 74.72 99.9885 74.96C99.3885 75.1867 98.6552 75.3 97.7885 75.3ZM98.7485 73.48C99.4552 73.48 100.075 73.2733 100.609 72.86C101.155 72.4467 101.429 71.9 101.429 71.22V67.32C101.149 67.1733 100.862 67.0733 100.569 67.02C100.289 66.9533 99.9418 66.92 99.5285 66.92C98.4752 66.92 97.6285 67.2533 96.9885 67.92C96.3485 68.5867 96.0285 69.5067 96.0285 70.68C96.0285 71.64 96.2485 72.3467 96.6885 72.8C97.1418 73.2533 97.8285 73.48 98.7485 73.48ZM106.973 75C106.707 75 106.513 74.94 106.393 74.82C106.273 74.7 106.213 74.52 106.213 74.28V65.94C106.213 65.74 106.247 65.6 106.313 65.52C106.38 65.44 106.52 65.4 106.733 65.4H107.873C108.167 65.4 108.32 65.5333 108.333 65.8L108.373 66.6C109.28 65.6 110.58 65.1 112.273 65.1C113.353 65.1 114.22 65.3933 114.873 65.98C115.54 66.5533 115.873 67.42 115.873 68.58V74.28C115.873 74.52 115.813 74.7 115.693 74.82C115.587 74.94 115.4 75 115.133 75H114.073C113.807 75 113.613 74.94 113.493 74.82C113.373 74.7 113.313 74.52 113.313 74.28V68.74C113.313 68.0867 113.16 67.6267 112.853 67.36C112.56 67.08 112.08 66.94 111.413 66.94C110.707 66.94 110.087 67.1333 109.553 67.52C109.033 67.8933 108.773 68.38 108.773 68.98V74.28C108.773 74.52 108.713 74.7 108.593 74.82C108.487 74.94 108.293 75 108.013 75H106.973ZM122.547 75.3C121.414 75.3 120.561 74.9867 119.987 74.36C119.414 73.7333 119.127 72.8667 119.127 71.76V67.28H117.987C117.721 67.28 117.541 67.2333 117.447 67.14C117.367 67.0467 117.327 66.8733 117.327 66.62V66.08C117.327 65.8267 117.367 65.6533 117.447 65.56C117.541 65.4533 117.721 65.4 117.987 65.4H119.127V64.3C119.127 64.02 119.174 63.76 119.267 63.52C119.374 63.2667 119.534 62.9533 119.747 62.58C119.827 62.42 119.901 62.32 119.967 62.28C120.047 62.2267 120.181 62.2 120.367 62.2H121.027C121.267 62.2 121.434 62.26 121.527 62.38C121.634 62.4867 121.687 62.6533 121.687 62.88V65.4H124.047C124.314 65.4 124.487 65.4533 124.567 65.56C124.661 65.6533 124.707 65.8267 124.707 66.08V66.62C124.707 66.8733 124.661 67.0467 124.567 67.14C124.487 67.2333 124.314 67.28 124.047 67.28H121.687V71.68C121.687 72.2933 121.794 72.74 122.007 73.02C122.221 73.2867 122.587 73.42 123.107 73.42C123.414 73.42 123.674 73.3867 123.887 73.32C124.101 73.24 124.334 73.1133 124.587 72.94C124.654 72.8867 124.727 72.86 124.807 72.86C124.887 72.86 124.967 72.92 125.047 73.04L125.627 74C125.681 74.0667 125.707 74.14 125.707 74.22C125.707 74.3133 125.641 74.4067 125.507 74.5C124.681 75.0333 123.694 75.3 122.547 75.3ZM132.448 75.3C131.408 75.3 130.468 75.1267 129.628 74.78C128.788 74.42 128.115 73.8733 127.608 73.14C127.115 72.3933 126.868 71.4667 126.868 70.36C126.868 68.64 127.328 67.3333 128.248 66.44C129.168 65.5467 130.475 65.1 132.168 65.1C133.848 65.1 135.115 65.5333 135.968 66.4C136.835 67.2667 137.268 68.52 137.268 70.16C137.268 70.6267 137.055 70.86 136.628 70.86H129.288C129.288 71.74 129.595 72.42 130.208 72.9C130.821 73.3667 131.675 73.6 132.768 73.6C133.821 73.6 134.768 73.36 135.608 72.88C135.701 72.8267 135.775 72.8 135.828 72.8C135.921 72.8 135.995 72.86 136.048 72.98L136.528 73.84C136.568 73.92 136.588 73.9933 136.588 74.06C136.588 74.1533 136.528 74.24 136.408 74.32C135.861 74.6533 135.268 74.9 134.628 75.06C134.001 75.22 133.275 75.3 132.448 75.3ZM134.948 69.38C134.948 68.5533 134.715 67.9067 134.248 67.44C133.795 66.9733 133.108 66.74 132.188 66.74C131.255 66.74 130.535 66.98 130.028 67.46C129.535 67.94 129.288 68.58 129.288 69.38H134.948ZM144.401 75.3C143.361 75.3 142.421 75.1267 141.581 74.78C140.741 74.42 140.068 73.8733 139.561 73.14C139.068 72.3933 138.821 71.4667 138.821 70.36C138.821 68.64 139.281 67.3333 140.201 66.44C141.121 65.5467 142.428 65.1 144.121 65.1C145.801 65.1 147.068 65.5333 147.921 66.4C148.788 67.2667 149.221 68.52 149.221 70.16C149.221 70.6267 149.008 70.86 148.581 70.86H141.241C141.241 71.74 141.548 72.42 142.161 72.9C142.774 73.3667 143.628 73.6 144.721 73.6C145.774 73.6 146.721 73.36 147.561 72.88C147.654 72.8267 147.728 72.8 147.781 72.8C147.874 72.8 147.948 72.86 148.001 72.98L148.481 73.84C148.521 73.92 148.541 73.9933 148.541 74.06C148.541 74.1533 148.481 74.24 148.361 74.32C147.814 74.6533 147.221 74.9 146.581 75.06C145.954 75.22 145.228 75.3 144.401 75.3ZM146.901 69.38C146.901 68.5533 146.668 67.9067 146.201 67.44C145.748 66.9733 145.061 66.74 144.141 66.74C143.208 66.74 142.488 66.98 141.981 67.46C141.488 67.94 141.241 68.58 141.241 69.38H146.901ZM151.934 75C151.667 75 151.474 74.94 151.354 74.82C151.234 74.7 151.174 74.52 151.174 74.28V65.94C151.174 65.74 151.207 65.6 151.274 65.52C151.341 65.44 151.481 65.4 151.694 65.4H152.834C153.127 65.4 153.281 65.5333 153.294 65.8L153.334 66.6C154.241 65.6 155.541 65.1 157.234 65.1C158.314 65.1 159.181 65.3933 159.834 65.98C160.501 66.5533 160.834 67.42 160.834 68.58V74.28C160.834 74.52 160.774 74.7 160.654 74.82C160.547 74.94 160.361 75 160.094 75H159.034C158.767 75 158.574 74.94 158.454 74.82C158.334 74.7 158.274 74.52 158.274 74.28V68.74C158.274 68.0867 158.121 67.6267 157.814 67.36C157.521 67.08 157.041 66.94 156.374 66.94C155.667 66.94 155.047 67.1333 154.514 67.52C153.994 67.8933 153.734 68.38 153.734 68.98V74.28C153.734 74.52 153.674 74.7 153.554 74.82C153.447 74.94 153.254 75 152.974 75H151.934Z" fill="#3D3D3D"/>
<path d="M37.2222 56.8194L46.3889 63.6944V77.4444H28.0556V63.6944L37.2222 56.8194ZM37.2222 53L25 62.1667V80.5H49.4444V62.1667L37.2222 53ZM36.4583 62.9306V67.5139H35.6944V62.9306H34.1667V67.5139H33.4028V62.9306H31.875V67.5139C31.875 68.7819 32.8986 69.8056 34.1667 69.8056V75.9167H35.6944V69.8056C36.9625 69.8056 37.9861 68.7819 37.9861 67.5139V62.9306H36.4583ZM38.75 65.9861V70.5694H40.2778V75.9167H41.8056V62.9306C40.125 62.9306 38.75 64.3056 38.75 65.9861Z" fill="#B40A0A"/>
<defs>
<filter id="filter0_d_447_15926" x="39" y="40" width="161" height="62" filterUnits="userSpaceOnUse" color-interpolation-filters="sRGB">
<feFlood flood-opacity="0" result="BackgroundImageFix"/>
<feColorMatrix in="SourceAlpha" type="matrix" values="0 0 0 0 0 0 0 0 0 0 0 0 0 0 0 0 0 0 127 0" result="hardAlpha"/>
<feOffset dy="4"/>
<feGaussianBlur stdDeviation="2.5"/>
<feComposite in2="hardAlpha" operator="out"/>
<feColorMatrix type="matrix" values="0 0 0 0 0 0 0 0 0 0 0 0 0 0 0 0 0 0 0.15 0"/>
<feBlend mode="normal" in2="BackgroundImageFix" result="effect1_dropShadow_447_15926"/>
<feBlend mode="normal" in="SourceGraphic" in2="effect1_dropShadow_447_15926" result="shape"/>
</filter>
<filter id="filter1_d_447_15926" x="8.98352" y="40.4835" width="57.033" height="59.033" filterUnits="userSpaceOnUse" color-interpolation-filters="sRGB">
<feFlood flood-opacity="0" result="BackgroundImageFix"/>
<feColorMatrix in="SourceAlpha" type="matrix" values="0 0 0 0 0 0 0 0 0 0 0 0 0 0 0 0 0 0 127 0" result="hardAlpha"/>
<feOffset dy="4"/>
<feGaussianBlur stdDeviation="1"/>
<feComposite in2="hardAlpha" operator="out"/>
<feColorMatrix type="matrix" values="0 0 0 0 0 0 0 0 0 0 0 0 0 0 0 0 0 0 0.17 0"/>
<feBlend mode="normal" in2="BackgroundImageFix" result="effect1_dropShadow_447_15926"/>
<feBlend mode="normal" in="SourceGraphic" in2="effect1_dropShadow_447_15926" result="shape"/>
</filter>
<linearGradient id="paint0_linear_447_15926" x1="39.441" y1="67.0386" x2="105.643" y2="67.0386" gradientUnits="userSpaceOnUse">
<stop stop-color="#FF7A00"/>
<stop offset="1" stop-color="#FAAD67"/>
</linearGradient>
</defs>
</svg>
